<svg width="18" height="17" viewBox="0 0 18 17" fill="none" xmlns="http://www.w3.org/2000/svg">
<path fill-rule="evenodd" clip-rule="evenodd" d="M9.32754 0.873769C9.43203 0.767362 9.55617 0.68294 9.69283 0.625337C9.82949 0.567735 9.976 0.538086 10.124 0.538086C10.2719 0.538086 10.4184 0.567735 10.5551 0.625337C10.6917 0.68294 10.8159 0.767362 10.9204 0.873769L17.6696 7.72942C17.7744 7.83556 17.8575 7.96165 17.9142 8.10046C17.9709 8.23928 18.0001 8.38809 18.0001 8.53839C18.0001 8.68868 17.9709 8.83749 17.9142 8.97631C17.8575 9.11513 17.7744 9.24121 17.6696 9.34735L10.9204 16.203C10.7091 16.4176 10.4227 16.5381 10.124 16.5381C9.82524 16.5381 9.53877 16.4176 9.32754 16.203C9.11632 15.9885 8.99766 15.6975 8.99766 15.394C8.99766 15.0906 9.11632 14.7996 9.32754 14.5851L15.2826 8.53839L9.32754 2.4917C9.22279 2.38556 9.13968 2.25948 9.08297 2.12066C9.02626 1.98185 8.99707 1.83303 8.99707 1.68274C8.99707 1.53244 9.02626 1.38363 9.08297 1.24481C9.13968 1.106 9.22279 0.979908 9.32754 0.873769Z" fill="black"/>
<path fill-rule="evenodd" clip-rule="evenodd" d="M0 8.5386C0 8.23557 0.118513 7.94494 0.329468 7.73066C0.540423 7.51638 0.826539 7.396 1.12487 7.396H15.7482C16.0466 7.396 16.3327 7.51638 16.5436 7.73066C16.7546 7.94494 16.8731 8.23557 16.8731 8.5386C16.8731 8.84164 16.7546 9.13227 16.5436 9.34655C16.3327 9.56083 16.0466 9.68121 15.7482 9.68121H1.12487C0.826539 9.68121 0.540423 9.56083 0.329468 9.34655C0.118513 9.13227 0 8.84164 0 8.5386Z" fill="black"/>
</svg>
