<svg width="69" height="50" viewBox="0 0 69 50" fill="none" xmlns="http://www.w3.org/2000/svg">
<g clip-path="url(#clip0_1367_14254)">
<path d="M24.0586 15.3301H32.9427" stroke="#3F3D56" stroke-width="2" stroke-miterlimit="10"/>
<path d="M13.4741 24.8765C13.9546 23.6527 14.0242 22.5416 13.6295 22.3947C13.2349 22.2479 12.5254 23.1209 12.0449 24.3447C11.5643 25.5685 11.4947 26.6796 11.8894 26.8264C12.2841 26.9733 12.9936 26.1002 13.4741 24.8765Z" fill="#2F2E41"/>
<path d="M68.5641 30.5857C69.5306 37.5875 68.2145 44.5969 61.5204 47.3263C54.8264 50.0558 47.1268 46.9861 44.3228 40.4699C41.5188 33.9537 48.1346 30.0548 51.3664 23.7292C57.9293 10.8838 65.5626 8.84173 68.5641 30.5857Z" fill="#FBBEBE"/>
<path d="M56.5125 49.0981C62.305 49.0981 67.0006 48.4763 67.0006 47.7092C67.0006 46.9422 62.305 46.3203 56.5125 46.3203C50.7201 46.3203 46.0244 46.9422 46.0244 47.7092C46.0244 48.4763 50.7201 49.0981 56.5125 49.0981Z" fill="#3F3D56"/>
<path d="M49.6514 44.1752L50.0459 45.5645L52.6029 44.8764L52.2084 43.4872L49.6514 44.1752Z" fill="#2F2E41"/>
<path d="M49.8271 45.8106C50.0734 45.7444 50.1259 45.1723 49.9444 44.5329C49.7628 43.8935 49.4159 43.4289 49.1696 43.4952C48.9233 43.5615 48.8708 44.1336 49.0524 44.7729C49.234 45.4123 49.5808 45.8769 49.8271 45.8106Z" fill="#2F2E41"/>
<path d="M57.7224 39.3982C57.9032 38.0999 57.7103 37.0027 57.2916 36.9475C56.873 36.8922 56.387 37.8999 56.2062 39.1981C56.0255 40.4964 56.2183 41.5936 56.637 41.6489C57.0557 41.7041 57.5417 40.6964 57.7224 39.3982Z" fill="#2F2E41"/>
<path d="M56.4872 48.4829C59.1789 48.4829 61.3611 46.3588 61.3611 43.7385C61.3611 41.1183 59.1789 38.9941 56.4872 38.9941C53.7954 38.9941 51.6133 41.1183 51.6133 43.7385C51.6133 46.3588 53.7954 48.4829 56.4872 48.4829Z" fill="#2F2E41"/>
<path d="M49.6514 43.3354L50.0459 44.7246L52.6029 44.0366L52.2084 42.6473L49.6514 43.3354Z" fill="#2F2E41"/>
<path d="M49.8271 44.9688C50.0734 44.9025 50.1259 44.3305 49.9444 43.6911C49.7628 43.0517 49.4159 42.5872 49.1696 42.6534C48.9233 42.7197 48.8708 43.2918 49.0524 43.9311C49.234 44.5705 49.5808 45.0351 49.8271 44.9688Z" fill="#2F2E41"/>
<path d="M57.7663 42.6414C58.6863 42.6414 59.4321 41.9155 59.4321 41.0199C59.4321 40.1244 58.6863 39.3984 57.7663 39.3984C56.8464 39.3984 56.1006 40.1244 56.1006 41.0199C56.1006 41.9155 56.8464 42.6414 57.7663 42.6414Z" fill="white"/>
<path d="M58.2994 40.8447C58.6061 40.8447 58.8547 40.6027 58.8547 40.3042C58.8547 40.0057 58.6061 39.7637 58.2994 39.7637C57.9927 39.7637 57.7441 40.0057 57.7441 40.3042C57.7441 40.6027 57.9927 40.8447 58.2994 40.8447Z" fill="#3F3D56"/>
<path d="M62.1153 46.9979C63.9189 46.9101 65.3003 45.2679 65.2006 43.33C65.101 41.3921 63.5581 39.8924 61.7545 39.9802C59.9509 40.0681 59.6678 41.4463 59.7675 43.3842C59.8671 45.3221 60.3117 47.0858 62.1153 46.9979Z" fill="#6C63FF"/>
<path d="M54.4947 41.7306C54.2012 41.7536 53.9103 41.6623 53.686 41.4766C53.4617 41.2908 53.3223 41.026 53.2985 40.7403C53.2748 40.4546 53.3686 40.1714 53.5593 39.953C53.75 39.7346 54.022 39.5989 54.3155 39.5756C54.9269 39.5275 55.0936 39.9999 55.1431 40.595C55.1925 41.1901 55.106 41.6824 54.4947 41.7306Z" fill="white"/>
<path d="M3.05176 21.6825H30.3513L34.5838 23.6896L41.3274 26.8877L45.7366 18.8516H58.2138" stroke="#3F3D56" stroke-width="2" stroke-miterlimit="10"/>
<path d="M13.7467 23.3449C14.213 23.3449 14.591 22.977 14.591 22.5231C14.591 22.0691 14.213 21.7012 13.7467 21.7012C13.2804 21.7012 12.9023 22.0691 12.9023 22.5231C12.9023 22.977 13.2804 23.3449 13.7467 23.3449Z" fill="#6C63FF"/>
<path d="M21.6265 22.5031C22.0928 22.5031 22.4709 22.1352 22.4709 21.6813C22.4709 21.2273 22.0928 20.8594 21.6265 20.8594C21.1602 20.8594 20.7822 21.2273 20.7822 21.6813C20.7822 22.1352 21.1602 22.5031 21.6265 22.5031Z" fill="#6C63FF"/>
<path d="M34.5728 24.5129C35.0391 24.5129 35.4172 24.1449 35.4172 23.691C35.4172 23.2371 35.0391 22.8691 34.5728 22.8691C34.1065 22.8691 33.7285 23.2371 33.7285 23.691C33.7285 24.1449 34.1065 24.5129 34.5728 24.5129Z" fill="#6C63FF"/>
<path d="M52.773 19.6731C53.2393 19.6731 53.6173 19.3051 53.6173 18.8512C53.6173 18.3973 53.2393 18.0293 52.773 18.0293C52.3067 18.0293 51.9287 18.3973 51.9287 18.8512C51.9287 19.3051 52.3067 19.6731 52.773 19.6731Z" fill="#6C63FF"/>
<path d="M43.9537 22.8684C44.42 22.8684 44.798 22.5004 44.798 22.0465C44.798 21.5926 44.42 21.2246 43.9537 21.2246C43.4874 21.2246 43.1094 21.5926 43.1094 22.0465C43.1094 22.5004 43.4874 22.8684 43.9537 22.8684Z" fill="#6C63FF"/>
<path d="M26.3791 35.8055C26.8819 35.8055 27.2894 35.4088 27.2894 34.9194C27.2894 34.4299 26.8819 34.0332 26.3791 34.0332C25.8763 34.0332 25.4688 34.4299 25.4688 34.9194C25.4688 35.4088 25.8763 35.8055 26.3791 35.8055Z" stroke="#3F3D56" stroke-width="2" stroke-miterlimit="10"/>
<path d="M10.4881 50.0005C16.2806 50.0005 20.9763 49.3786 20.9763 48.6116C20.9763 47.8445 16.2806 47.2227 10.4881 47.2227C4.69569 47.2227 0 47.8445 0 48.6116C0 49.3786 4.69569 50.0005 10.4881 50.0005Z" fill="#3F3D56"/>
<path d="M9.92077 46.5688C12.6125 46.5688 14.7947 44.4447 14.7947 41.8245C14.7947 39.2042 12.6125 37.0801 9.92077 37.0801C7.22899 37.0801 5.04688 39.2042 5.04688 41.8245C5.04688 44.4447 7.22899 46.5688 9.92077 46.5688Z" fill="#2F2E41"/>
<path d="M9.18088 45.5488H7.7002V48.1312H9.18088V45.5488Z" fill="#2F2E41"/>
<path d="M12.1418 45.5488H10.6611V48.1312H12.1418V45.5488Z" fill="#2F2E41"/>
<path d="M8.93409 48.6118C9.61556 48.6118 10.168 48.4101 10.168 48.1614C10.168 47.9126 9.61556 47.7109 8.93409 47.7109C8.25263 47.7109 7.7002 47.9126 7.7002 48.1614C7.7002 48.4101 8.25263 48.6118 8.93409 48.6118Z" fill="#2F2E41"/>
<path d="M11.895 48.5512C12.5765 48.5512 13.1289 48.3496 13.1289 48.1008C13.1289 47.852 12.5765 47.6504 11.895 47.6504C11.2136 47.6504 10.6611 47.852 10.6611 48.1008C10.6611 48.3496 11.2136 48.5512 11.895 48.5512Z" fill="#2F2E41"/>
<path d="M10.0437 42.245C10.9637 42.245 11.7095 41.519 11.7095 40.6235C11.7095 39.7279 10.9637 39.002 10.0437 39.002C9.12372 39.002 8.37793 39.7279 8.37793 40.6235C8.37793 41.519 9.12372 42.245 10.0437 42.245Z" fill="white"/>
<path d="M10.0445 41.165C10.3512 41.165 10.5998 40.923 10.5998 40.6245C10.5998 40.326 10.3512 40.084 10.0445 40.084C9.73785 40.084 9.48926 40.326 9.48926 40.6245C9.48926 40.923 9.73785 41.165 10.0445 41.165Z" fill="#3F3D56"/>
<path d="M5.19315 37.413C4.7996 35.6974 6.05761 33.9638 8.00298 33.541C9.94835 33.1181 11.8444 34.1661 12.238 35.8818C12.6315 37.5974 11.3422 38.2302 9.39686 38.653C7.45149 39.0759 5.58669 39.1287 5.19315 37.413Z" fill="#6C63FF"/>
<path d="M8.25476 32.936C10.9465 32.936 13.1287 30.8119 13.1287 28.1916C13.1287 25.5714 10.9465 23.4473 8.25476 23.4473C5.56298 23.4473 3.38086 25.5714 3.38086 28.1916C3.38086 30.8119 5.56298 32.936 8.25476 32.936Z" fill="#2F2E41"/>
<path d="M7.51485 31.916H6.03418V34.4984H7.51485V31.916Z" fill="#2F2E41"/>
<path d="M10.4758 31.916H8.99512V34.4984H10.4758V31.916Z" fill="#2F2E41"/>
<path d="M7.26808 34.979C7.94954 34.979 8.50197 34.7773 8.50197 34.5285C8.50197 34.2798 7.94954 34.0781 7.26808 34.0781C6.58661 34.0781 6.03418 34.2798 6.03418 34.5285C6.03418 34.7773 6.58661 34.979 7.26808 34.979Z" fill="#2F2E41"/>
<path d="M10.229 34.9184C10.9105 34.9184 11.4629 34.7167 11.4629 34.468C11.4629 34.2192 10.9105 34.0176 10.229 34.0176C9.54755 34.0176 8.99512 34.2192 8.99512 34.468C8.99512 34.7167 9.54755 34.9184 10.229 34.9184Z" fill="#2F2E41"/>
<path d="M8.37865 28.6122C9.29863 28.6122 10.0444 27.8862 10.0444 26.9906C10.0444 26.0951 9.29863 25.3691 8.37865 25.3691C7.45868 25.3691 6.71289 26.0951 6.71289 26.9906C6.71289 27.8862 7.45868 28.6122 8.37865 28.6122Z" fill="white"/>
<path d="M8.3785 27.5322C8.68516 27.5322 8.93375 27.2902 8.93375 26.9917C8.93375 26.6932 8.68516 26.4512 8.3785 26.4512C8.07184 26.4512 7.82324 26.6932 7.82324 26.9917C7.82324 27.2902 8.07184 27.5322 8.3785 27.5322Z" fill="#3F3D56"/>
<path d="M3.52713 23.7802C3.13359 22.0646 4.39159 20.331 6.33696 19.9082C8.28234 19.4853 10.1784 20.5333 10.5719 22.249C10.9655 23.9646 9.67622 24.5974 7.73085 25.0202C5.78548 25.4431 3.92068 25.4959 3.52713 23.7802Z" fill="#6C63FF"/>
<path d="M4.96689 27.0067C5.14795 26.6351 4.30893 25.8787 3.09288 25.3173C1.87683 24.7559 0.744251 24.602 0.563191 24.9736C0.38213 25.3452 1.22115 26.1016 2.4372 26.663C3.65325 27.2245 4.78583 27.3783 4.96689 27.0067Z" fill="#2F2E41"/>
<path d="M5.86133 29.9038C5.86133 30.3682 7.08959 31.2851 8.45251 31.2851C9.81544 31.2851 11.0933 29.9778 11.0933 29.5135C11.0933 29.0491 9.81544 29.6036 8.45251 29.6036C7.08959 29.6036 5.86133 29.4395 5.86133 29.9038Z" fill="white"/>
<path d="M59.3254 33.9141H51.5439V37.7673H59.3254V33.9141Z" fill="#6C63FF"/>
<path d="M58.7171 34.5391H50.9355V38.3923H58.7171V34.5391Z" stroke="#3F3D56" stroke-width="2" stroke-miterlimit="10"/>
<path d="M16.2015 11.9512H13.9805V14.1132H16.2015V11.9512Z" fill="#FFD180"/>
<path d="M15.6458 11.2305H13.4248V13.3925H15.6458V11.2305Z" stroke="#3F3D56" stroke-width="2" stroke-miterlimit="10"/>
<path d="M55.8993 16.1235C58.5911 16.1235 60.7732 13.9994 60.7732 11.3791C60.7732 8.7589 58.5911 6.63477 55.8993 6.63477C53.2075 6.63477 51.0254 8.7589 51.0254 11.3791C51.0254 13.9994 53.2075 16.1235 55.8993 16.1235Z" fill="#2F2E41"/>
<path d="M57.7813 17.456L59.2383 17.1992L58.7657 14.6581L57.3087 14.9149L57.7813 17.456Z" fill="#2F2E41"/>
<path d="M54.8672 17.9696L56.3242 17.7129L55.8517 15.1718L54.3947 15.4286L54.8672 17.9696Z" fill="#2F2E41"/>
<path d="M55.6403 18.503C56.1603 18.0743 56.448 17.5729 56.2828 17.383C56.1177 17.1932 55.5622 17.3868 55.0422 17.8156C54.5222 18.2443 54.2345 18.7457 54.3996 18.9355C54.5648 19.1253 55.1202 18.9317 55.6403 18.503Z" fill="#2F2E41"/>
<path d="M58.4938 18.001C59.0138 17.5723 59.3015 17.0709 59.1363 16.8811C58.9712 16.6912 58.4157 16.8849 57.8957 17.3136C57.3757 17.7423 57.088 18.2437 57.2531 18.4336C57.4183 18.6234 57.9737 18.4297 58.4938 18.001Z" fill="#2F2E41"/>
<path d="M55.5574 11.8387C56.4773 11.8387 57.2231 11.1127 57.2231 10.2172C57.2231 9.32167 56.4773 8.5957 55.5574 8.5957C54.6374 8.5957 53.8916 9.32167 53.8916 10.2172C53.8916 11.1127 54.6374 11.8387 55.5574 11.8387Z" fill="white"/>
<path d="M54.8726 10.1767C55.1793 10.1767 55.4279 9.93471 55.4279 9.6362C55.4279 9.33769 55.1793 9.0957 54.8726 9.0957C54.566 9.0957 54.3174 9.33769 54.3174 9.6362C54.3174 9.93471 54.566 10.1767 54.8726 10.1767Z" fill="#3F3D56"/>
<path d="M59.7434 6.21679C59.8167 4.46035 58.2616 2.97263 56.27 2.89388C54.2784 2.81513 52.6044 4.17516 52.5311 5.9316C52.4578 7.68805 53.8422 8.08712 55.8339 8.16588C57.8255 8.24463 59.6702 7.97323 59.7434 6.21679Z" fill="#6C63FF"/>
<path d="M53.7732 11.0451C53.8676 10.6442 52.8806 10.0819 51.5688 9.78918C50.2569 9.49647 49.1169 9.58417 49.0225 9.98506C48.9281 10.386 49.915 10.9482 51.2269 11.2409C52.5388 11.5336 53.6788 11.4459 53.7732 11.0451Z" fill="#2F2E41"/>
<path d="M63.3415 12.5939C63.4359 12.193 62.449 11.6307 61.1371 11.338C59.8253 11.0453 58.6852 11.133 58.5908 11.5339C58.4964 11.9348 59.4834 12.4971 60.7953 12.7898C62.1071 13.0825 63.2471 12.9948 63.3415 12.5939Z" fill="#2F2E41"/>
<path d="M57.2376 13.2492C57.2635 13.3889 57.261 13.5322 57.2301 13.6709C57.1992 13.8096 57.1405 13.9411 57.0574 14.0577C56.9743 14.1744 56.8684 14.274 56.7458 14.3508C56.6231 14.4276 56.4861 14.4802 56.3426 14.5055C56.1991 14.5307 56.0519 14.5283 55.9094 14.4982C55.7669 14.4681 55.6318 14.411 55.512 14.3301C55.3922 14.2492 55.2899 14.1461 55.211 14.0267C55.132 13.9073 55.0781 13.774 55.0521 13.6343C54.9428 13.0468 55.4094 12.839 56.0129 12.7326C56.6164 12.6263 57.1283 12.6617 57.2376 13.2492Z" fill="white"/>
<path d="M43.9639 5.94531L49.5781 10.1492" stroke="#3F3D56" stroke-width="2" stroke-miterlimit="10"/>
<path d="M41.3115 8.16754C43.6284 8.16754 45.5067 6.33918 45.5067 4.08377C45.5067 1.82837 43.6284 0 41.3115 0C38.9945 0 37.1162 1.82837 37.1162 4.08377C37.1162 6.33918 38.9945 8.16754 41.3115 8.16754Z" fill="#FFD180"/>
<path d="M55.8923 40.5251C56.0731 39.2269 55.8802 38.1296 55.4615 38.0744C55.0429 38.0191 54.5569 39.0268 54.3761 40.3251C54.1954 41.6233 54.3882 42.7206 54.8069 42.7758C55.2256 42.831 55.7116 41.8234 55.8923 40.5251Z" fill="#2F2E41"/>
<path d="M4.24568 48.0266C4.71199 48.0266 5.09 47.6586 5.09 47.2047C5.09 46.7508 4.71199 46.3828 4.24568 46.3828C3.77938 46.3828 3.40137 46.7508 3.40137 47.2047C3.40137 47.6586 3.77938 48.0266 4.24568 48.0266Z" fill="#6C63FF"/>
<path d="M18.0521 46.2422H15.8311V48.4042H18.0521V46.2422Z" fill="#FFD180"/>
<path d="M15.8443 48.5071C16.3106 48.5071 16.6886 48.1391 16.6886 47.6852C16.6886 47.2313 16.3106 46.8633 15.8443 46.8633C15.378 46.8633 15 47.2313 15 47.6852C15 48.1391 15.378 48.5071 15.8443 48.5071Z" fill="#6C63FF"/>
<path d="M28.5006 16.1379C28.9669 16.1379 29.3449 15.7699 29.3449 15.316C29.3449 14.8621 28.9669 14.4941 28.5006 14.4941C28.0343 14.4941 27.6562 14.8621 27.6562 15.316C27.6562 15.7699 28.0343 16.1379 28.5006 16.1379Z" fill="#6C63FF"/>
<path d="M44.8964 41.1853C45.119 41.1853 45.2995 41.0096 45.2995 40.7929C45.2995 40.5761 45.119 40.4004 44.8964 40.4004C44.6737 40.4004 44.4932 40.5761 44.4932 40.7929C44.4932 41.0096 44.6737 41.1853 44.8964 41.1853Z" fill="#FFD180"/>
<path d="M46.8721 47.3067V42.8379" stroke="#3F3D56" stroke-width="2" stroke-miterlimit="10"/>
<path d="M46.8719 43.4709C47.2304 43.4709 47.5211 43.188 47.5211 42.839C47.5211 42.49 47.2304 42.207 46.8719 42.207C46.5133 42.207 46.2227 42.49 46.2227 42.839C46.2227 43.188 46.5133 43.4709 46.8719 43.4709Z" fill="#3F3D56"/>
<path d="M46.8719 45.5917C46.8719 45.5917 46.7792 43.65 44.8779 43.8757L46.8719 45.5917Z" fill="#3F3D56"/>
</g>
<defs>
<clipPath id="clip0_1367_14254">
<rect width="68.8462" height="50" fill="white"/>
</clipPath>
</defs>
</svg>
