<svg width="100" height="50" viewBox="0 0 100 50" fill="none" xmlns="http://www.w3.org/2000/svg">
<path d="M82.1543 48.2079H27.6013C27.5612 48.2079 27.5228 48.191 27.4945 48.161C27.4661 48.131 27.4502 48.0903 27.4502 48.0478V10.2612C27.4503 10.2188 27.4663 10.1782 27.4946 10.1483C27.5229 10.1184 27.5613 10.1016 27.6013 10.1016C27.6413 10.1016 27.6797 10.1184 27.708 10.1483C27.7363 10.1782 27.7523 10.2188 27.7524 10.2612V47.8877H82.1543C82.1943 47.8878 82.2327 47.9047 82.2609 47.9347C82.2892 47.9648 82.305 48.0054 82.305 48.0478C82.305 48.0902 82.2892 48.1308 82.2609 48.1608C82.2327 48.1909 82.1943 48.2078 82.1543 48.2079V48.2079Z" fill="#3F3D56"/>
<path d="M82.1539 40.6816H27.6009C27.5609 40.6814 27.5225 40.6645 27.4943 40.6345C27.4661 40.6045 27.4502 40.5638 27.4502 40.5214C27.4502 40.4791 27.4661 40.4384 27.4943 40.4084C27.5225 40.3784 27.5609 40.3615 27.6009 40.3613H82.1539C82.1939 40.3615 82.2322 40.3784 82.2604 40.4084C82.2887 40.4384 82.3045 40.4791 82.3045 40.5214C82.3045 40.5638 82.2887 40.6045 82.2604 40.6345C82.2322 40.6645 82.1939 40.6814 82.1539 40.6816V40.6816Z" fill="#3F3D56"/>
<path d="M82.2295 34.5976H27.6765C27.6364 34.5976 27.598 34.5807 27.5697 34.5507C27.5413 34.5206 27.5254 34.4799 27.5254 34.4374C27.5254 34.395 27.5413 34.3543 27.5697 34.3242C27.598 34.2942 27.6364 34.2773 27.6765 34.2773H82.2295C82.2695 34.2775 82.3078 34.2944 82.3361 34.3244C82.3643 34.3544 82.3802 34.3951 82.3802 34.4374C82.3802 34.4798 82.3643 34.5205 82.3361 34.5505C82.3078 34.5805 82.2695 34.5974 82.2295 34.5976V34.5976Z" fill="#3F3D56"/>
<path d="M82.2291 28.5136H27.6761C27.6361 28.5135 27.5977 28.4965 27.5695 28.4665C27.5413 28.4365 27.5254 28.3959 27.5254 28.3535C27.5254 28.3111 27.5413 28.2704 27.5695 28.2404C27.5977 28.2104 27.6361 28.1935 27.6761 28.1934H82.2291C82.2691 28.1935 82.3074 28.2104 82.3357 28.2404C82.3639 28.2704 82.3798 28.3111 82.3798 28.3535C82.3798 28.3959 82.3639 28.4365 82.3357 28.4665C82.3074 28.4965 82.2691 28.5135 82.2291 28.5136V28.5136Z" fill="#3F3D56"/>
<path d="M82.2295 22.4296H27.6765C27.6364 22.4296 27.598 22.4127 27.5697 22.3827C27.5413 22.3527 27.5254 22.312 27.5254 22.2695C27.5254 22.227 27.5413 22.1863 27.5697 22.1563C27.598 22.1262 27.6364 22.1094 27.6765 22.1094H82.2295C82.2696 22.1094 82.308 22.1262 82.3364 22.1563C82.3647 22.1863 82.3806 22.227 82.3806 22.2695C82.3806 22.312 82.3647 22.3527 82.3364 22.3827C82.308 22.4127 82.2696 22.4296 82.2295 22.4296V22.4296Z" fill="#3F3D56"/>
<path d="M82.2295 16.3456H27.6765C27.6364 16.3456 27.598 16.3287 27.5697 16.2987C27.5413 16.2687 27.5254 16.228 27.5254 16.1855C27.5254 16.143 27.5413 16.1023 27.5697 16.0723C27.598 16.0423 27.6364 16.0254 27.6765 16.0254H82.2295C82.2696 16.0254 82.308 16.0423 82.3364 16.0723C82.3647 16.1023 82.3806 16.143 82.3806 16.1855C82.3806 16.228 82.3647 16.2687 82.3364 16.2987C82.308 16.3287 82.2696 16.3456 82.2295 16.3456V16.3456Z" fill="#3F3D56"/>
<path d="M82.2291 10.2597H27.6761C27.6361 10.2596 27.5977 10.2426 27.5695 10.2126C27.5413 10.1826 27.5254 10.142 27.5254 10.0996C27.5254 10.0572 27.5413 10.0165 27.5695 9.98652C27.5977 9.9565 27.6361 9.93958 27.6761 9.93945H82.2291C82.2691 9.93958 82.3074 9.9565 82.3357 9.98652C82.3639 10.0165 82.3798 10.0572 82.3798 10.0996C82.3798 10.142 82.3639 10.1826 82.3357 10.2126C82.3074 10.2426 82.2691 10.2596 82.2291 10.2597V10.2597Z" fill="#3F3D56"/>
<path d="M32.9536 47.937H31.0485C30.8143 47.9367 30.5897 47.838 30.4241 47.6625C30.2585 47.487 30.1653 47.2491 30.165 47.0009V41.4341C30.1653 41.186 30.2585 40.948 30.4241 40.7725C30.5897 40.597 30.8143 40.4983 31.0485 40.498H32.9536C33.1878 40.4983 33.4124 40.597 33.578 40.7725C33.7436 40.948 33.8368 41.186 33.837 41.4341V47.0009C33.8368 47.2491 33.7436 47.487 33.578 47.6625C33.4124 47.838 33.1878 47.9367 32.9536 47.937V47.937Z" fill="#3F3D56"/>
<path d="M40.8871 47.9376H38.9821C38.7479 47.9373 38.5233 47.8386 38.3577 47.6631C38.1921 47.4876 38.0989 47.2497 38.0986 47.0015V36.7212C38.0989 36.4731 38.1921 36.2351 38.3577 36.0596C38.5233 35.8841 38.7479 35.7854 38.9821 35.7852H40.8871C41.1214 35.7854 41.3459 35.8841 41.5116 36.0596C41.6772 36.2351 41.7704 36.4731 41.7706 36.7212V47.0015C41.7704 47.2497 41.6772 47.4876 41.5116 47.6631C41.3459 47.8386 41.1214 47.9373 40.8871 47.9376V47.9376Z" fill="#3F3D56"/>
<path d="M56.7543 47.9368H54.8493C54.6151 47.9365 54.3905 47.8378 54.2249 47.6623C54.0593 47.4868 53.9661 47.2489 53.9658 47.0007V25.6295C53.9661 25.3813 54.0593 25.1433 54.2249 24.9678C54.3905 24.7924 54.6151 24.6936 54.8493 24.6934H56.7543C56.9885 24.6936 57.2131 24.7924 57.3787 24.9678C57.5444 25.1433 57.6375 25.3813 57.6378 25.6295V47.0007C57.6375 47.2489 57.5444 47.4868 57.3787 47.6623C57.2131 47.8378 56.9885 47.9365 56.7543 47.9368Z" fill="#E6E6E6"/>
<path d="M48.7455 47.9367H46.8405C46.6063 47.9364 46.3817 47.8377 46.2161 47.6622C46.0505 47.4867 45.9573 47.2487 45.957 47.0006V32.9478C45.9573 32.6996 46.0505 32.4617 46.2161 32.2862C46.3817 32.1107 46.6063 32.012 46.8405 32.0117H48.7455C48.9798 32.012 49.2043 32.1107 49.37 32.2862C49.5356 32.4617 49.6288 32.6996 49.629 32.9478V47.0006C49.6288 47.2488 49.5356 47.4867 49.37 47.6622C49.2043 47.8377 48.9798 47.9364 48.7455 47.9367V47.9367Z" fill="#3F3D56"/>
<path d="M64.6879 47.9365H62.7829C62.5487 47.9362 62.3241 47.8375 62.1585 47.662C61.9928 47.4865 61.8997 47.2486 61.8994 47.0004V20.0045C61.8997 19.7563 61.9928 19.5183 62.1585 19.3428C62.3241 19.1674 62.5487 19.0686 62.7829 19.0684H64.6879C64.9222 19.0686 65.1467 19.1674 65.3124 19.3428C65.478 19.5183 65.5712 19.7563 65.5714 20.0045V47.0004C65.5712 47.2486 65.478 47.4865 65.3124 47.662C65.1467 47.8375 64.9222 47.9362 64.6879 47.9365V47.9365Z" fill="#3F3D56"/>
<path d="M72.6215 47.9368H70.7165C70.4823 47.9365 70.2577 47.8378 70.0921 47.6623C69.9264 47.4868 69.8333 47.2489 69.833 47.0007V25.6295C69.8333 25.3813 69.9264 25.1433 70.0921 24.9678C70.2577 24.7924 70.4823 24.6936 70.7165 24.6934H72.6215C72.8558 24.6936 73.0803 24.7924 73.246 24.9678C73.4116 25.1433 73.5048 25.3813 73.505 25.6295V47.0007C73.5048 47.2489 73.4116 47.4868 73.246 47.6623C73.0803 47.8378 72.8558 47.9365 72.6215 47.9368Z" fill="#3F3D56"/>
<path d="M80.5551 47.9365H78.6501C78.4159 47.9362 78.1913 47.8375 78.0257 47.662C77.86 47.4865 77.7669 47.2486 77.7666 47.0004V10.8521C77.7669 10.6039 77.86 10.366 78.0257 10.1905C78.1913 10.015 78.4159 9.9163 78.6501 9.91602H80.5551C80.7893 9.91629 81.0139 10.015 81.1795 10.1905C81.3451 10.366 81.4383 10.6039 81.4386 10.8521V47.0004C81.4383 47.2486 81.3451 47.4865 81.1795 47.662C81.0139 47.8375 80.7893 47.9362 80.5551 47.9365Z" fill="#E6E6E6"/>
<path d="M55.2814 16.261C58.3207 16.261 60.7845 13.6505 60.7845 10.4303C60.7845 7.21009 58.3207 4.59961 55.2814 4.59961C52.2421 4.59961 49.7783 7.21009 49.7783 10.4303C49.7783 13.6505 52.2421 16.261 55.2814 16.261Z" fill="#2F2E41"/>
<path d="M53.1881 14.2625L50.5098 15.6836L51.2584 17.2674L53.9367 15.8464L53.1881 14.2625Z" fill="#2F2E41"/>
<path d="M51.6119 17.1063C51.7707 16.8511 51.3787 16.2804 50.7363 15.8316C50.094 15.3829 49.4445 15.226 49.2856 15.4812C49.1268 15.7365 49.5188 16.3072 50.1612 16.7559C50.8035 17.2047 51.453 17.3616 51.6119 17.1063Z" fill="#2F2E41"/>
<path d="M57.3736 14.2619L56.625 15.8457L59.3033 17.2668L60.0519 15.683L57.3736 14.2619Z" fill="#2F2E41"/>
<path d="M60.4014 16.7562C61.0437 16.3075 61.4357 15.7368 61.2769 15.4816C61.1181 15.2263 60.4686 15.3832 59.8262 15.832C59.1838 16.2807 58.7918 16.8514 58.9507 17.1067C59.1095 17.3619 59.759 17.205 60.4014 16.7562Z" fill="#2F2E41"/>
<path d="M54.8954 10.9972C55.9342 10.9972 56.7762 10.1051 56.7762 9.00448C56.7762 7.90391 55.9342 7.01172 54.8954 7.01172C53.8567 7.01172 53.0146 7.90391 53.0146 9.00448C53.0146 10.1051 53.8567 10.9972 54.8954 10.9972Z" fill="white"/>
<path d="M55.3531 10.2888C55.5969 10.0305 55.5955 9.61018 55.35 9.35003C55.1044 9.08987 54.7077 9.08839 54.4639 9.34671C54.2201 9.60504 54.2215 10.0253 54.467 10.2855C54.7126 10.5457 55.1093 10.5471 55.3531 10.2888Z" fill="#3F3D56"/>
<path d="M59.6221 4.08774C59.7049 1.92913 57.949 0.100778 55.7003 0.00399938C53.4515 -0.0927795 51.5615 1.57865 51.4787 3.73726C51.396 5.89586 52.9591 6.38631 55.2079 6.4831C57.4566 6.57988 59.5394 6.24634 59.6221 4.08774Z" fill="#6C63FF"/>
<path d="M62.7946 13.4842C63.1566 13.1549 62.6476 11.8977 61.6578 10.676C60.6679 9.45432 59.5721 8.73086 59.2101 9.0601C58.8481 9.38935 59.3571 10.6466 60.347 11.8683C61.3368 13.09 62.4327 13.8134 62.7946 13.4842Z" fill="#2F2E41"/>
<path d="M50.231 11.8689C51.2209 10.6473 51.7298 9.38999 51.3679 9.06075C51.0059 8.73151 49.91 9.45496 48.9202 10.6766C47.9304 11.8983 47.4214 13.1556 47.7833 13.4848C48.1453 13.8141 49.2412 13.0906 50.231 11.8689Z" fill="#2F2E41"/>
<path d="M56.7923 12.7278C56.8218 12.8995 56.8191 13.0756 56.7843 13.2461C56.7496 13.4167 56.6835 13.5783 56.5898 13.7217C56.4961 13.8652 56.3766 13.9877 56.2382 14.0823C56.0998 14.1768 55.9452 14.2416 55.7832 14.2728C55.6212 14.3041 55.455 14.3012 55.2941 14.2644C55.1331 14.2276 54.9806 14.1575 54.8452 14.0582C54.7098 13.959 54.5942 13.8324 54.5049 13.6858C54.4157 13.5392 54.3546 13.3754 54.3251 13.2037L54.3246 13.2011C54.2013 12.4792 54.7281 12.2237 55.4096 12.093C56.091 11.9623 56.6689 12.0059 56.7923 12.7278Z" fill="white"/>
<path d="M99.3209 43.2931C99.6959 42.9604 99.1892 41.6649 98.1891 40.3994C97.1891 39.1338 96.0744 38.3776 95.6994 38.7102C95.3245 39.0428 95.8312 40.3384 96.8313 41.6039C97.8313 42.8694 98.946 43.6257 99.3209 43.2931Z" fill="#2F2E41"/>
<path d="M96.8625 41.854C97.8477 38.7224 96.2503 35.3374 93.2946 34.2935C90.3389 33.2496 87.1442 34.9421 86.1589 38.0738C85.1737 41.2054 86.7711 44.5904 89.7268 45.6343C92.6825 46.6782 95.8772 44.9857 96.8625 41.854Z" fill="#2F2E41"/>
<path d="M93.8974 44.6543H92.1836V47.9077H93.8974V44.6543Z" fill="#2F2E41"/>
<path d="M90.4706 44.6543H88.7568V47.9077H90.4706V44.6543Z" fill="#2F2E41"/>
<path d="M92.4692 48.5138C93.2579 48.5138 93.8974 48.2597 93.8974 47.9464C93.8974 47.633 93.2579 47.3789 92.4692 47.3789C91.6804 47.3789 91.041 47.633 91.041 47.9464C91.041 48.2597 91.6804 48.5138 92.4692 48.5138Z" fill="#2F2E41"/>
<path d="M89.0424 48.4376C89.8312 48.4376 90.4706 48.1836 90.4706 47.8702C90.4706 47.5568 89.8312 47.3027 89.0424 47.3027C88.2537 47.3027 87.6143 47.5568 87.6143 47.8702C87.6143 48.1836 88.2537 48.4376 89.0424 48.4376Z" fill="#2F2E41"/>
<path d="M89.739 32.4501C90.2427 30.3008 92.4662 29.0359 94.7053 29.625C96.9444 30.2141 98.3512 32.4341 97.8475 34.5834C97.3438 36.7328 95.6726 36.7397 93.4335 36.1506C91.1944 35.5615 89.2352 34.5995 89.739 32.4501Z" fill="#CCCCCC"/>
<path d="M87.705 38.4715C87.9146 38.0033 86.9435 37.0504 85.5359 36.3431C84.1284 35.6358 82.8175 35.442 82.608 35.9101C82.3984 36.3783 83.3695 37.3312 84.777 38.0385C86.1845 38.7458 87.4954 38.9397 87.705 38.4715Z" fill="#2F2E41"/>
<path d="M90.6669 40.6965C91.7057 40.6965 92.5477 39.8043 92.5477 38.7037C92.5477 37.6031 91.7057 36.7109 90.6669 36.7109C89.6282 36.7109 88.7861 37.6031 88.7861 38.7037C88.7861 39.8043 89.6282 40.6965 90.6669 40.6965Z" fill="white"/>
<path d="M89.8935 38.6527C90.2398 38.6527 90.5205 38.3553 90.5205 37.9885C90.5205 37.6216 90.2398 37.3242 89.8935 37.3242C89.5473 37.3242 89.2666 37.6216 89.2666 37.9885C89.2666 38.3553 89.5473 38.6527 89.8935 38.6527Z" fill="#3F3D56"/>
<path d="M91.8469 42.8548C91.9062 43.2013 91.8332 43.5586 91.644 43.8481C91.4548 44.1376 91.1648 44.3357 90.8378 44.3988C90.5107 44.4619 90.1735 44.3848 89.9001 44.1845C89.6267 43.9842 89.4395 43.6771 89.3798 43.3307L89.3793 43.3281C89.256 42.6061 89.7828 42.3506 90.4642 42.2199C91.1456 42.0892 91.7236 42.1328 91.8469 42.8548Z" fill="white"/>
<path d="M83.8529 49.999H81.948C81.7137 49.9987 81.4891 49.9 81.3235 49.7245C81.1579 49.549 81.0647 49.3111 81.0645 49.0629V12.9146C81.0647 12.6664 81.1579 12.4285 81.3235 12.253C81.4891 12.0775 81.7137 11.9788 81.948 11.9785H83.8529C84.0872 11.9788 84.3117 12.0775 84.4774 12.253C84.643 12.4285 84.7362 12.6664 84.7364 12.9146V49.0629C84.7362 49.3111 84.643 49.549 84.4774 49.7245C84.3117 49.9 84.0872 49.9987 83.8529 49.999V49.999Z" fill="#6C63FF"/>
<path d="M14.9508 45.9405C18.0664 45.9405 20.5921 43.2645 20.5921 39.9634C20.5921 36.6624 18.0664 33.9863 14.9508 33.9863C11.8352 33.9863 9.30957 36.6624 9.30957 39.9634C9.30957 43.2645 11.8352 45.9405 14.9508 45.9405Z" fill="#2F2E41"/>
<path d="M14.0947 44.6543H12.3809V47.9077H14.0947V44.6543Z" fill="#2F2E41"/>
<path d="M17.5224 44.6543H15.8086V47.9077H17.5224V44.6543Z" fill="#2F2E41"/>
<path d="M13.809 48.5138C14.5978 48.5138 15.2372 48.2597 15.2372 47.9464C15.2372 47.633 14.5978 47.3789 13.809 47.3789C13.0203 47.3789 12.3809 47.633 12.3809 47.9464C12.3809 48.2597 13.0203 48.5138 13.809 48.5138Z" fill="#2F2E41"/>
<path d="M17.2368 48.4376C18.0255 48.4376 18.6649 48.1836 18.6649 47.8702C18.6649 47.5568 18.0255 47.3027 17.2368 47.3027C16.448 47.3027 15.8086 47.5568 15.8086 47.8702C15.8086 48.1836 16.448 48.4376 17.2368 48.4376Z" fill="#2F2E41"/>
<path d="M15.094 40.4938C16.1589 40.4938 17.0221 39.5792 17.0221 38.451C17.0221 37.3228 16.1589 36.4082 15.094 36.4082C14.0292 36.4082 13.166 37.3228 13.166 38.451C13.166 39.5792 14.0292 40.4938 15.094 40.4938Z" fill="white"/>
<path d="M15.0939 39.1314C15.4488 39.1314 15.7365 38.8265 15.7365 38.4505C15.7365 38.0744 15.4488 37.7695 15.0939 37.7695C14.7389 37.7695 14.4512 38.0744 14.4512 38.4505C14.4512 38.8265 14.7389 39.1314 15.0939 39.1314Z" fill="#3F3D56"/>
<path d="M9.47891 34.4044C9.0234 32.243 10.4795 30.059 12.7311 29.5263C14.9828 28.9935 17.1774 30.3139 17.6329 32.4753C18.0884 34.6367 16.5961 35.4339 14.3445 35.9666C12.0928 36.4993 9.93441 36.5658 9.47891 34.4044Z" fill="#CCCCCC"/>
<path d="M19.0646 18.6108C19.6208 17.069 19.7013 15.6692 19.2445 15.4842C18.7877 15.2992 17.9665 16.3991 17.4104 17.9408C16.8542 19.4826 16.7736 20.8824 17.2304 21.0674C17.6872 21.2524 18.5084 20.1525 19.0646 18.6108Z" fill="#2F2E41"/>
<path d="M18.5922 23.7474C19.0913 20.4889 17.0028 17.4188 13.9274 16.89C10.8521 16.3612 7.95445 18.5741 7.45539 21.8325C6.95633 25.0909 9.04482 28.1611 12.1202 28.6898C15.1955 29.2186 18.0932 27.0058 18.5922 23.7474Z" fill="#2F2E41"/>
<path d="M12.1659 27.4805H10.4521V30.7338H12.1659V27.4805Z" fill="#2F2E41"/>
<path d="M15.5937 27.4805H13.8799V30.7338H15.5937V27.4805Z" fill="#2F2E41"/>
<path d="M11.8803 31.34C12.6691 31.34 13.3085 31.0859 13.3085 30.7725C13.3085 30.4591 12.6691 30.2051 11.8803 30.2051C11.0916 30.2051 10.4521 30.4591 10.4521 30.7725C10.4521 31.0859 11.0916 31.34 11.8803 31.34Z" fill="#2F2E41"/>
<path d="M15.3081 31.2638C16.0968 31.2638 16.7362 31.0097 16.7362 30.6964C16.7362 30.383 16.0968 30.1289 15.3081 30.1289C14.5193 30.1289 13.8799 30.383 13.8799 30.6964C13.8799 31.0097 14.5193 31.2638 15.3081 31.2638Z" fill="#2F2E41"/>
<path d="M13.2231 23.3188C14.2874 23.2856 15.1249 22.3446 15.0936 21.2168C15.0624 20.0891 14.1742 19.2018 13.1098 19.2349C12.0455 19.2681 11.208 20.2091 11.2393 21.3369C11.2705 22.4646 12.1587 23.3519 13.2231 23.3188Z" fill="white"/>
<path d="M13.1671 21.9576C13.522 21.9576 13.8098 21.6527 13.8098 21.2766C13.8098 20.9006 13.522 20.5957 13.1671 20.5957C12.8122 20.5957 12.5244 20.9006 12.5244 21.2766C12.5244 21.6527 12.8122 21.9576 13.1671 21.9576Z" fill="#3F3D56"/>
<path d="M7.55117 17.2306C7.09567 15.0691 8.55174 12.8851 10.8034 12.3524C13.0551 11.8197 15.2496 13.14 15.7052 15.3014C16.1607 17.4628 14.6684 18.26 12.4167 18.7927C10.1651 19.3254 8.00668 19.392 7.55117 17.2306Z" fill="#6C63FF"/>
<path d="M9.21771 21.2957C9.42727 20.8275 8.45615 19.8746 7.04864 19.1673C5.64113 18.46 4.33023 18.2662 4.12067 18.7343C3.9111 19.2025 4.88222 20.1554 6.28973 20.8627C7.69724 21.57 9.00814 21.7639 9.21771 21.2957Z" fill="#2F2E41"/>
<path d="M10.252 24.946C10.252 25.531 11.6736 26.6862 13.2511 26.6862C14.8286 26.6862 16.3077 25.0392 16.3077 24.4542C16.3077 23.8692 14.8286 24.5677 13.2511 24.5677C11.6736 24.5677 10.252 24.361 10.252 24.946Z" fill="white"/>
<path d="M56.585 32.159L54.7363 32.6458C54.5089 32.7054 54.2685 32.6669 54.0678 32.5389C53.8671 32.411 53.7225 32.2039 53.6658 31.9631L48.8013 11.2226C48.745 10.9817 48.7813 10.727 48.9021 10.5143C49.0229 10.3017 49.2184 10.1485 49.4456 10.0884L51.2944 9.60163C51.5217 9.54205 51.7622 9.58046 51.9628 9.70845C52.1635 9.83644 52.3081 10.0435 52.3649 10.2843L57.2294 31.0248C57.2856 31.2657 57.2493 31.5204 57.1285 31.733C57.0078 31.9457 56.8123 32.0989 56.585 32.159V32.159Z" fill="#6C63FF"/>
<path d="M23.9097 21.5075L19.7573 22.3663C19.69 22.3804 19.6206 22.3781 19.5543 22.3595C19.488 22.341 19.4266 22.3066 19.3748 22.2591C19.3219 22.211 19.28 22.1508 19.2524 22.0829C19.2248 22.0151 19.2121 21.9415 19.2154 21.8677C19.2862 20.0636 18.9553 18.2671 18.2492 16.6236C18.22 16.5565 18.2056 16.4833 18.2071 16.4094C18.2087 16.3356 18.2261 16.2631 18.258 16.1974C18.2892 16.1327 18.3339 16.0764 18.3887 16.0328C18.4436 15.9892 18.5071 15.9594 18.5744 15.9457L22.7269 15.0869C22.833 15.0652 22.943 15.0841 23.0372 15.1402C23.1315 15.1964 23.2038 15.2861 23.2414 15.3935C23.8557 17.2014 24.2052 19.0983 24.2777 21.0183C24.281 21.1328 24.2458 21.2448 24.1784 21.3344C24.111 21.424 24.0158 21.4853 23.9097 21.5075V21.5075Z" fill="#FF6584"/>
<path d="M5.70271 25.5328L1.55023 26.3917C1.48298 26.4058 1.41357 26.4035 1.34729 26.3849C1.28101 26.3664 1.2196 26.332 1.16774 26.2845C1.11482 26.2364 1.07296 26.1761 1.04534 26.1083C1.01773 26.0405 1.00508 25.9669 1.00837 25.8931C1.07921 24.0889 0.748234 22.2925 0.0422157 20.649C0.0129893 20.5819 -0.00141174 20.5087 0.000109067 20.4348C0.00162988 20.361 0.0190326 20.2885 0.050992 20.2228C0.0821771 20.1581 0.126883 20.1018 0.181707 20.0582C0.236532 20.0146 0.300028 19.9848 0.367361 19.9711L4.51984 19.1123C4.62599 19.0906 4.73597 19.1095 4.83019 19.1656C4.92442 19.2218 4.99679 19.3115 5.03441 19.4189C5.64865 21.2268 5.99812 23.1237 6.07068 25.0437C6.07394 25.1582 6.03874 25.2702 5.97136 25.3598C5.90397 25.4493 5.80878 25.5107 5.70271 25.5328V25.5328Z" fill="#CCCCCC"/>
</svg>
