<svg width="223" height="201" viewBox="0 0 223 201" fill="none" xmlns="http://www.w3.org/2000/svg">
<g opacity="0.5">
<path opacity="0.5" d="M210.484 66.5391H180.053V54.8952C180.053 51.6606 178.768 48.5585 176.481 46.2713C174.194 43.9841 171.092 42.6992 167.857 42.6992H28.5268C25.5923 42.6992 22.778 43.8649 20.7031 45.9399C18.6281 48.0149 17.4624 50.8291 17.4624 53.7636V66.546H12.8809C9.46788 66.5447 6.19398 67.8986 3.77867 70.3101C1.36336 72.7215 0.00425013 75.9932 0 79.4063V137.133C0.00247459 140.379 1.23116 143.505 3.44002 145.884C5.64888 148.262 8.67483 149.719 11.9119 149.961V163.019H24.9188V150H41.2977V163.129H54.3046V150H171.362V163.129H184.369V150H195.209V163.007H208.229V150H210.573C212.1 150.001 213.612 149.7 215.023 149.116C216.434 148.532 217.717 147.675 218.797 146.595C219.877 145.516 220.733 144.234 221.318 142.823C221.902 141.412 222.203 139.9 222.203 138.373V78.2609C222.203 76.7217 221.9 75.1975 221.312 73.7753C220.723 72.3532 219.86 71.061 218.771 69.9725C217.683 68.884 216.391 68.0205 214.969 67.4314C213.547 66.8423 212.023 66.5391 210.484 66.5391ZM177.762 117.483V127.237H129.272C129.797 126.297 130.072 125.238 130.071 124.161V117.483H177.762Z" fill="url(#paint0_linear_1367_13825)"/>
</g>
<path d="M28.0519 145.283H15.4316V160.753H28.0519V145.283Z" fill="#635DC9"/>
<path d="M181.531 145.283H169.317V160.753H181.531V145.283Z" fill="#635DC9"/>
<path d="M204.735 145.283H192.115V160.753H204.735V145.283Z" fill="#635DC9"/>
<path d="M56.549 145.283H43.9287V160.753H56.549V145.283Z" fill="#635DC9"/>
<path opacity="0.3" d="M28.0519 145.283H15.4316V160.753H28.0519V145.283Z" fill="black"/>
<path opacity="0.3" d="M181.531 145.283H169.317V160.753H181.531V145.283Z" fill="black"/>
<path opacity="0.3" d="M204.735 145.283H192.115V160.753H204.735V145.283Z" fill="black"/>
<path opacity="0.3" d="M56.549 145.283H43.9287V160.753H56.549V145.283Z" fill="black"/>
<path d="M175.424 67.9336H206.898C209.887 67.9336 212.754 69.12 214.868 71.2319C216.982 73.3438 218.17 76.2081 218.17 79.1947V136.961C218.17 139.924 216.992 142.766 214.894 144.861C212.797 146.956 209.953 148.133 206.987 148.133H175.424V67.9336Z" fill="#635DC9"/>
<path opacity="0.3" d="M175.424 67.9336H206.898C209.887 67.9336 212.754 69.12 214.868 71.2319C216.982 73.3438 218.17 76.2081 218.17 79.1947V136.961C218.17 139.924 216.992 142.766 214.894 144.861C212.797 146.956 209.953 148.133 206.987 148.133H175.424V67.9336Z" fill="black"/>
<path d="M31.7648 44.7285H91.9671V116.786H21.1309V55.3869C21.1315 52.5599 22.2521 49.8489 24.2463 47.8501C26.2404 45.8514 28.9449 44.7285 31.7648 44.7285Z" fill="#635DC9"/>
<path opacity="0.3" d="M32.1077 44.7285H91.9671V116.786H21.1309V55.7307C21.1309 54.2857 21.4148 52.8548 21.9665 51.5198C22.5181 50.1848 23.3267 48.9719 24.346 47.9502C25.3654 46.9285 26.5755 46.1181 27.9072 45.5653C29.239 45.0126 30.6663 44.7282 32.1077 44.7285Z" fill="black"/>
<path d="M47.8452 44.7285H106.216V116.786H35.3799V57.2229C35.3799 53.9092 36.6929 50.7312 39.0302 48.388C41.3675 46.0449 44.5375 44.7285 47.8429 44.7285H47.8452Z" fill="#635DC9"/>
<path d="M106.216 44.7285H165.745C168.852 44.7285 171.831 45.9666 174.028 48.1705C176.225 50.3744 177.459 53.3635 177.459 56.4802V116.786H106.216V44.7285Z" fill="#635DC9"/>
<path d="M194.965 67.9336H206.772C209.796 67.9354 212.695 69.1227 214.832 71.2343C216.969 73.346 218.17 76.2093 218.17 79.1947V136.961C218.17 139.924 216.978 142.766 214.856 144.861C212.734 146.956 209.856 148.133 206.856 148.133H194.965V67.9336Z" fill="#635DC9"/>
<path d="M194.965 126.148H51.2568V148.132H194.965V126.148Z" fill="#635DC9"/>
<path d="M84.1828 70.7129L68.4451 75.3C61.5158 77.3197 57.5357 84.5744 59.5555 91.5037L64.7689 109.39C66.7886 116.319 74.0432 120.299 80.9725 118.28L96.7103 113.693C103.64 111.673 107.62 104.418 105.6 97.4889L100.386 79.6025C98.3668 72.6732 91.1122 68.6932 84.1828 70.7129Z" fill="url(#paint1_linear_1367_13825)"/>
<path d="M83.3159 72.8494L68.6404 77.1269C62.1787 79.0103 58.4672 85.7754 60.3507 92.2371L65.2121 108.916C67.0956 115.378 73.8606 119.089 80.3223 117.206L94.9978 112.928C101.46 111.045 105.171 104.28 103.288 97.8181L98.426 81.1391C96.5426 74.6774 89.7776 70.966 83.3159 72.8494Z" fill="#F55F44"/>
<path opacity="0.1" d="M83.3159 72.8494L68.6404 77.1269C62.1787 79.0103 58.4672 85.7754 60.3507 92.2371L65.2121 108.916C67.0956 115.378 73.8606 119.089 80.3223 117.206L94.9978 112.928C101.46 111.045 105.171 104.28 103.288 97.8181L98.426 81.1391C96.5426 74.6774 89.7776 70.966 83.3159 72.8494Z" fill="black"/>
<path d="M84.0737 72.3181L69.3982 76.5956C62.9365 78.479 59.2251 85.2441 61.1085 91.7058L65.97 108.385C67.8534 114.847 74.6184 118.558 81.0801 116.675L95.7556 112.397C102.217 110.514 105.929 103.749 104.045 97.2869L99.1839 80.6078C97.3005 74.1461 90.5354 70.4347 84.0737 72.3181Z" fill="#F55F44"/>
<path d="M80.9349 86.7177C82.3495 85.7228 82.6897 83.7695 81.6948 82.3549C80.6998 80.9402 78.7465 80.6 77.3319 81.595C75.9173 82.5899 75.5771 84.5432 76.572 85.9579C77.5669 87.3725 79.5203 87.7127 80.9349 86.7177Z" fill="url(#paint2_linear_1367_13825)"/>
<path d="M95.9163 95.3193C97.3309 94.3243 97.6711 92.371 96.6762 90.9564C95.6813 89.5418 93.7279 89.2016 92.3133 90.1965C90.8987 91.1915 90.5585 93.1448 91.5535 94.5594C92.5484 95.974 94.5017 96.3142 95.9163 95.3193Z" fill="url(#paint3_linear_1367_13825)"/>
<path d="M72.678 104.005C74.0927 103.01 74.4329 101.057 73.4379 99.642C72.443 98.2274 70.4897 97.8872 69.075 98.8821C67.6604 99.877 67.3202 101.83 68.3152 103.245C69.3101 104.66 71.2634 105 72.678 104.005Z" fill="url(#paint4_linear_1367_13825)"/>
<path d="M86.805 113.208C88.2196 112.213 88.5598 110.26 87.5649 108.845C86.5699 107.43 84.6166 107.09 83.202 108.085C81.7874 109.08 81.4472 111.033 82.4421 112.448C83.4371 113.863 85.3904 114.203 86.805 113.208Z" fill="url(#paint5_linear_1367_13825)"/>
<path d="M80.3337 85.8637C81.2764 85.2007 81.5031 83.899 80.8401 82.9562C80.177 82.0135 78.8753 81.7868 77.9325 82.4498C76.9898 83.1129 76.7631 84.4146 77.4261 85.3573C78.0892 86.3001 79.3909 86.5268 80.3337 85.8637Z" fill="#F99F8F"/>
<path d="M95.3151 94.4653C96.2578 93.8023 96.4846 92.5005 95.8215 91.5578C95.1585 90.6151 93.8567 90.3883 92.914 91.0514C91.9713 91.7144 91.7445 93.0162 92.4076 93.9589C93.0706 94.9016 94.3724 95.1284 95.3151 94.4653Z" fill="#F99F8F"/>
<path d="M72.0768 103.151C73.0196 102.488 73.2463 101.186 72.5832 100.243C71.9202 99.3006 70.6184 99.0739 69.6757 99.7369C68.733 100.4 68.5063 101.702 69.1693 102.644C69.8324 103.587 71.1341 103.814 72.0768 103.151Z" fill="#F99F8F"/>
<path d="M86.2038 112.354C87.1465 111.691 87.3732 110.389 86.7102 109.446C86.0471 108.504 84.7454 108.277 83.8027 108.94C82.8599 109.603 82.6332 110.905 83.2963 111.848C83.9593 112.79 85.2611 113.017 86.2038 112.354Z" fill="#F99F8F"/>
<path d="M16.471 67.9336H62.6563V148.133H16.471C13.1727 148.133 10.0095 146.83 7.67698 144.51C5.34449 142.189 4.03381 139.043 4.0332 135.761V80.308C4.0332 77.0261 5.34361 73.8786 7.67616 71.558C10.0087 69.2373 13.1723 67.9336 16.471 67.9336Z" fill="#635DC9"/>
<path opacity="0.3" d="M16.5579 67.9336H51.0668C52.5895 67.9336 54.0973 68.2322 55.504 68.8122C56.9107 69.3923 58.1887 70.2424 59.265 71.3141C60.3413 72.3859 61.1948 73.6581 61.7767 75.0581C62.3586 76.4582 62.6575 77.9586 62.6563 79.4736V136.602C62.6563 139.66 61.4352 142.593 59.2618 144.756C57.0883 146.918 54.1405 148.133 51.0668 148.133H16.5579C13.2361 148.133 10.0504 146.82 7.70159 144.483C5.35276 142.146 4.0332 138.977 4.0332 135.672V80.3881C4.03503 77.0843 5.3554 73.9165 7.70403 71.581C10.0527 69.2455 13.2373 67.9336 16.5579 67.9336Z" fill="black"/>
<path opacity="0.1" d="M39.8584 67.9336H59.981C61.0144 67.9336 62.0055 68.343 62.7363 69.0719C63.467 69.8007 63.8776 70.7892 63.8776 71.8199V144.247C63.8776 145.278 63.467 146.266 62.7363 146.995C62.0055 147.724 61.0144 148.133 59.981 148.133H39.8584V67.9336Z" fill="black"/>
<path d="M38.6367 67.9336H58.7593C59.7927 67.9336 60.7838 68.343 61.5146 69.0719C62.2454 69.8007 62.6559 70.7892 62.6559 71.8199V144.247C62.6559 145.278 62.2454 146.266 61.5146 146.995C60.7838 147.724 59.7927 148.133 58.7593 148.133H38.6367V67.9336Z" fill="#635DC9"/>
<path d="M129.421 109.457H57.3633V129.405H129.421V109.457Z" fill="#635DC9"/>
<path d="M201.478 109.865H129.421V129.406H201.478V109.865Z" fill="#635DC9"/>
<path opacity="0.15" d="M123.324 109.457H63.4603C60.093 109.457 57.3633 112.201 57.3633 115.586V123.276C57.3633 126.661 60.093 129.405 63.4603 129.405H123.324C126.691 129.405 129.421 126.661 129.421 123.276V115.586C129.421 112.201 126.691 109.457 123.324 109.457Z" fill="white"/>
<path d="M137.767 73.225C140.128 73.225 142.041 71.3112 142.041 68.9504C142.041 66.5896 140.128 64.6758 137.767 64.6758C135.406 64.6758 133.492 66.5896 133.492 68.9504C133.492 71.3112 135.406 73.225 137.767 73.225Z" fill="#635DC9"/>
<path opacity="0.3" d="M137.767 73.225C140.128 73.225 142.041 71.3112 142.041 68.9504C142.041 66.5896 140.128 64.6758 137.767 64.6758C135.406 64.6758 133.492 66.5896 133.492 68.9504C133.492 71.3112 135.406 73.225 137.767 73.225Z" fill="black"/>
<path d="M73.0373 73.225C75.3981 73.225 77.3119 71.3112 77.3119 68.9504C77.3119 66.5896 75.3981 64.6758 73.0373 64.6758C70.6765 64.6758 68.7627 66.5896 68.7627 68.9504C68.7627 71.3112 70.6765 73.225 73.0373 73.225Z" fill="#635DC9"/>
<path opacity="0.15" d="M195.381 109.865H135.518C132.151 109.865 129.421 112.553 129.421 115.87V123.402C129.421 126.718 132.151 129.406 135.518 129.406H195.381C198.749 129.406 201.478 126.718 201.478 123.402V115.87C201.478 112.553 198.749 109.865 195.381 109.865Z" fill="white"/>
<g opacity="0.5">
<path opacity="0.5" d="M154.039 69.6036C153.561 66.9715 153.07 64.3097 151.978 61.8609C150.781 59.1708 148.906 56.8375 146.537 55.0894C146.185 54.8235 145.749 54.6933 145.309 54.7229C144.622 54.7824 144.411 55.2039 144.304 55.6392C144.29 55.6919 144.279 55.7423 144.269 55.7949C143.999 57.1305 144.18 58.4499 144.572 59.7511C145.06 61.3752 145.877 62.9581 146.558 64.5296C147.784 67.3454 148.596 70.3237 148.97 73.3719C149.02 73.7751 149.059 74.1897 149.068 74.6043C149.075 74.8511 149.069 75.0981 149.05 75.3442C149.019 75.827 148.91 76.3014 148.725 76.7485C148.693 76.8218 148.658 76.8981 148.622 76.9775C148.585 77.057 148.545 77.1272 148.503 77.1883C148.086 77.8755 147.435 78.3657 146.798 78.8491C146.162 79.3324 145.44 79.8479 144.679 80.109H144.705C144.351 80.2367 143.977 80.2981 143.6 80.29C142.425 80.2533 141.172 79.3072 139.99 79.5294L139.857 79.5592C138.648 79.8868 137.72 81.7881 137.711 82.9954C137.711 83.0916 137.711 83.1847 137.711 83.2748C137.711 83.3069 137.711 83.339 137.722 83.371C137.734 83.4031 137.736 83.4924 137.745 83.5497C137.754 83.607 137.759 83.6207 137.768 83.6551C137.777 83.6894 137.789 83.7582 137.803 83.8086C137.816 83.859 137.823 83.8796 137.835 83.9139C137.846 83.9483 137.864 84.0079 137.88 84.0537C137.897 84.0995 137.908 84.1224 137.922 84.1545C137.935 84.1865 137.958 84.2415 137.979 84.2828L138.029 84.379C138.052 84.4179 138.073 84.4591 138.098 84.4981L138.158 84.5897L138.236 84.6997L138.302 84.7844L138.391 84.8852L138.465 84.9631L138.563 85.057L138.643 85.128L138.751 85.2151L138.836 85.2815L138.953 85.3617L139.04 85.4213L139.168 85.4969L139.257 85.5473L139.402 85.6183L139.486 85.6595C139.555 85.6916 139.626 85.7214 139.697 85.7488L139.8 85.7878L139.965 85.8473L140.084 85.884L140.219 85.9252L140.352 85.9596L140.48 85.9917L140.622 86.0214L140.746 86.0466L140.895 86.0718L141.014 86.0902L141.168 86.1108L141.282 86.1245L141.443 86.1383H141.555H141.72H141.825H141.997H142.357H142.544H142.611L142.812 86.1222H142.851C143.423 86.0725 143.986 85.9486 144.526 85.7534C146.237 85.1051 147.689 83.9208 149.034 82.6769C151.701 80.2144 154.22 77.1585 154.433 73.5345C154.516 72.2265 154.275 70.907 154.039 69.6036Z" fill="url(#paint6_linear_1367_13825)"/>
</g>
<path opacity="0.1" d="M142.856 68.7461H121.279V74.8527H142.856V68.7461Z" fill="black"/>
<path d="M142.856 68.7461H121.279V74.4456H142.856V68.7461Z" fill="#635DC9"/>
<path d="M133.696 69.5614C135.607 69.5614 137.156 68.0121 137.156 66.101C137.156 64.1899 135.607 62.6406 133.696 62.6406C131.785 62.6406 130.235 64.1899 130.235 66.101C130.235 68.0121 131.785 69.5614 133.696 69.5614Z" fill="#635DC9"/>
<path d="M127.336 71.1892C127.225 71.141 127.135 71.0793 127.073 71.0088C127.011 70.9382 126.979 70.8607 126.979 70.7821C126.979 70.7035 127.011 70.626 127.073 70.5555C127.135 70.4849 127.225 70.4232 127.336 70.375L127.386 70.4094C127.282 70.4532 127.197 70.51 127.139 70.5751C127.081 70.6402 127.051 70.712 127.051 70.7847C127.051 70.8574 127.081 70.9292 127.139 70.9943C127.197 71.0594 127.282 71.1161 127.386 71.16L127.336 71.1892Z" fill="#CCA186"/>
<path d="M144.683 89.5491C146.264 88.9609 147.603 87.8867 148.848 86.7602C151.311 84.53 153.634 81.7638 153.833 78.4776C153.905 77.2784 153.685 76.0838 153.465 74.9006C153.023 72.5159 152.572 70.104 151.57 67.8875C150.465 65.4514 148.735 63.3385 146.548 61.7555C146.223 61.5139 145.819 61.3961 145.412 61.4239C144.718 61.4852 144.542 61.9531 144.449 62.4005C143.887 65.1258 145.43 67.7694 146.56 70.313C147.691 72.8639 148.441 75.5618 148.786 78.3231C148.932 79.495 148.985 80.7623 148.356 81.7706C147.971 82.3884 147.37 82.8381 146.782 83.2741C145.903 83.9259 144.931 84.6095 143.829 84.5777C142.728 84.5459 141.496 83.617 140.358 83.9168C139.219 84.2166 138.384 85.9358 138.377 87.0373C138.363 90.0215 142.568 90.3349 144.683 89.5491Z" fill="#FFD180"/>
<g opacity="0.1">
<path opacity="0.1" d="M148.294 81.8235C147.913 82.4466 147.318 82.9002 146.736 83.34C146.154 83.8205 145.5 84.207 144.798 84.4854C145.788 84.419 146.674 83.7982 147.478 83.182C148.06 82.7421 148.656 82.2863 149.036 81.6655C149.657 80.6507 149.606 79.3747 149.462 78.1881C149.12 75.4029 148.378 72.6816 147.258 70.1086C146.14 67.5407 144.61 64.872 145.169 62.1276C145.185 61.9654 145.233 61.8081 145.312 61.6654C145.391 61.5227 145.498 61.3978 145.627 61.2984C145.543 61.2912 145.458 61.2912 145.373 61.2984C144.686 61.3602 144.512 61.8321 144.42 62.2834C143.863 65.0323 145.391 67.6987 146.509 70.2644C147.629 72.8373 148.371 75.5586 148.713 78.3439C148.864 79.5282 148.917 80.8064 148.294 81.8235Z" fill="black"/>
<path opacity="0.1" d="M139.167 86.9838C139.167 85.9576 139.898 84.3976 140.881 83.9302C140.713 83.9261 140.546 83.9454 140.384 83.9875C139.277 84.2876 138.43 86.024 138.423 87.135C138.409 89.9435 142.026 90.4016 144.214 89.8129C142.04 90.129 139.154 89.4853 139.167 86.9838Z" fill="black"/>
</g>
<g opacity="0.5">
<path opacity="0.5" d="M123.212 55.6723C123.212 55.6723 129.452 54.4238 132.572 55.6723C132.572 55.6723 134.444 51.3038 136.315 51.3038C138.187 51.3038 138.81 58.1761 138.81 58.1761L141.304 68.1592C141.304 68.1592 153.159 89.3739 141.304 100.603C129.45 111.832 110.734 99.3478 110.734 91.2363C110.734 83.1247 114.477 66.2808 114.477 66.2808C114.477 66.2808 118.221 52.5546 119.469 51.3061C120.717 50.0577 123.212 55.6723 123.212 55.6723Z" fill="url(#paint7_linear_1367_13825)"/>
</g>
<path d="M123.418 56.4508C123.418 56.4508 129.37 55.2446 132.346 56.4508C132.346 56.4508 134.131 52.2316 135.918 52.2316C137.705 52.2316 138.298 58.8607 138.298 58.8607L140.679 68.5029C140.679 68.5029 151.989 88.9888 140.679 99.8417C129.368 110.695 111.509 98.6355 111.509 90.8026C111.509 82.9696 115.081 66.696 115.081 66.696C115.081 66.696 118.652 53.4377 119.844 52.2316C121.035 51.0255 123.418 56.4508 123.418 56.4508Z" fill="#FFD180"/>
<g opacity="0.1">
<path opacity="0.1" d="M145.004 79.7458C144.084 75.8474 142.674 72.0812 140.808 68.5371L141.186 70.0536C142.811 73.1343 144.091 76.3846 145.004 79.7458Z" fill="white"/>
<path opacity="0.1" d="M112.503 89.1127C112.503 81.3241 115.405 68.2531 115.405 68.2531C115.405 68.2531 119.004 55.0584 120.205 53.858C121.405 52.6577 123.803 58.057 123.803 58.057C123.803 58.057 129.8 56.8566 132.799 58.057C132.799 58.057 134.6 53.858 136.398 53.858C137.085 53.858 137.614 54.8522 137.985 56.0686C137.619 54.2887 136.996 52.3415 136.02 52.3415C134.222 52.3415 132.421 56.5405 132.421 56.5405C129.422 55.3401 123.425 56.5405 123.425 56.5405C123.425 56.5405 121.027 51.1435 119.827 52.3415C118.626 53.5396 115.027 66.7366 115.027 66.7366C115.027 66.7366 112.125 79.7939 112.125 87.5962C112.123 88.3018 112.503 89.3372 112.503 89.1127Z" fill="white"/>
</g>
<path d="M135.121 68.3391C135.795 68.3391 136.342 67.7923 136.342 67.1178C136.342 66.4433 135.795 65.8965 135.121 65.8965C134.446 65.8965 133.899 66.4433 133.899 67.1178C133.899 67.7923 134.446 68.3391 135.121 68.3391Z" fill="#58555D"/>
<path d="M121.279 68.3391C121.953 68.3391 122.5 67.7923 122.5 67.1178C122.5 66.4433 121.953 65.8965 121.279 65.8965C120.604 65.8965 120.058 66.4433 120.058 67.1178C120.058 67.7923 120.604 68.3391 121.279 68.3391Z" fill="#58555D"/>
<path d="M128.403 69.5618C129.415 69.5618 130.235 69.015 130.235 68.3405C130.235 67.6659 129.415 67.1191 128.403 67.1191C127.391 67.1191 126.571 67.6659 126.571 68.3405C126.571 69.015 127.391 69.5618 128.403 69.5618Z" fill="#58555D"/>
<path d="M144.052 65.5337L138.653 66.7324L138.783 67.3183L144.182 66.1196L144.052 65.5337Z" fill="#FFD180"/>
<path d="M144.66 67.9336L138.662 69.1289L138.779 69.7175L144.778 68.5222L144.66 67.9336Z" fill="#FFD180"/>
<path d="M111.238 63.7572L111.015 64.3145L117.013 66.7135L117.235 66.1562L111.238 63.7572Z" fill="#FFD180"/>
<path d="M109.382 66.7447L109.291 67.3379L117.089 68.538L117.18 67.9448L109.382 66.7447Z" fill="#FFD180"/>
<path opacity="0.1" d="M127.101 76.0756C125.53 76.077 123.962 75.938 122.413 75.66C119.437 75.1258 116.573 74.0532 113.951 72.4908L114.16 71.4806C116.811 72.9767 119.674 74.0247 122.64 74.5853C126.961 75.3567 134.392 75.125 141.944 70.7832L142.448 71.7385C136.966 74.8958 131.194 76.0756 127.101 76.0756Z" fill="black"/>
<path d="M141.932 70.7832C134.355 74.7947 126.92 75.0087 122.595 74.296C119.623 73.778 116.755 72.8098 114.1 71.4275L113.544 72.2792C116.296 73.733 119.276 74.7472 122.367 75.2823C123.919 75.54 125.491 75.6692 127.065 75.6685C131.166 75.6685 136.938 74.5806 142.448 71.668L141.932 70.7832ZM127.258 75.589C127.235 75.589 127.212 75.5824 127.193 75.5701C127.174 75.5577 127.159 75.5401 127.15 75.5196C127.141 75.499 127.139 75.4764 127.143 75.4545C127.148 75.4327 127.159 75.4127 127.175 75.3969C127.192 75.3812 127.212 75.3705 127.235 75.3661C127.258 75.3618 127.281 75.364 127.303 75.3725C127.324 75.381 127.342 75.3955 127.355 75.414C127.368 75.4325 127.375 75.4542 127.375 75.4765C127.374 75.506 127.362 75.534 127.34 75.5546C127.318 75.5753 127.289 75.5868 127.258 75.5868V75.589Z" fill="#FFC061"/>
<path opacity="0.1" d="M126.164 77.2955C126.164 77.6194 126.271 77.9301 126.462 78.1591C126.653 78.3882 126.912 78.5168 127.182 78.5168C127.452 78.5168 127.711 78.3882 127.901 78.1591C128.092 77.9301 128.2 77.6194 128.2 77.2955C128.2 76.9716 128.092 76.661 127.901 76.4319C127.711 76.2029 127.452 76.0742 127.182 76.0742C126.912 76.0742 126.653 76.2029 126.462 76.4319C126.271 76.661 126.164 76.9716 126.164 77.2955ZM127.182 76.6849C127.148 76.6849 127.116 76.673 127.088 76.6507C127.06 76.6284 127.039 76.5968 127.026 76.5597C127.013 76.5227 127.01 76.4819 127.016 76.4426C127.023 76.4032 127.039 76.3671 127.062 76.3388C127.086 76.3104 127.116 76.2911 127.149 76.2833C127.182 76.2755 127.216 76.2795 127.246 76.2948C127.277 76.3102 127.304 76.3361 127.322 76.3695C127.341 76.4028 127.351 76.442 127.351 76.4821C127.351 76.5355 127.333 76.5867 127.302 76.6246C127.271 76.6626 127.228 76.6842 127.184 76.6849H127.182Z" fill="url(#paint8_linear_1367_13825)"/>
<path d="M126.164 77.092C126.164 77.3619 126.271 77.6208 126.462 77.8116C126.653 78.0025 126.912 78.1097 127.182 78.1097C127.452 78.1097 127.711 78.0025 127.901 77.8116C128.092 77.6208 128.2 77.3619 128.2 77.092C128.2 76.8221 128.092 76.5632 127.901 76.3723C127.711 76.1814 127.452 76.0742 127.182 76.0742C126.912 76.0742 126.653 76.1814 126.462 76.3723C126.271 76.5632 126.164 76.8221 126.164 77.092ZM127.182 76.5831C127.148 76.5831 127.115 76.5732 127.088 76.5545C127.06 76.5359 127.038 76.5094 127.025 76.4784C127.012 76.4474 127.009 76.4133 127.015 76.3804C127.022 76.3475 127.038 76.3173 127.062 76.2935C127.086 76.2698 127.116 76.2536 127.149 76.2471C127.182 76.2406 127.216 76.2439 127.247 76.2568C127.278 76.2696 127.304 76.2913 127.323 76.3192C127.341 76.3471 127.351 76.3799 127.351 76.4135C127.351 76.4585 127.334 76.5016 127.302 76.5334C127.27 76.5652 127.227 76.5831 127.182 76.5831Z" fill="#494D31"/>
<path d="M140.413 70.7832C124.401 80.4294 115.173 71.489 115.173 71.489L140.413 70.7832Z" fill="#FFD180"/>
<path opacity="0.1" d="M102.145 78.1113C102.145 78.1113 95.7629 81.0169 94.0029 83.8108L102.145 78.1113Z" fill="black"/>
<g opacity="0.5">
<path opacity="0.5" d="M129.315 197.455C135.023 195.541 138.099 189.362 136.184 183.653C134.27 177.945 128.09 174.869 122.382 176.784C116.673 178.698 113.598 184.878 115.512 190.586C117.427 196.294 123.606 199.37 129.315 197.455Z" fill="url(#paint9_linear_1367_13825)"/>
</g>
<path d="M129.093 196.794C134.437 195.002 137.316 189.217 135.524 183.873C133.732 178.53 127.947 175.65 122.603 177.443C117.26 179.235 114.381 185.019 116.173 190.363C117.965 195.707 123.75 198.586 129.093 196.794Z" fill="#FFC061"/>
<g opacity="0.5">
<path opacity="0.5" d="M98.6882 200.789C97.2221 201.281 95.3963 200.931 94.716 199.524C94.3243 198.711 94.4182 197.801 94.5098 196.922C94.6106 195.957 94.6954 195.126 94.1525 194.588C93.872 194.349 93.5417 194.176 93.1858 194.081C92.7276 193.928 92.2328 193.8 91.7609 193.676C90.9195 193.483 90.0975 193.213 89.3052 192.87C87.7475 192.139 86.751 190.904 86.6411 189.566C86.5472 188.421 87.0992 187.376 87.6261 186.375C88.153 185.374 88.6844 184.38 88.4325 183.397C88.0911 182.071 86.4991 181.441 85.0971 180.877L84.868 180.79C83.1546 180.103 81.3174 178.653 81.7755 176.793C81.9359 176.145 82.3459 175.648 82.7422 175.189C83.0109 174.891 83.2417 174.561 83.4295 174.207C84.048 172.903 83.2004 171.396 82.8224 170.807C82.5269 170.349 82.1764 169.928 81.8374 169.508C81.306 168.893 80.8357 168.227 80.4331 167.52L80.369 167.401C79.439 165.642 79.4206 165.568 79.4985 163.651V163.422L80.3094 163.454V163.683C80.2407 165.422 80.2407 165.422 81.086 167.021L81.1502 167.14C81.5281 167.8 81.9692 168.422 82.4673 168.998C82.8178 169.431 83.1798 169.88 83.4982 170.358C84.4809 171.845 84.7214 173.373 84.1602 174.553C83.9409 174.967 83.67 175.352 83.3539 175.698C83.0011 176.12 82.6666 176.518 82.5521 176.985C82.1947 178.431 84.0205 179.581 85.1567 180.034L85.3743 180.121C86.8793 180.717 88.7532 181.459 89.1976 183.184C89.5274 184.465 88.9158 185.619 88.3225 186.737C87.8254 187.676 87.3535 188.57 87.4291 189.486C87.5299 190.716 88.6318 191.653 89.6282 192.123C90.3755 192.445 91.1508 192.698 91.9442 192.879C92.4298 193.005 92.9315 193.138 93.4217 193.3C93.898 193.431 94.3373 193.671 94.7045 194.001C95.5223 194.812 95.4078 195.923 95.2978 196.997C95.2154 197.799 95.1352 198.557 95.4284 199.162C95.9576 200.257 97.5978 200.418 98.7386 199.879C99.6732 199.439 100.409 198.69 101.187 197.9C101.439 197.643 101.7 197.38 101.966 197.128C103.419 195.754 104.887 195.153 106.216 195.385C106.637 195.472 107.048 195.605 107.441 195.781C107.747 195.915 108.063 196.024 108.387 196.106C109.109 196.235 109.854 196.087 110.471 195.691C111.089 195.295 111.535 194.681 111.72 193.971C111.75 193.836 111.771 193.694 111.794 193.545C111.865 193.069 111.945 192.528 112.325 192.109C112.705 191.69 113.308 191.536 113.736 191.438L118.157 190.416L118.341 191.206L113.919 192.228C113.5 192.324 113.136 192.425 112.927 192.654C112.719 192.883 112.657 193.266 112.6 193.664C112.577 193.82 112.552 193.983 112.517 194.143C112.285 195.063 111.71 195.859 110.911 196.37C110.112 196.881 109.148 197.067 108.215 196.892C107.848 196.8 107.488 196.678 107.141 196.526C106.801 196.373 106.445 196.256 106.08 196.177C104.733 195.948 103.407 196.881 102.53 197.71C102.275 197.95 102.019 198.212 101.772 198.461C100.977 199.268 100.157 200.104 99.0913 200.605C98.9606 200.674 98.826 200.735 98.6882 200.789Z" fill="url(#paint10_linear_1367_13825)"/>
</g>
<path d="M98.8755 200.439C97.4168 200.93 95.6003 200.58 94.9234 199.179C94.5336 198.368 94.6271 197.462 94.7182 196.585C94.8185 195.624 94.9028 194.795 94.3627 194.258C94.0836 194.02 93.755 193.848 93.4008 193.754C92.945 193.601 92.4527 193.473 91.9832 193.35C91.146 193.157 90.3281 192.888 89.5399 192.546C87.99 191.818 86.9985 190.587 86.8891 189.253C86.7957 188.112 87.345 187.071 87.8692 186.073C88.3934 185.075 88.9222 184.084 88.6715 183.105C88.3319 181.783 86.7478 181.155 85.3529 180.593L85.125 180.507C83.4202 179.822 81.5922 178.376 82.0481 176.522C82.2076 175.876 82.6156 175.381 83.0099 174.924C83.2772 174.627 83.5069 174.298 83.6937 173.945C84.3091 172.645 83.4658 171.143 83.0897 170.556C82.7957 170.1 82.447 169.68 82.1096 169.262C81.5809 168.648 81.113 167.984 80.7125 167.28L80.6487 167.161C79.7233 165.408 79.7051 165.335 79.7826 163.424V163.195L80.5894 163.227V163.456C80.521 165.189 80.521 165.189 81.3621 166.782L81.4259 166.901C81.8019 167.559 82.2408 168.179 82.7364 168.753C83.0851 169.184 83.4452 169.632 83.7621 170.109C84.7398 171.591 84.9792 173.114 84.4207 174.289C84.2026 174.702 83.933 175.086 83.6185 175.431C83.2675 175.851 82.9347 176.248 82.8207 176.714C82.4652 178.155 84.2817 179.301 85.4122 179.753L85.6287 179.84C87.1262 180.433 88.9906 181.173 89.4327 182.892C89.7609 184.169 89.1524 185.32 88.5621 186.434C88.0675 187.37 87.598 188.26 87.6732 189.174C87.7735 190.4 88.8698 191.333 89.8612 191.802C90.6048 192.123 91.3761 192.375 92.1655 192.555C92.6487 192.681 93.1478 192.813 93.6356 192.975C94.1095 193.105 94.5465 193.345 94.912 193.674C95.7256 194.482 95.6117 195.589 95.5023 196.66C95.4202 197.459 95.3404 198.215 95.6322 198.818C96.1587 199.909 97.7906 200.069 98.9256 199.532C99.8556 199.094 100.587 198.347 101.362 197.56C101.613 197.304 101.873 197.041 102.137 196.79C103.582 195.42 105.043 194.822 106.365 195.053C106.784 195.14 107.193 195.273 107.584 195.448C107.889 195.582 108.204 195.69 108.526 195.772C109.244 195.9 109.985 195.752 110.599 195.358C111.214 194.964 111.658 194.352 111.842 193.644C111.872 193.509 111.892 193.368 111.915 193.219C111.986 192.744 112.065 192.206 112.444 191.788C112.822 191.37 113.421 191.217 113.848 191.119L118.247 190.101L118.429 190.888L114.03 191.907C113.613 192.002 113.25 192.103 113.043 192.331C112.836 192.56 112.774 192.941 112.717 193.338C112.694 193.493 112.669 193.655 112.635 193.815C112.404 194.732 111.832 195.526 111.037 196.035C110.241 196.544 109.282 196.73 108.355 196.555C107.989 196.464 107.631 196.341 107.286 196.19C106.947 196.037 106.593 195.921 106.231 195.843C104.89 195.614 103.571 196.544 102.698 197.37C102.445 197.61 102.189 197.87 101.943 198.119C101.152 198.923 100.336 199.756 99.2766 200.256C99.1466 200.325 99.0126 200.386 98.8755 200.439Z" fill="#FFC061"/>
<path opacity="0.2" d="M125.35 179.913C125.35 179.913 130.815 179.075 133.492 186.807" stroke="black" stroke-miterlimit="10"/>
<path opacity="0.2" d="M119.095 192.507C119.095 192.507 115.26 186.505 122.094 179.887" stroke="black" stroke-miterlimit="10"/>
<path opacity="0.2" d="M120.748 190.065C120.748 190.065 118.198 187.059 120.872 184.365" stroke="black" stroke-miterlimit="10"/>
<path opacity="0.2" d="M124.536 183.143C124.536 183.143 127.035 184.178 127.386 188.842" stroke="black" stroke-miterlimit="10"/>
<path opacity="0.2" d="M127.386 177.443C127.386 177.443 131.702 178.238 134.714 183.957" stroke="black" stroke-miterlimit="10"/>
<path opacity="0.2" d="M122.093 179.48C122.093 179.48 123.993 178.185 125.757 178.862" stroke="black" stroke-miterlimit="10"/>
<path opacity="0.2" d="M123.722 192.615C123.722 192.615 126.339 194.399 133.085 189.25" stroke="black" stroke-miterlimit="10"/>
<path opacity="0.2" d="M123.314 195.764C123.314 195.764 124.9 197.417 128.2 196.012" stroke="black" stroke-miterlimit="10"/>
<path opacity="0.2" d="M118.022 181.107C117.454 182.17 117.072 183.374 116.902 184.637C116.731 185.901 116.777 187.196 117.036 188.435" stroke="black" stroke-miterlimit="10"/>
<path opacity="0.2" d="M120.474 192.1C120.474 192.1 120.241 193.46 122.093 194.135" stroke="black" stroke-miterlimit="10"/>
<path opacity="0.2" d="M134.306 190.064C134.306 190.064 134.184 193.137 132.271 193.321" stroke="black" stroke-miterlimit="10"/>
<path opacity="0.2" d="M124.943 194.481C125.975 194.624 127.025 194.52 128.013 194.179C129 193.837 129.9 193.265 130.643 192.508" stroke="black" stroke-miterlimit="10"/>
<path opacity="0.2" d="M127.793 183.957C127.793 183.957 129.138 184.981 129.005 186.807" stroke="black" stroke-miterlimit="10"/>
<path opacity="0.2" d="M122.18 185.994C122.18 185.994 121.721 188.036 122.907 189.251" stroke="black" stroke-miterlimit="10"/>
<path opacity="0.2" d="M123.314 185.586C123.314 185.586 124.891 187.224 124.462 188.436" stroke="black" stroke-miterlimit="10"/>
<path d="M63.4891 95.6495C63.4891 95.6495 59.1868 94.5586 57.1846 93.5971C55.1823 92.6356 43.959 90.6244 41.4922 95.8339C39.0255 101.043 44.8644 108.193 46.3246 108.991C47.7848 109.788 62.0241 99.6567 62.0241 99.6567L73.2423 104.609L75.4013 97.3712L63.4891 95.6495Z" fill="#3F3D56"/>
<path d="M108.606 98.1583L75.6983 97.418C71.335 97.3198 67.7974 100.77 67.7969 105.124L67.7968 106.265C67.7963 110.619 71.333 114.228 75.6963 114.326L108.604 115.066C112.968 115.165 116.505 111.714 116.506 107.361L116.506 106.22C116.506 101.866 112.97 98.2564 108.606 98.1583Z" fill="#3F3D56"/>
<path opacity="0.1" d="M102.762 105.732C102.763 107.395 102.272 109.011 101.35 110.375C101.036 110.838 100.677 111.267 100.277 111.657C99.491 112.426 98.5571 113.028 97.5289 113.43C96.5006 113.832 95.3983 114.025 94.2854 113.999L62.5249 113.284C60.2777 113.234 58.1226 112.295 56.5338 110.673C54.9449 109.052 54.0525 106.881 54.0527 104.639C54.053 102.396 54.9459 100.266 56.5352 98.7159C58.1244 97.166 60.2797 96.3237 62.5269 96.3742L94.2895 97.0887C96.5364 97.1393 98.6911 98.0783 100.28 99.6992C101.869 101.32 102.761 103.49 102.762 105.732Z" fill="black"/>
<path d="M58.8635 83.0886L60.2264 85.2528L65.3107 87.1262L68.7806 80.952L65.5564 78.7457L60.3933 76.6488L57.4528 78.2573L58.8635 83.0886Z" fill="#FBBEBE"/>
<path d="M124.653 87.3469C124.653 87.3469 117.217 88.9494 114.295 92.1927C113.316 93.2765 111.857 94.0407 110.348 94.5759L110.307 89.5836C111.988 86.8133 113.68 83.728 113.68 83.728C113.757 83.5763 114.36 81.436 114.36 81.436C115.75 80.3891 114.242 76.5891 114.242 76.5891C114.242 76.5891 115.078 74.2239 114.607 73.7511C114.137 73.2783 114.515 72.0576 114.899 71.5272C115.284 70.9968 115.2 70.3025 115.196 69.8423C115.192 69.3821 114.565 68.6736 113.552 68.2676C112.539 67.8616 113.622 67.27 114.242 67.1283C114.862 66.9866 115.006 65.5306 114.3 64.7458C113.595 63.9611 114.369 63.5181 114.748 62.6809C115.128 61.8436 113.494 61.9606 113.494 61.9606L113.429 54.1835C113.429 54.1835 112.942 51.6354 112.44 47.1634C111.938 42.6913 110.147 42.1913 110.147 42.1913C109.188 41.8782 108.25 41.4971 107.343 41.0509C106.389 40.5922 105.399 40.2104 104.386 39.9092C104.386 39.9092 102.29 39.8625 100.577 39.3088C98.8632 38.7551 97.9769 38.6991 97.9769 38.6991L97.6957 38.5565C95.5854 37.4612 93.9061 35.6918 92.9449 33.5509C92.8962 33.4433 92.8519 33.3358 92.8077 33.2326C93.2676 32.744 93.6783 32.2125 94.0343 31.6451L94.0342 31.6323C94.0348 31.7112 94.0355 31.79 94.0362 31.8689C94.0364 31.9008 94.0367 31.9349 94.037 31.9669C94.0385 32.1565 94.0401 32.3461 94.0417 32.5358L94.0418 32.5549C95.2619 30.4369 98.8497 30.0269 99.1704 27.5841C99.185 27.4729 99.192 27.3606 99.1915 27.248L99.1914 27.2331C99.1907 27.1522 99.19 27.0691 99.1893 26.986C99.1381 26.301 98.8936 25.6138 98.8423 24.9225C98.8254 24.7243 98.8237 24.5255 98.8373 24.328L98.8374 24.3408C98.9824 22.4416 100.43 20.8187 101.084 18.9862C101.26 18.4933 101.373 17.9793 101.421 17.4557L101.421 17.4407C101.437 17.2834 101.446 17.1239 101.449 16.9642C101.449 16.9258 101.449 16.8853 101.448 16.847C101.447 16.7362 101.447 16.6339 101.446 16.5146C101.417 15.5313 101.184 14.5579 100.76 13.6544C100.336 12.751 99.7307 11.9367 98.9812 11.2617C97.7347 10.1795 96.0939 9.48038 95.2248 8.0827C94.8199 7.43459 94.6182 6.6717 94.1766 6.04407C93.346 4.85816 91.835 4.34943 90.4069 4.14932C88.9787 3.9492 87.5134 3.97195 86.1459 3.50264C85.1748 3.16997 84.2929 2.59858 83.3134 2.29981C82.2464 1.99653 81.1204 2.01819 80.0866 2.36187C79.0527 2.70555 78.1606 3.3548 77.53 4.22245C77.0214 4.94821 76.6921 5.82282 76.0019 6.38263C74.5893 7.53135 72.1724 6.96623 70.9371 8.29785C70.2592 9.03048 70.1895 10.0472 70.2806 11.0888C70.2807 11.1016 70.2808 11.1144 70.2809 11.1272C70.2816 11.206 70.2974 11.2873 70.3068 11.3685C70.3071 11.4068 70.3074 11.4452 70.3077 11.4814C70.308 11.5176 70.3084 11.5624 70.3239 11.6032C70.3704 11.9771 70.4278 12.349 70.4785 12.708C70.479 12.7634 70.4925 12.817 70.4994 12.8725L70.5413 13.2079C70.542 13.2889 70.5557 13.3701 70.565 13.4513C70.5744 13.5325 70.582 13.6647 70.5892 13.7543C70.5965 13.844 70.5905 13.912 70.6064 13.9933C70.7691 16.8359 70.1789 19.6486 68.8935 22.1569C67.7373 24.3914 66.0086 26.4363 65.7254 28.9544C65.6815 29.3671 65.6734 29.7839 65.701 30.2001C65.7014 30.2491 65.7018 30.2981 65.7022 30.3471C65.7026 30.3961 65.7165 30.4966 65.7236 30.5713C65.7307 30.646 65.7424 30.7442 65.7539 30.8297C65.7544 30.8787 65.7678 30.928 65.7747 30.9772C65.7908 31.0904 65.8092 31.2038 65.8296 31.3192L65.8433 31.392C66.1659 33.1205 66.8791 34.8236 67.2648 36.5705C67.4093 37.2148 67.5076 37.8669 67.5588 38.522C67.5579 38.5262 67.5579 38.5306 67.559 38.5348C67.5737 38.7482 67.5863 38.9508 67.5945 39.1598C67.5968 39.441 67.5992 39.7244 67.6016 40.0121C67.0139 40.2212 66.411 40.39 65.7971 40.5172C64.7126 40.6464 61.5497 43.3454 61.7879 44.0494C62.026 44.7535 60.4091 49.5575 60.3647 49.7035L57.9049 67.3303C57.9049 67.3303 56.5324 68.6077 56.9716 69.4633C57.4107 70.3188 56.9059 71.7689 56.9059 71.7689C56.9059 71.7689 54.5775 72.7162 55.1016 73.3435C55.6258 73.9708 55.3986 75.1183 55.0488 75.8795C54.699 76.6408 54.1263 78.0127 55.0685 78.2638C56.0107 78.5149 55.2559 81.4997 55.2559 81.4997C55.2559 81.4997 58.5298 81.2019 58.3089 83.1058C58.2357 83.7113 60.6188 85.4345 61.6124 86.1256L61.6884 95.3174C60.3585 94.9235 58.7954 94.4158 57.797 93.9376C55.772 92.9701 44.4237 90.9491 41.9832 96.2013C39.5427 101.454 45.5015 108.661 46.9824 109.463C46.9824 109.463 48.3898 110.57 48.7048 111.116C49.0198 111.662 50.8062 111.855 50.8062 111.855C50.8062 111.855 52.6765 112.749 53.1449 113.213C53.4909 113.562 56.3365 114.509 59.706 115.277C59.706 115.277 57.0401 121.353 61.4682 120.947C65.8963 120.54 68.0372 118.447 71.1621 118.517C72.4108 118.545 74.7287 118.424 77.0615 118.271C77.6487 118.386 78.2299 118.533 78.8021 118.713C80.1207 119.148 81.4738 119.463 82.844 119.655C82.844 119.655 86.3534 121.578 88.2128 121.157C88.3661 121.118 88.5088 121.049 88.6323 120.953L88.6758 120.954C89.0139 120.879 89.3954 120.544 89.7907 120.035C92.1228 120.322 94.7901 120.713 95.7835 121.115C97.7201 121.888 111.521 121.184 111.521 121.184C111.521 121.184 120.444 121.555 123.006 122.371C125.568 123.186 124.59 114.662 119.865 113.601C118.604 113.325 117.322 113.172 116.038 113.145C116.362 112.821 116.658 112.472 116.922 112.099C118.619 111.986 119.743 111.917 119.743 111.917C119.743 111.917 124.227 109.863 126.779 108.612C128.407 107.775 129.867 106.663 131.094 105.325C131.094 105.325 133.332 103.991 134.259 103.479C135.187 102.967 135.637 101.202 135.637 101.202C142.567 85.6668 124.653 87.3469 124.653 87.3469ZM104.277 67.2131C104.275 66.9553 104.273 66.6953 104.27 66.4375C104.524 66.6178 104.489 66.8919 104.277 67.2109L104.277 67.2131ZM104.396 72.6544C104.587 72.9015 104.771 73.1272 104.903 73.3048C105.409 73.9552 104.504 74.2333 104.578 75.2937C104.595 75.5305 104.62 75.8613 104.644 76.2282C104.536 74.6984 104.448 73.4395 104.396 72.6523L104.396 72.6544Z" fill="url(#paint11_linear_1367_13825)"/>
<path d="M89.9797 106.856C89.9797 106.856 85.0865 107.994 81.0947 107.848C77.1028 107.701 58.4234 114.991 58.4234 114.991C58.4234 114.991 55.7302 121.022 60.1157 120.618C64.5012 120.213 66.6387 118.147 69.7304 118.217C72.822 118.288 82.5491 117.441 82.5491 117.441L91.9141 110.779L89.9797 106.856Z" fill="#FBBEBE"/>
<path d="M94.8646 49.7495L86.0199 51.2636L85.446 51.3635C85.446 51.3635 78.4481 49.3753 78.2161 49.2165C77.9841 49.0578 71.622 40.4961 71.622 40.4961C71.622 40.4961 74.8325 40.6034 77.352 39.2307C77.4429 39.1816 77.5317 39.1282 77.6204 39.077C78.7283 38.4444 79.5691 37.4473 79.9991 36.256C80.0444 36.1313 80.0832 36.0022 80.1198 35.8666C80.3869 34.8539 80.4024 33.6203 80.0406 32.118C79.1687 28.5451 81.1603 27.6123 83.8012 27.7577C87.6163 27.9683 92.8125 30.4291 92.8125 30.4291C92.8816 31.6263 93.1596 32.8078 93.6344 33.9219C93.6757 34.0251 93.7214 34.137 93.7692 34.2361C94.7196 36.3613 96.3833 38.1133 98.4752 39.1922L98.7549 39.335C99.0367 39.4735 99.3337 39.6061 99.6415 39.726C106.391 42.3949 94.8646 49.7495 94.8646 49.7495Z" fill="#FBBEBE"/>
<path opacity="0.1" d="M93.9463 34.2524C92.2669 36.0885 89.9879 37.2895 87.4862 37.6569C84.9846 38.0242 82.4102 37.5358 80.1889 36.2725C80.569 35.1896 80.6395 33.8332 80.2336 32.1334C78.1392 23.3982 93.0002 30.4446 93.0002 30.4446C93.0743 31.7551 93.3952 33.0464 93.9463 34.2524Z" fill="black"/>
<path d="M96.9537 26.608C96.9661 28.6603 96.3877 30.6584 95.2852 32.3723C94.9264 32.9345 94.5137 33.4609 94.0525 33.9447C92.1063 36.0042 89.3959 37.2125 86.5005 37.3111C86.2835 37.3211 86.0512 37.3223 85.8255 37.3172C83.6157 37.2673 81.4529 36.5752 79.6104 35.3285C77.768 34.0819 76.3287 32.3365 75.4745 30.3133C74.6204 28.2901 74.3897 26.0798 74.8118 23.962C75.2338 21.8441 76.2896 19.9139 77.8456 18.4153C79.4016 16.9167 81.388 15.917 83.5534 15.5428C85.7189 15.1686 87.9663 15.4365 90.0114 16.3127C92.0564 17.189 93.8073 18.6342 95.0427 20.4656C96.278 22.297 96.9423 24.4323 96.9515 26.6016L96.9537 26.608Z" fill="#FBBEBE"/>
<path opacity="0.1" d="M94.6404 49.7469L85.8655 51.2674L85.2962 51.3677C85.2962 51.3677 78.3611 49.3767 78.1314 49.2176C77.9017 49.0585 71.6126 40.4778 71.6126 40.4778C71.6126 40.4778 74.7962 40.5844 77.2981 39.2076C77.3883 39.1583 77.4764 39.1048 77.5646 39.0534C78.3587 39.9261 80.9581 42.4018 85.0462 42.4777C85.571 42.4898 86.0951 42.4639 86.6145 42.4001C87.8477 42.2401 89.0917 42.1466 90.3334 42.0574C92.7118 41.8636 96.3494 41.2284 98.261 39.1822L98.538 39.3253C98.8171 39.4641 99.1113 39.5968 99.4163 39.717C106.089 42.3708 94.6404 49.7469 94.6404 49.7469Z" fill="black"/>
<path d="M104.239 72.1692C104.322 73.8479 105.653 92.765 105.653 92.765L66.9301 91.8914L67.138 80.0043L67.3112 70.4965L67.3663 67.3762L67.6269 56.5685L66.5 55.5715L60.3753 50.1575C60.4203 50.0179 62.0523 45.2413 61.8191 44.5585C61.5858 43.8757 64.7536 41.1985 65.8405 41.0696C66.458 40.9427 67.065 40.7748 67.6573 40.5672C69.4845 39.9692 71.9225 39.1037 72.1924 39.2547C72.5732 39.4636 76.3795 39.2021 76.5336 39.1907C76.5336 39.1907 79.3592 42.8192 84.3784 42.9111C84.9068 42.9204 85.4342 42.891 85.9561 42.8231C87.2013 42.6637 88.4578 42.5706 89.712 42.4711C92.2356 42.2702 96.1571 41.5809 97.9852 39.2911C97.9852 39.2911 98.8733 39.3474 100.582 39.8952C102.291 40.443 104.388 40.4924 104.388 40.4924C105.4 40.7912 106.387 41.1697 107.341 41.6244C108.247 42.066 109.182 42.4432 110.14 42.7529C110.14 42.7529 111.926 43.2492 112.414 47.6773C112.901 52.1053 113.383 54.6305 113.383 54.6305L104.193 62.2665C104.193 62.2665 104.155 70.484 104.239 72.1692Z" fill="#A4A1C1"/>
<path opacity="0.1" d="M116.454 107.052C116.454 108.711 115.96 110.322 115.035 111.683C110.446 111.982 100.282 112.698 98.1552 113.239C95.5419 113.899 90.2557 112.525 89.6774 112.371L89.6236 112.357C89.6236 112.357 88.6075 109.263 88.1235 107.287C87.9094 106.39 87.7961 105.723 87.9381 105.677C88.4005 105.536 92.6291 104.486 92.551 105.142C92.473 105.798 105.243 100.508 105.243 100.508L105.629 105.402C106.924 106.905 116.456 104.932 116.454 107.052Z" fill="black"/>
<path d="M83.8732 119.347C83.8732 119.347 91.8758 120.083 93.781 120.854C95.6863 121.625 109.277 120.912 109.277 120.912C109.277 120.912 118.061 121.275 120.58 122.088C123.099 122.9 122.178 114.374 117.531 113.32C112.884 112.265 106.344 113.526 106.344 113.526C106.344 113.526 98.9559 112.407 98.0596 112.269C97.1634 112.131 91.2649 112.175 91.2649 112.175L83.8732 119.347Z" fill="#FBBEBE"/>
<path opacity="0.1" d="M53.0801 97.498C53.0801 97.498 63.6437 98.685 66.558 100.502L53.0801 97.498Z" fill="black"/>
<path opacity="0.1" d="M53.7891 95.1191C53.9582 95.1788 58.6612 95.9014 58.5491 96.3488C58.4371 96.7962 53.7891 95.1191 53.7891 95.1191Z" fill="black"/>
<path opacity="0.1" d="M45.8662 106.692L46.4787 109C46.4787 109 47.8583 110.101 48.165 110.642C48.4716 111.184 50.2361 111.378 50.2361 111.378C50.2361 111.378 52.0774 112.26 52.5387 112.728C52.9999 113.196 57.9836 114.763 62.6651 115.481C67.3467 116.198 76.0143 117.541 77.8557 118.194C79.1569 118.626 80.4926 118.937 81.8459 119.125C81.8459 119.125 85.2966 121.038 87.1387 120.622C88.9809 120.206 92.131 111.944 92.131 111.944C92.131 111.944 80.0104 108.842 79.6268 107.916C79.2431 106.99 67.5828 102.447 67.5828 102.447L60.6769 102.453L45.8662 106.692Z" fill="black"/>
<path d="M45.4073 106.916L46.02 109.221C46.02 109.221 47.404 110.32 47.711 110.861C48.018 111.402 49.7856 111.596 49.7856 111.596C49.7856 111.596 51.63 112.478 52.0898 112.947C52.5496 113.417 57.5462 114.979 62.234 115.696C66.9218 116.414 75.6093 117.757 77.4539 118.41C78.7568 118.84 80.0941 119.151 81.449 119.338C81.449 119.338 84.9075 121.247 86.7532 120.833C88.5989 120.418 91.7581 112.168 91.7581 112.168C91.7581 112.168 79.6141 109.068 79.2322 108.143C78.8503 107.218 61.7124 99.8827 61.7124 99.8827L56.337 98.5385L45.4073 106.916Z" fill="#3F3D56"/>
<path d="M61.7104 49.3808L60.4157 50.1155L58.3855 67.5747C58.3855 67.5747 57.0807 68.8414 57.5235 69.6854C57.9663 70.5293 57.5062 71.9672 57.5062 71.9672C57.5062 71.9672 55.2681 72.9097 55.7888 73.5296C56.3094 74.1496 56.1123 75.2865 55.7885 76.0397C55.4647 76.7929 54.937 78.1506 55.8555 78.4C56.774 78.6494 56.1021 81.5987 56.1021 81.5987C56.1021 81.5987 59.2698 81.2997 59.0938 83.1823C59.0207 83.9429 62.7776 86.4539 62.7776 86.4539C62.7776 86.4539 58.3681 78.6747 67.7874 79.9391L68.471 75.6212C68.471 75.6212 69.2083 73.197 68.3803 72.4258C67.5522 71.6546 68.4371 68.052 68.4371 68.052L68.1677 52.3324L61.7104 49.3808Z" fill="#A4A1C1"/>
<path opacity="0.1" d="M60.0273 71.9414C60.1968 72.2254 65.36 72.9168 65.6967 73.8375C66.0334 74.7583 60.0273 71.9414 60.0273 71.9414Z" fill="black"/>
<path opacity="0.1" d="M58.3527 76.2492C58.3527 76.2492 59.0594 74.0866 60.7305 74.5153C62.4016 74.9441 58.3527 76.2492 58.3527 76.2492Z" fill="black"/>
<path opacity="0.1" d="M57.3898 79.4005C57.3898 79.4005 58.6299 76.5257 60.3309 76.7884C62.0318 77.0511 57.3898 79.4005 57.3898 79.4005Z" fill="black"/>
<path d="M113.082 80.6908L112.558 83.8749C112.558 83.8749 107.035 93.8052 106.026 93.9339C105.017 94.0625 99.4687 87.0862 99.4687 87.0862L97.9515 80.3494L103.749 79.3992L106.311 76.9575C106.311 76.9575 112.829 77.7151 113.082 80.6908Z" fill="#FBBEBE"/>
<path d="M110.368 53.1744L112.441 54.6639L112.661 62.3538C112.661 62.3538 114.237 62.2339 113.885 63.0652C113.532 63.8965 112.794 64.3343 113.493 65.1113C114.193 65.8883 114.083 67.3293 113.485 67.4699C112.888 67.6105 111.853 68.1953 112.84 68.5973C113.828 68.9993 114.451 69.6959 114.464 70.1539C114.478 70.6119 114.573 71.2973 114.212 71.8218C113.85 72.3464 113.511 73.5569 113.974 74.0244C114.438 74.492 113.678 76.8325 113.678 76.8325C113.678 76.8325 115.216 80.5949 113.891 81.6313C113.891 81.6313 113.351 83.7486 113.279 83.9004C113.279 83.9004 114.016 76.5097 104.642 79.4424C104.642 79.4424 104.386 76.6141 104.291 75.5668C104.196 74.5195 105.069 74.2315 104.565 73.597C104.061 72.9626 102.803 71.5032 103.367 71.1362C103.931 70.7692 103.713 70.0791 103.471 69.5396C103.228 69.0001 102.435 68.9854 103.136 68.3531C103.837 67.7208 104.247 67.1228 103.815 66.8092C103.383 66.4956 102.62 65.4873 103.192 65.0439C103.764 64.6005 103.591 57.976 103.591 57.976C103.591 57.976 105.719 48.2816 110.368 53.1744Z" fill="#A4A1C1"/>
<path opacity="0.1" d="M109.878 66.2663C109.878 66.2663 112.812 65.5242 112.911 66.332C113.011 67.1398 109.878 66.2663 109.878 66.2663Z" fill="black"/>
<path opacity="0.1" d="M106.549 68.3796C106.549 68.3796 110.553 67.428 111.063 68.241C111.573 69.054 106.549 68.3796 106.549 68.3796Z" fill="black"/>
<path opacity="0.1" d="M105.586 70.4622C105.586 70.4622 111.605 69.7329 112.007 70.9931C112.408 72.2533 105.586 70.4622 105.586 70.4622Z" fill="black"/>
<path opacity="0.1" d="M106.387 73.0957C106.612 73.1564 112.215 73.6733 112.327 74.7414C112.44 75.8095 106.387 73.0957 106.387 73.0957Z" fill="black"/>
<path d="M107.039 76.4652L63.2427 75.4619C61.996 75.4333 60.9846 76.4102 60.9838 77.6438L60.9677 100.328C60.9668 101.561 61.9767 102.584 63.2234 102.613L107.02 103.616C108.267 103.645 109.278 102.668 109.279 101.434L109.295 78.7505C109.296 77.5169 108.286 76.4938 107.039 76.4652Z" fill="#606060"/>
<path d="M85.1395 91.3008C86.1294 91.3231 86.9285 90.5528 86.9244 89.5803C86.9202 88.6077 86.1144 87.8011 85.1244 87.7788C84.1345 87.7564 83.3354 88.5267 83.3395 89.4993C83.3437 90.4719 84.1495 91.2784 85.1395 91.3008Z" fill="#E7EFFD"/>
<path opacity="0.1" d="M69.9873 59.0137C69.9873 59.0137 74.5919 62.6552 78.129 60.0327C78.129 60.0327 72.132 60.4535 69.9873 59.0137Z" fill="black"/>
<path opacity="0.1" d="M93.0947 60.5293C93.0947 60.5293 97.6972 64.1687 101.234 61.5461C101.234 61.5461 95.2394 61.9692 93.0947 60.5293Z" fill="black"/>
<path opacity="0.1" d="M96.197 26.5547C96.2353 28.6064 95.6858 30.6046 94.6118 32.3193C94.4674 29.2644 93.6885 26.1935 91.9622 23.6069C90.3818 21.23 85.6278 17.04 82.4274 18.1099C82.0927 18.2244 81.7931 18.4164 81.553 18.6702C81.3129 18.924 81.1391 19.2325 81.0456 19.5706C80.7465 20.761 81.6895 21.2883 82.3053 22.2451C83.3502 23.9026 83.7805 25.8495 83.52 27.7404C83.4834 27.9949 83.4337 28.2469 83.3709 28.4953C82.8956 30.3634 81.771 32.4878 82.9947 34.0541C83.8478 35.1374 85.6496 35.5556 85.9159 36.886C85.9403 37.0116 85.9497 37.1391 85.9439 37.2657C85.9029 38.1614 85.1416 38.935 84.8177 39.8075C84.4382 40.8364 84.68 41.8724 85.1098 42.9231C85.6679 44.2939 86.5457 45.6866 86.7772 47.127C87.0086 48.5674 86.5845 49.8914 86.0807 51.2285C85.6039 52.4959 85.0448 53.7509 84.8731 55.0782C84.5426 57.6011 85.5329 60.5487 83.9526 62.512C83.7926 62.7502 83.5422 62.9136 83.2549 62.9675C82.223 63.0516 82.3625 61.221 81.5256 60.5874C81.6321 61.6545 81.735 62.7684 81.3635 63.757C80.9919 64.7456 79.9833 65.5713 78.9102 65.3798L78.5007 62.9793C77.7843 63.6713 76.917 64.1941 75.9596 64.5108C76.2957 61.9748 77.1673 59.5565 78.5187 57.4107C75.8237 58.6428 74.287 61.4035 72.918 64.0018C72.0653 65.6252 71.1828 67.3992 71.5224 69.2402C71.6603 69.9907 71.9981 70.7093 72.0821 71.4629C72.166 72.2165 71.9046 73.0904 71.1995 73.3605C70.5844 73.5963 69.8564 73.2823 69.4013 72.7741L69.3221 72.6808C69.278 72.6245 69.236 72.5661 69.1962 72.5077C69.1171 72.3904 69.0465 72.2678 68.9851 72.1411C68.7845 71.6865 68.6319 71.2142 68.5298 70.732L68.4787 70.518C67.7075 67.3898 67.0058 64.1652 67.4791 61.0279C67.6538 59.8731 67.9882 58.7304 67.9252 57.5534C67.8815 56.8896 67.7336 56.2326 67.4867 55.6059C66.8271 53.8496 65.5873 52.2233 64.8671 50.4528C64.8593 50.4408 64.8533 50.4277 64.8491 50.4141C64.4709 49.4774 64.2722 48.3124 64.9307 47.5813C65.2694 47.2032 65.7841 47.0206 66.211 46.7573C67.5387 45.9236 68.1109 44.2983 68.3326 42.74C68.4324 42.0376 68.4766 41.3265 68.4649 40.6132C70.2733 40.0135 72.6854 39.1459 72.9554 39.2966C73.3365 39.505 77.1156 39.2399 77.2686 39.2283C78.4099 38.5972 79.3991 37.6539 79.8673 36.2521C79.9105 36.1274 79.9471 35.9983 79.9815 35.8628C78.2382 34.905 76.7655 33.5176 75.7134 31.8419C74.6613 30.1662 74.0673 28.2622 73.992 26.3236C73.9167 24.385 74.3627 22.4813 75.2847 20.8062C76.2067 19.1311 77.5716 17.7446 79.2405 16.7878C80.9094 15.8311 82.8226 15.3383 84.7852 15.3597C86.7479 15.3811 88.6899 15.9158 90.4134 16.9095C92.1369 17.9032 93.5803 19.3203 94.5967 21.0164C95.6131 22.7126 96.166 24.6273 96.1993 26.5654L96.197 26.5547Z" fill="black"/>
<path d="M83.5808 28.0565C83.1044 29.9245 81.9837 32.049 83.2096 33.6174C84.0627 34.7007 85.8636 35.1167 86.126 36.4491C86.3365 37.5185 85.4006 38.3756 85.0342 39.3686C84.1613 41.7412 86.5874 44.1449 86.9937 46.6858C87.4362 49.4426 85.4524 51.9019 85.0968 54.6393C84.7677 57.1621 85.7588 60.1076 84.1804 62.0731C84.0216 62.3123 83.7711 62.476 83.4834 62.5286C82.4522 62.6149 82.5907 60.7843 81.754 60.1485C81.8609 61.2157 81.9644 62.3296 81.5935 63.3182C81.2226 64.3068 80.2151 65.1304 79.1425 64.9411L78.7321 62.5385C78.0167 63.2307 77.1501 63.7535 76.1933 64.07C76.528 61.535 77.3972 59.1176 78.7453 56.9719C76.0526 58.2041 74.5203 60.9649 73.1534 63.5611C72.2998 65.1845 71.4209 66.9608 71.759 68.8017C71.8971 69.5522 72.2351 70.2687 72.3194 71.0244C72.4036 71.7801 72.1428 72.6497 71.4383 72.9219C70.7959 73.1742 70.0069 72.8036 69.5617 72.2424C69.1164 71.6811 68.936 70.9745 68.7668 70.2914C67.974 67.0969 67.229 63.8011 67.7101 60.5958C67.884 59.439 68.2177 58.2962 68.1542 57.1214C68.0168 54.548 66.0585 52.3908 65.0809 49.9781C64.7003 49.0392 64.5033 47.8764 65.1611 47.1453C65.4994 46.7672 66.0136 46.5845 66.4402 46.3212C67.7645 45.4853 68.3378 43.8621 68.5564 42.3038C68.792 40.6191 68.7131 38.8941 68.3236 37.2132C67.7388 34.6982 66.454 32.2256 66.7183 29.6907C66.9768 27.1961 68.6749 25.1714 69.8027 22.9577C71.2533 20.0922 71.7724 16.8251 71.2913 13.5877C71.0646 12.0814 70.6829 10.3354 71.6942 9.23499C72.9087 7.91541 75.3136 8.47439 76.7059 7.33755C77.3861 6.78369 77.7052 5.91533 78.2037 5.19781C78.8272 4.33636 79.7085 3.6927 80.7308 3.35206C81.7532 3.01142 82.8683 2.98988 83.9287 3.29028C84.904 3.58614 85.7847 4.15042 86.752 4.48018C88.1137 4.93563 89.5622 4.92018 90.9885 5.11934C92.4148 5.3185 93.9132 5.82163 94.7484 6.99186C95.1904 7.61477 95.3997 8.3668 95.8075 9.01027C96.6831 10.3922 98.3184 11.0836 99.5659 12.1563C100.636 13.1076 101.411 14.3386 101.795 15.6955C102.178 17.0525 102.152 18.4754 101.721 19.7865C101.022 21.7881 99.3562 23.5366 99.5378 25.6787C99.6113 26.5598 99.9994 27.4307 99.8981 28.2995C99.5995 30.7187 96.043 31.125 94.8485 33.2245C94.8871 29.7413 94.1476 26.1368 92.171 23.1743C90.5904 20.7974 85.8373 16.6055 82.6394 17.6756C82.3053 17.7907 82.0064 17.9829 81.7666 18.2366C81.5269 18.4904 81.3531 18.7985 81.2592 19.1364C80.9608 20.3246 81.9034 20.854 82.5194 21.8108C83.1094 22.7444 83.5074 23.7786 83.6898 24.8517C83.8721 25.9248 83.8351 27.0148 83.5808 28.0565Z" fill="#452E43"/>
<path d="M102.536 95.8502C102.536 95.8502 109.697 95.4807 112.627 92.2685C115.558 89.0562 122.948 87.4716 122.948 87.4716C122.948 87.4716 140.738 85.8201 133.708 101.217C133.708 101.217 133.245 102.961 132.32 103.473C131.396 103.985 129.163 105.308 129.163 105.308L101.843 102.318L102.536 95.8502Z" fill="#3F3D56"/>
<path d="M129.448 103.253L128.913 105.234C127.69 106.568 126.24 107.675 124.628 108.507C122.099 109.753 117.657 111.798 117.657 111.798C117.657 111.798 101.339 112.811 98.5812 113.515C95.8229 114.218 90.0758 112.635 90.0758 112.635C90.0758 112.635 87.9295 106.077 88.3881 105.933C88.8468 105.789 93.0602 104.737 92.9855 105.393C92.9107 106.049 105.629 100.735 105.629 100.735L129.448 103.253Z" fill="#3F3D56"/>
<path opacity="0.1" d="M125.991 86.1328C125.991 86.1328 130.162 95.2019 124.685 95.9831C119.208 96.7642 121.707 88.3869 121.707 88.3869C121.707 88.3869 121.159 85.9015 119.826 85.7617" fill="black"/>
<path opacity="0.1" d="M131.03 85.9121C131.03 85.9121 126.071 94.5757 131.457 95.8311C136.842 97.0864 135.097 88.5304 135.097 88.5304C135.097 88.5304 135.862 86.1045 137.204 86.0816" fill="black"/>
<path d="M125.507 85.878C125.507 85.878 129.679 94.9471 124.202 95.7282C118.725 96.5094 121.224 88.1321 121.224 88.1321C121.224 88.1321 120.676 85.6397 119.348 85.5" fill="#FFD180"/>
<path d="M131.417 85.5293C131.417 85.5293 126.449 94.1952 131.843 95.4414C137.238 96.6876 135.483 88.1408 135.483 88.1408C135.483 88.1408 136.249 85.7148 137.591 85.6919" fill="#FFD180"/>
<path opacity="0.5" d="M122.538 93.8418H122.444V95.6125H122.538V93.8418Z" fill="#58555D"/>
<path opacity="0.5" d="M124.055 93.8418H123.961V95.6125H124.055V93.8418Z" fill="#58555D"/>
<path opacity="0.5" d="M123.233 93.2793H123.139V95.7556H123.233V93.2793Z" fill="#58555D"/>
<path opacity="0.5" d="M132.389 93.4648H132.295V95.2356H132.389V93.4648Z" fill="#58555D"/>
<path opacity="0.5" d="M133.905 93.4648H133.812V95.2356H133.905V93.4648Z" fill="#58555D"/>
<path opacity="0.5" d="M133.083 92.8984H132.989V95.3747H133.083V92.8984Z" fill="#58555D"/>
<defs>
<linearGradient id="paint0_linear_1367_13825" x1="111.102" y1="163.126" x2="111.102" y2="42.6923" gradientUnits="userSpaceOnUse">
<stop stop-color="#808080" stop-opacity="0.25"/>
<stop offset="0.54" stop-color="#808080" stop-opacity="0.12"/>
<stop offset="1" stop-color="#808080" stop-opacity="0.1"/>
</linearGradient>
<linearGradient id="paint1_linear_1367_13825" x1="17418.1" y1="-101751" x2="11900.6" y2="-109596" gradientUnits="userSpaceOnUse">
<stop stop-color="#808080" stop-opacity="0.25"/>
<stop offset="0.54" stop-color="#808080" stop-opacity="0.12"/>
<stop offset="1" stop-color="#808080" stop-opacity="0.1"/>
</linearGradient>
<linearGradient id="paint2_linear_1367_13825" x1="2549.34" y1="-14746.2" x2="2450.87" y2="-14886.3" gradientUnits="userSpaceOnUse">
<stop stop-color="#808080" stop-opacity="0.25"/>
<stop offset="0.54" stop-color="#808080" stop-opacity="0.12"/>
<stop offset="1" stop-color="#808080" stop-opacity="0.1"/>
</linearGradient>
<linearGradient id="paint3_linear_1367_13825" x1="2976.23" y1="-14512.6" x2="2877.73" y2="-14652.7" gradientUnits="userSpaceOnUse">
<stop stop-color="#808080" stop-opacity="0.25"/>
<stop offset="0.54" stop-color="#808080" stop-opacity="0.12"/>
<stop offset="1" stop-color="#808080" stop-opacity="0.1"/>
</linearGradient>
<linearGradient id="paint4_linear_1367_13825" x1="2326.89" y1="-14254.7" x2="2228.39" y2="-14394.7" gradientUnits="userSpaceOnUse">
<stop stop-color="#808080" stop-opacity="0.25"/>
<stop offset="0.54" stop-color="#808080" stop-opacity="0.12"/>
<stop offset="1" stop-color="#808080" stop-opacity="0.1"/>
</linearGradient>
<linearGradient id="paint5_linear_1367_13825" x1="2729.98" y1="-14003.6" x2="2631.47" y2="-14143.7" gradientUnits="userSpaceOnUse">
<stop stop-color="#808080" stop-opacity="0.25"/>
<stop offset="0.54" stop-color="#808080" stop-opacity="0.12"/>
<stop offset="1" stop-color="#808080" stop-opacity="0.1"/>
</linearGradient>
<linearGradient id="paint6_linear_1367_13825" x1="12737" y1="10723.5" x2="12737" y2="6408.69" gradientUnits="userSpaceOnUse">
<stop stop-color="#808080" stop-opacity="0.25"/>
<stop offset="0.54" stop-color="#808080" stop-opacity="0.12"/>
<stop offset="1" stop-color="#808080" stop-opacity="0.1"/>
</linearGradient>
<linearGradient id="paint7_linear_1367_13825" x1="24360.4" y1="22820" x2="24360.4" y2="10115.1" gradientUnits="userSpaceOnUse">
<stop stop-color="#808080" stop-opacity="0.25"/>
<stop offset="0.54" stop-color="#808080" stop-opacity="0.12"/>
<stop offset="1" stop-color="#808080" stop-opacity="0.1"/>
</linearGradient>
<linearGradient id="paint8_linear_1367_13825" x1="127.184" y1="78.5168" x2="127.184" y2="76.0742" gradientUnits="userSpaceOnUse">
<stop stop-color="white"/>
<stop offset="1"/>
</linearGradient>
<linearGradient id="paint9_linear_1367_13825" x1="22315.8" y1="-14572.1" x2="21655.9" y2="-16539.6" gradientUnits="userSpaceOnUse">
<stop stop-color="#808080" stop-opacity="0.25"/>
<stop offset="0.54" stop-color="#808080" stop-opacity="0.12"/>
<stop offset="1" stop-color="#808080" stop-opacity="0.1"/>
</linearGradient>
<linearGradient id="paint10_linear_1367_13825" x1="35676.4" y1="-25691" x2="33510.4" y2="-32149.5" gradientUnits="userSpaceOnUse">
<stop stop-color="#808080" stop-opacity="0.25"/>
<stop offset="0.54" stop-color="#808080" stop-opacity="0.12"/>
<stop offset="1" stop-color="#808080" stop-opacity="0.1"/>
</linearGradient>
<linearGradient id="paint11_linear_1367_13825" x1="89.5282" y1="121.636" x2="92.1868" y2="2.30578" gradientUnits="userSpaceOnUse">
<stop stop-color="#808080" stop-opacity="0.25"/>
<stop offset="0.54" stop-color="#808080" stop-opacity="0.12"/>
<stop offset="1" stop-color="#808080" stop-opacity="0.1"/>
</linearGradient>
</defs>
</svg>
