<svg width="19" height="23" viewBox="0 0 19 23" fill="none" xmlns="http://www.w3.org/2000/svg">
<path d="M1.90003 15.3863H17.1V2.82242H1.90003V15.3863ZM10.45 17.6706V19.9549H14.25V22.2393H4.75003V19.9549H8.55002V17.6706H0.942437C0.817689 17.6697 0.694314 17.6392 0.579383 17.5809C0.464453 17.5226 0.360227 17.4375 0.27268 17.3307C0.185132 17.2238 0.115984 17.0973 0.0691992 16.9582C0.022414 16.8192 -0.00108852 16.6704 3.87086e-05 16.5204V1.68825C3.87086e-05 1.0532 0.432288 0.538086 0.942437 0.538086H18.0576C18.5782 0.538086 19 1.05092 19 1.68825V16.5204C19 17.1555 18.5678 17.6706 18.0576 17.6706H10.45Z" fill="#3F4350"/>
<path d="M8.14248 8.80604L6.33296 6.73926L4.52344 8.80604" stroke="#3F4350" stroke-linecap="round" stroke-linejoin="round"/>
<path d="M14.476 8.80408L12.6665 6.7373L10.8569 8.80408" stroke="#3F4350" stroke-linecap="round" stroke-linejoin="round"/>
</svg>
