<svg width="22" height="18" viewBox="0 0 22 18" fill="none" xmlns="http://www.w3.org/2000/svg">
<path d="M20.244 2.04667L22 0.367717V0H15.9185L11.5844 10.7864L6.65443 0H0.277865V0.367717L2.32891 2.83627C2.52943 3.0187 2.63255 3.28665 2.60677 3.5546V13.2549C2.66979 13.6055 2.55807 13.9618 2.31172 14.2155L0 17.0176V17.3796H6.54844V17.0119L4.23958 14.2184C4.11588 14.0934 4.02283 13.9417 3.96767 13.7751C3.91252 13.6085 3.89676 13.4314 3.92161 13.2578V4.86583L9.67083 17.3853H10.3383L15.2826 4.86583V14.8398C15.2826 15.102 15.2826 15.1562 15.1107 15.3301L13.3318 17.0489V17.4167H21.9599V17.0489L20.244 15.37C20.0951 15.256 20.0177 15.065 20.0492 14.8797V2.53696C20.0344 2.44536 20.0446 2.35147 20.0789 2.26519C20.1132 2.17891 20.1702 2.10342 20.244 2.04667Z" fill="#2C3235"/>
</svg>
