<svg width="247" height="200" viewBox="0 0 247 200" fill="none" xmlns="http://www.w3.org/2000/svg">
<g clip-path="url(#clip0_1367_14030)">
<path d="M162.506 111.976C157.296 115.109 148.013 119.036 138.528 115.001L132.396 112.392L144.684 98.5779C134.878 87.7353 129.454 73.6172 129.469 58.9794C129.484 44.3416 134.937 30.2346 144.764 19.4121C154.592 8.58962 168.088 1.82831 182.618 0.447945C197.149 -0.932423 211.67 3.16722 223.349 11.9467C235.028 20.7261 243.025 33.5552 245.78 47.9299C248.536 62.3045 245.851 77.193 238.25 89.6892C230.649 102.185 218.677 111.393 204.672 115.513C190.667 119.634 175.634 118.373 162.506 111.976V111.976ZM138.963 58.9464C138.936 65.6941 140.301 72.3744 142.973 78.5672C145.646 84.76 149.567 90.3313 154.49 94.9306L157.879 98.1249L150.147 106.817C154.174 105.998 157.682 103.813 159.461 102.544L161.902 100.802L164.526 102.249C171.782 106.233 179.921 108.321 188.193 108.32C215.339 108.32 237.424 86.171 237.424 58.9464C237.424 31.7219 215.339 9.57302 188.193 9.57302C161.048 9.57302 138.963 31.7219 138.963 58.9464V58.9464Z" fill="#3F3D56"/>
<path d="M134.19 58.9474C134.19 29.0355 158.369 4.78711 188.194 4.78711C218.019 4.78711 242.197 29.0355 242.197 58.9474C242.197 88.8593 218.019 113.108 188.194 113.108C179.117 113.121 170.184 110.829 162.229 106.445C158.495 109.109 149.389 114.422 140.392 110.595L151.222 98.4201C145.838 93.3615 141.549 87.2475 138.619 80.4574C135.689 73.6673 134.182 66.3459 134.19 58.9474Z" fill="#FFD15C"/>
<path opacity="0.1" d="M232.997 59.0645C232.997 30.7661 211.356 7.54097 183.767 5.11726C185.34 4.97907 186.931 4.9043 188.54 4.9043C218.365 4.9043 242.543 29.1527 242.543 59.0645C242.543 88.9764 218.365 113.225 188.54 113.225C186.933 113.225 185.345 113.149 183.774 113.011C211.36 110.584 232.997 87.3603 232.997 59.0645Z" fill="black"/>
<path d="M63.7485 187.217C50.2548 187.223 37.1689 182.578 26.6838 174.06C16.1988 165.541 8.95183 153.667 6.15742 140.428C3.36301 127.188 5.19099 113.387 11.335 101.339C17.479 89.2899 27.5657 79.7252 39.9046 74.2474C52.2435 68.7697 66.0849 67.7118 79.109 71.2511C92.1331 74.7904 103.548 82.7118 111.442 93.6876C119.336 104.664 123.228 118.027 122.466 131.538C121.704 145.05 116.335 157.888 107.258 167.902L119.546 181.716L113.414 184.324C103.928 188.359 94.6459 184.433 89.436 181.299C81.429 185.192 72.6467 187.215 63.7485 187.217ZM63.7485 78.8966C36.6029 78.8966 14.5182 101.045 14.5182 128.27C14.5182 155.495 36.6029 177.643 63.7485 177.643C72.0205 177.644 80.1596 175.556 87.4153 171.572L90.0402 170.126L92.4808 171.867C94.2595 173.136 97.7673 175.321 101.795 176.141L94.0628 167.448L97.4521 164.254C102.375 159.655 106.296 154.084 108.968 147.891C111.64 141.698 113.006 135.018 112.979 128.27C112.979 101.045 90.8941 78.8966 63.7485 78.8966Z" fill="#3F3D56"/>
<path d="M117.752 128.27C117.752 98.3577 93.5736 74.1094 63.7484 74.1094C33.9232 74.1094 9.74512 98.3577 9.74512 128.27C9.74512 158.182 33.9232 182.43 63.7484 182.43C72.8256 182.443 81.7583 180.151 89.7137 175.767C93.4467 178.431 102.553 183.744 111.55 179.917L100.721 167.742C106.104 162.684 110.393 156.57 113.323 149.78C116.253 142.99 117.76 135.668 117.752 128.27Z" fill="#FFD15C"/>
<path opacity="0.1" d="M19.2912 127.996C19.2912 99.6978 40.9324 76.4726 68.5214 74.0489C66.9484 73.9107 65.3572 73.8359 63.7484 73.8359C33.9232 73.8359 9.74512 98.0843 9.74512 127.996C9.74512 157.908 33.9232 182.156 63.7484 182.156C65.3548 182.156 66.9432 182.081 68.5139 181.943C40.9285 179.516 19.2912 156.292 19.2912 127.996Z" fill="black"/>
<path d="M200.871 41.7404C197.338 35.7528 190.347 35.4738 190.347 35.4738C190.347 35.4738 183.536 34.6001 179.166 43.7194C175.093 52.2192 169.472 60.426 178.261 62.4158L179.849 57.4602L180.832 62.7847C182.083 62.875 183.339 62.8965 184.592 62.8492C194.005 62.5444 202.969 62.9383 202.68 59.5509C202.296 55.0478 204.271 47.5017 200.871 41.7404Z" fill="#2F2E41"/>
<path d="M177.759 94.1771C177.656 94.8357 177.505 95.486 177.309 96.1231C177.087 96.7466 176.746 97.3233 176.544 97.9532C175.9 99.9613 176.793 102.2 178.22 103.75C179.457 105.089 181.054 106.04 182.818 106.489C184.117 106.768 185.442 106.907 186.77 106.905C190.443 107.03 194.211 107.142 197.692 105.958C198.791 105.575 199.853 105.091 200.864 104.513C201.184 104.36 201.465 104.138 201.688 103.862C201.921 103.459 202.025 102.993 201.985 102.529C201.977 100.967 201.661 99.4133 201.736 97.8534C201.778 96.9894 201.939 96.1261 201.86 95.2648C201.75 94.2865 201.341 93.3662 200.69 92.6298C200.038 91.8935 199.176 91.377 198.221 91.1511C197.233 90.9384 196.209 91.0543 195.204 91.1512C192.595 91.4027 189.974 91.5202 187.353 91.5033C184.675 91.4862 182.013 91.0761 179.348 91.0333C178.56 91.0207 178.576 91.2643 178.325 92.0293C178.094 92.7333 177.905 93.4505 177.759 94.1771Z" fill="#2F2E41"/>
<path d="M185.36 55.6153C185.231 56.2912 185.092 56.9918 184.687 57.5472C184.221 58.1862 183.462 58.5513 182.96 59.1629C182.206 60.0834 182.162 61.3787 182.159 62.5703C182.157 63.6681 182.179 64.8389 182.789 65.7501C183.224 66.3161 183.763 66.7929 184.377 67.1542C186.666 68.7013 189.14 70.2762 191.9 70.3272C193.043 70.3483 194.269 70.0522 195.022 69.1883C195.346 68.7826 195.602 68.3255 195.777 67.8358C196.483 66.0912 196.911 64.2462 197.045 62.3683C197.147 61.4855 197.065 60.5912 196.804 59.7419C196.469 58.8044 195.791 58.033 195.343 57.1441C194.813 56.0872 194.619 54.8928 194.788 53.722C194.81 53.6395 194.803 53.5519 194.768 53.474C194.731 53.4323 194.685 53.3997 194.634 53.3787C194.582 53.3578 194.527 53.3491 194.471 53.3533L188.999 52.9582C188.489 52.9328 187.982 52.8746 187.48 52.7839C187.185 52.7237 186.405 52.3036 186.124 52.4153C185.603 52.6221 185.467 55.0549 185.36 55.6153Z" fill="#A0616A"/>
<path opacity="0.1" d="M185.36 55.7872C185.231 56.463 185.092 57.1636 184.687 57.719C184.221 58.3581 183.462 58.7232 182.96 59.3347C182.206 60.2553 182.162 61.5506 182.159 62.7422C182.157 63.8399 182.179 65.0108 182.789 65.9219C183.224 66.488 183.763 66.9647 184.377 67.3261C186.666 68.8732 189.14 70.448 191.9 70.4991C193.043 70.5202 194.269 70.224 195.022 69.3602C195.346 68.9544 195.602 68.4974 195.777 68.0077C196.483 66.2631 196.911 64.4181 197.045 62.5402C197.147 61.6574 197.065 60.763 196.804 59.9137C196.469 58.9762 195.791 58.2048 195.343 57.316C194.813 56.259 194.619 55.0646 194.788 53.8938C194.81 53.8114 194.803 53.7238 194.768 53.6458C194.731 53.6041 194.685 53.5715 194.634 53.5506C194.582 53.5297 194.527 53.521 194.471 53.5252L188.999 53.1301C188.489 53.1047 187.982 53.0465 187.48 52.9558C187.185 52.8956 186.405 52.4754 186.124 52.5872C185.603 52.794 185.467 55.2267 185.36 55.7872Z" fill="black"/>
<path d="M190.593 56.3518C195.027 56.3518 198.622 52.7469 198.622 48.2999C198.622 43.853 195.027 40.248 190.593 40.248C186.159 40.248 182.564 43.853 182.564 48.2999C182.564 52.7469 186.159 56.3518 190.593 56.3518Z" fill="#A0616A"/>
<path d="M186.486 66.3342C186.883 66.7948 187.361 67.178 187.896 67.4643C188.454 67.6957 189.054 67.8101 189.658 67.8007C191.105 67.8415 192.674 67.5756 193.681 66.5321C194.978 65.187 194.936 63.0175 195.953 61.4482C196.035 61.306 196.147 61.1833 196.281 61.0887C196.451 60.9955 196.644 60.9511 196.838 60.9601C198.123 60.9481 199.242 61.7837 200.252 62.5801C200.727 62.9082 201.135 63.325 201.454 63.8077C201.653 64.1985 201.79 64.6186 201.859 65.0523C202.36 67.5061 202.522 70.015 202.684 72.5145C202.773 73.8951 202.862 75.2771 202.855 76.6605C202.833 81.2185 201.777 85.7002 200.726 90.1348C200.591 90.7062 200.406 91.3449 199.888 91.6186C199.657 91.7227 199.409 91.7834 199.156 91.7977C196.147 92.1521 193.132 92.5069 190.103 92.5537C188.921 92.5719 187.739 92.5432 186.558 92.4676C186.355 92.4649 186.154 92.4297 185.961 92.3632C185.7 92.2376 185.476 92.0466 185.31 91.8088C183.672 89.7381 183.575 86.8754 183.586 84.2319C183.611 77.769 183.841 71.3112 184.276 64.8586C184.312 64.326 184.32 63.6792 183.937 63.2602C184.682 64.3676 185.536 65.3974 186.486 66.3342Z" fill="white"/>
<path d="M184.785 57.038C184.514 57.5302 182.515 58.7527 182.129 59.1607C179.973 61.4402 176.037 61.3547 174.065 63.7963C173.371 64.6553 173.01 65.7347 172.745 66.8078C172.37 68.3255 172.17 69.9806 172.798 71.4117C173.403 72.7887 174.675 73.7406 175.539 74.9707C176.488 76.3212 176.914 77.961 177.323 79.5613C177.625 80.7429 177.929 81.9537 177.811 83.1678C177.678 84.5481 177.012 85.812 176.618 87.1415C176.225 88.4711 176.157 90.0546 177.067 91.0995C177.735 91.8671 178.782 92.1714 179.784 92.3426C181.066 92.5359 182.36 92.6488 183.656 92.6807C184.801 92.7315 186.063 92.7413 186.943 92.0053C187.638 91.4245 187.939 90.4821 187.979 89.5761C188.018 88.6702 187.83 87.7722 187.712 86.8732C187.59 85.9411 187.543 85.0009 187.504 84.0617C187.328 79.8476 187.304 75.6307 187.432 71.4111C187.496 70.5342 187.453 69.6525 187.304 68.786C187.058 67.6573 186.45 66.6485 185.943 65.6114C184.928 63.658 184.469 61.4626 184.615 59.2651C184.768 57.0067 185.75 55.2862 184.785 57.038Z" fill="white"/>
<path d="M196.059 57.2077C196.472 57.6334 197.876 57.7738 198.401 58.048C198.895 58.2769 199.411 58.456 199.94 58.5825C201.857 59.137 203.68 59.9761 205.348 61.0719C205.695 61.2753 206.002 61.5409 206.253 61.8553C206.517 62.2869 206.688 62.7698 206.753 63.2722C207.01 64.5502 207.269 65.8437 207.211 67.1462C207.15 68.5288 206.735 69.8679 206.323 71.1888L204.783 76.1243C203.634 79.8083 202.478 83.5286 202.155 87.375C201.976 89.5068 202.055 91.6524 202.391 93.765C202.423 93.8678 202.433 93.9761 202.419 94.0828C202.406 94.1896 202.37 94.2922 202.314 94.3839C202.212 94.4845 202.079 94.546 201.937 94.5579C201.194 94.6744 200.475 94.2945 199.802 93.9583C197.744 92.9315 195.549 92.2109 193.284 91.8195C194.169 90.5368 194.852 89.1252 195.309 87.6342C195.568 86.6875 195.772 85.7264 195.92 84.7559L196.636 80.6023C196.928 79.0841 197.133 77.5506 197.251 76.0091C197.305 75.4306 197.271 74.8472 197.151 74.2788C196.986 73.7379 196.767 73.2151 196.497 72.7184C195.317 70.2565 194.763 67.447 195.227 64.7554C195.431 63.5774 195.825 62.3979 195.661 61.2139C195.502 60.0756 195.667 59.1909 195.376 58.0643C194.18 53.4387 195.282 56.4068 196.059 57.2077Z" fill="white"/>
<path d="M174.044 67.6882C173.506 68.8079 172.606 69.7618 172.3 70.9661C172.181 71.529 172.13 72.1043 172.148 72.6794C172.095 73.5462 172.181 74.4159 172.402 75.2555C172.572 75.7867 172.85 76.2765 173.051 76.7972C173.33 77.5246 173.454 78.3026 173.416 79.0811C173.362 80.1596 172.996 81.2065 172.968 82.286C172.923 83.9837 173.706 85.5796 174.47 87.0952C174.662 86.6176 174.956 86.1879 175.331 85.8362C175.706 85.4845 176.154 85.2193 176.642 85.059C177.13 84.8988 177.647 84.8474 178.157 84.9085C178.667 84.9696 179.157 85.1417 179.594 85.4128C179.769 85.1973 179.852 84.9212 179.825 84.6446C179.881 82.6751 179.936 80.7055 179.988 78.7359C180.071 75.6897 180.149 72.6029 179.451 69.6373C179.135 68.2983 178.644 66.9645 177.745 65.9259C177.271 65.3791 175.662 63.9386 174.884 64.5513C174.535 64.8267 174.616 65.5767 174.561 65.9564C174.477 66.5567 174.303 67.1407 174.044 67.6882Z" fill="white"/>
<path d="M207.369 64.4608C207.585 65.2682 207.678 66.1039 207.643 66.9393C207.654 68.6419 207.631 70.3442 207.576 72.0464C207.584 72.9194 207.473 73.7894 207.245 74.632C207.071 75.1799 206.803 75.6938 206.624 76.2399C206.086 77.8765 206.38 79.6515 206.426 81.374C206.459 81.9316 206.411 82.4909 206.285 83.0349C206.001 84.1027 205.239 84.9656 204.706 85.9332C204.201 86.8522 203.896 87.8823 203.292 88.7395C202.688 89.5968 201.643 90.2761 200.63 90.0129C199.862 89.8135 199.317 89.1321 198.94 88.4326C198.117 86.8947 197.835 85.1232 198.141 83.4048C198.519 81.3141 199.744 79.4594 200.186 77.3812C200.792 74.5273 199.87 71.5823 199.898 68.6645C199.885 68.2071 199.947 67.7507 200.081 67.3133C200.313 66.6468 200.81 66.1145 201.27 65.58C201.844 64.912 202.377 64.2098 202.867 63.4772C203.196 62.9851 203.643 61.7194 204.226 61.6141C205.529 61.3791 207.046 63.4517 207.369 64.4608Z" fill="white"/>
<path d="M167.286 92.9077C166.566 92.7262 165.824 92.647 165.082 92.6727C164.302 92.7159 163.541 92.9251 162.848 93.2864C162.155 93.6477 161.546 94.1528 161.063 94.7681C160.58 95.3834 160.233 96.0949 160.045 96.8551C159.857 97.6153 159.833 98.407 159.974 99.1773C160.154 100.012 160.448 100.817 160.848 101.571C161.432 102.761 162.133 103.948 163.216 104.711C163.868 105.13 164.57 105.465 165.305 105.708L171.005 107.862C171.844 108.179 172.683 108.496 173.529 108.789C177.784 110.264 182.22 111.148 186.713 111.418C188.08 111.546 189.459 111.476 190.806 111.21C191.132 111.167 191.43 111.005 191.645 110.756C191.753 110.566 191.817 110.354 191.832 110.135L192.183 107.672C192.261 107.33 192.251 106.972 192.153 106.634C191.992 106.22 191.589 105.96 191.205 105.739C187.458 103.58 183.082 102.389 179.928 99.4269C179.186 98.7294 178.564 97.6239 177.662 97.1502C176.639 96.6129 175.434 96.3063 174.377 95.8113C172.065 94.729 169.792 93.4853 167.286 92.9077Z" fill="#2F2E41"/>
<path opacity="0.1" d="M172.977 96.228C174.992 96.8612 183.498 101.248 184.956 102.779C184.761 102.85 178.13 99.123 177.931 99.0631C176.107 98.5608 174.321 97.9295 172.586 97.1742C172.241 97.0139 170.342 96.2606 170.428 95.8234C170.525 95.33 172.62 96.1156 172.977 96.228Z" fill="black"/>
<path d="M198.112 112.696C198.226 112.704 198.34 112.671 198.431 112.601C198.472 112.55 198.501 112.491 198.518 112.427C198.535 112.364 198.54 112.298 198.531 112.233L198.522 108.878C197.56 108.418 196.484 108.271 195.428 108.129L190.5 107.469C190.613 107.484 189.729 109.597 189.865 109.88C190.104 110.377 191.929 110.818 192.444 111.052C194.235 111.869 196.095 112.766 198.112 112.696Z" fill="#A0616A"/>
<path d="M182.65 108.865C181.72 109.013 180.681 109.145 180.079 109.871C179.315 110.792 179.64 112.165 180.004 113.307C180.027 113.454 180.078 113.595 180.156 113.722C180.233 113.849 180.336 113.959 180.456 114.046C180.577 114.133 180.714 114.194 180.859 114.227C181.004 114.259 181.154 114.263 181.3 114.236C182.149 114.29 183.052 114.332 183.793 113.915C184.129 113.692 184.452 113.451 184.762 113.193C185.308 112.828 185.909 112.552 186.542 112.376C187.705 112.009 188.903 111.762 190.116 111.638C190.594 111.616 191.067 111.532 191.524 111.389C191.752 111.315 191.96 111.19 192.132 111.022C192.304 110.855 192.435 110.65 192.516 110.423C192.687 109.814 192.334 109.192 191.995 108.657C191.605 107.957 191.098 107.329 190.496 106.8C189.578 106.084 189.124 106.633 188.199 107.091C186.448 107.958 184.578 108.556 182.65 108.865Z" fill="#A0616A"/>
<path d="M180.219 109.706L174.311 107.955C173.602 107.707 172.862 107.564 172.112 107.528C171.737 107.512 171.363 107.577 171.015 107.718C170.666 107.86 170.352 108.074 170.093 108.347C169.635 108.886 169.504 109.623 169.39 110.322L169.145 111.817C168.983 112.571 168.936 113.346 169.009 114.114C169.048 114.498 169.174 114.868 169.378 115.196C169.581 115.524 169.856 115.801 170.182 116.006C171 116.453 172.002 116.235 172.914 116.048C174.757 115.67 176.632 115.468 178.513 115.445C179.22 115.437 179.962 115.446 180.587 115.114C180.949 114.898 181.254 114.597 181.474 114.236C181.695 113.876 181.824 113.467 181.85 113.045C181.967 111.767 181.542 110.098 180.219 109.706Z" fill="#2F2E41"/>
<path d="M200.435 108.181C201.201 108.046 201.877 107.609 202.61 107.352C203.643 106.989 204.763 106.989 205.857 106.993C206.26 106.956 206.664 107.037 207.021 107.227C207.503 107.549 207.627 108.193 207.709 108.768L208.203 112.237C208.336 112.884 208.349 113.55 208.244 114.202C208.099 114.845 207.662 115.465 207.026 115.631C206.253 115.832 205.496 115.337 204.766 115.012C202.943 114.2 200.824 114.407 198.923 113.8C198.741 113.763 198.569 113.689 198.419 113.58C198.268 113.472 198.142 113.333 198.048 113.173C197.983 112.98 197.96 112.776 197.98 112.573C198.013 111.458 197.778 109.935 198.113 108.87C198.414 107.911 199.58 108.181 200.435 108.181Z" fill="#2F2E41"/>
<path d="M212.937 91.5121C214.117 91.2152 215.341 91.1314 216.551 91.2645C217.517 91.3712 218.512 91.6409 219.218 92.3115C220.076 93.1279 220.352 94.3903 220.375 95.5766C220.413 97.9394 219.632 100.242 218.165 102.091C217.806 102.559 217.38 102.97 216.901 103.312C216.383 103.636 215.832 103.903 215.256 104.106L202.491 109.156C199.133 110.484 195.763 111.817 192.26 112.692C192.164 112.739 192.06 112.765 191.954 112.771C191.848 112.776 191.742 112.76 191.642 112.724C191.542 112.688 191.45 112.632 191.372 112.559C191.294 112.487 191.231 112.399 191.187 112.302C190.069 110.7 189.131 108.979 188.39 107.17C188.354 107.127 188.33 107.076 188.319 107.021C188.307 106.967 188.309 106.911 188.324 106.857C188.339 106.804 188.367 106.755 188.405 106.714C188.443 106.673 188.49 106.643 188.542 106.624L197.571 101.421C198.233 101.075 198.85 100.649 199.408 100.152C199.799 99.7723 200.118 99.3262 200.352 98.8342C200.539 98.4422 200.557 97.517 200.796 97.2272C201.03 96.9435 201.83 96.9209 202.2 96.8093C202.722 96.6491 203.232 96.4555 203.729 96.2296C205.749 95.3234 207.547 94.0068 209.483 92.9458C210.569 92.3231 211.73 91.8414 212.937 91.5121Z" fill="#2F2E41"/>
<path opacity="0.1" d="M207.818 95.3959C206.267 96.5643 204.259 97.6384 202.721 98.8376C202.197 99.2468 193.45 104.179 193.326 104.834C194.76 105.076 203.897 98.6657 205.204 98.0261C206.512 97.3864 207.67 96.4844 208.819 95.589C209.111 95.3608 210.351 94.6749 209.511 94.4199C209.038 94.2763 208.168 95.1623 207.818 95.3959Z" fill="black"/>
<path d="M197.145 57.3223H183.529C182.976 57.3223 182.445 57.5427 182.054 57.935C181.663 58.3273 181.443 58.8594 181.443 59.4142V60.1802H181.295V61.8934H181.443V63.0926H181.295V64.1205H181.443V76.7613C181.443 77.3161 181.663 77.8482 182.054 78.2405C182.445 78.6328 182.976 78.8532 183.529 78.8532H197.145C197.698 78.8532 198.229 78.6328 198.62 78.2405C199.011 77.8482 199.231 77.3161 199.231 76.7613V59.4142C199.231 58.8594 199.011 58.3273 198.62 57.935C198.229 57.5427 197.698 57.3223 197.145 57.3223Z" fill="#D0CDE1"/>
<path d="M199.309 41.1633L192.403 37.5352L182.866 39.0194L180.893 47.7598L185.804 47.5701L187.177 44.3592V47.5174L189.443 47.43L190.758 42.3175L191.581 47.7598L199.638 47.5948L199.309 41.1633Z" fill="#2F2E41"/>
<path d="M175.851 90.3786C176.163 90.9113 176.607 91.3542 177.14 91.6648C177.489 91.8249 177.871 91.9028 178.255 91.8924C178.639 91.8821 179.016 91.7839 179.356 91.6053C180.036 91.2397 180.592 90.68 180.955 89.9972C181.706 88.6679 181.861 87.0774 181.768 85.5527C181.674 84.028 181.349 82.5266 181.206 81.0058C181.101 79.9003 181.093 78.7882 181.084 77.6778C181.058 77.4443 181.107 77.2086 181.224 77.0048C181.424 76.8046 181.684 76.6746 181.964 76.634C183.479 76.1826 184.484 74.7586 185.205 73.3483C185.687 72.4065 186.105 71.3771 186.012 70.3229C185.92 69.2688 185.164 68.2068 184.114 68.0993C183.249 68.0106 182.45 68.5619 181.825 69.1695C180.251 70.7119 179.239 72.7404 178.952 74.9292C178.815 76.0011 178.854 77.1021 178.563 78.1426C177.943 80.3644 176.001 81.7265 175.033 83.7257C173.967 85.9286 174.555 88.4295 175.851 90.3786Z" fill="#A0616A"/>
<path d="M204.428 81.8911C204.207 82.4063 203.885 82.872 203.482 83.2606C203.079 83.6492 202.602 83.9528 202.08 84.1536C201.431 84.415 200.715 84.459 200.039 84.2789C199.704 84.1857 199.394 84.0161 199.135 83.7835C198.876 83.5509 198.673 83.2615 198.544 82.9377C198.44 82.6116 198.384 82.2724 198.375 81.9302C198.278 80.432 198.316 78.8881 198.858 77.4887C199.068 76.949 199.35 76.4372 199.515 75.8823C199.677 75.2414 199.76 74.5829 199.762 73.9217L199.941 69.8337C199.97 69.5369 199.95 69.2373 199.88 68.9473C199.702 68.3558 199.151 67.9714 198.645 67.6186C197.424 66.7667 196.217 65.7726 195.625 64.4036C195.421 63.9915 195.349 63.5268 195.416 63.0719C195.583 62.2602 196.4 61.7346 197.207 61.5576C197.735 61.4417 198.282 61.4343 198.813 61.5358C199.344 61.6373 199.849 61.8456 200.298 62.1482C200.747 62.4507 201.13 62.8412 201.424 63.2962C201.718 63.7511 201.918 64.2611 202.01 64.7955C202.09 65.2568 202.089 65.728 202.136 66.1939C202.235 67.1822 202.548 68.1348 202.744 69.1085C203.226 71.5069 202.976 73.9861 203.452 76.3841C203.851 78.389 205.354 79.6973 204.428 81.8911Z" fill="#A0616A"/>
<path d="M190.519 66.5181C191.462 66.5181 192.227 65.7511 192.227 64.805C192.227 63.8588 191.462 63.0918 190.519 63.0918C189.575 63.0918 188.811 63.8588 188.811 64.805C188.811 65.7511 189.575 66.5181 190.519 66.5181Z" fill="#FFD15C"/>
<path d="M5.03997 126.377C7.82292 126.377 10.079 124.114 10.079 121.323C10.079 118.532 7.82292 116.27 5.03997 116.27C2.25701 116.27 0.000976562 118.532 0.000976562 121.323C0.000976562 124.114 2.25701 126.377 5.03997 126.377Z" fill="#2F2E41"/>
<path d="M23.3045 136.326L20.7665 133.852L15.6699 135.439L16.1594 141.358L26.6386 140.869L23.4194 136.482L23.3045 136.326Z" fill="#FBBEBE"/>
<path d="M17.7541 136.274C22.2534 136.274 25.9008 132.616 25.9008 128.104C25.9008 123.592 22.2534 119.934 17.7541 119.934C13.2548 119.934 9.60742 123.592 9.60742 128.104C9.60742 132.616 13.2548 136.274 17.7541 136.274Z" fill="#FBBEBE"/>
<path d="M68.3286 146.812C68.3286 146.812 78.3369 164.062 80.7188 166.652C81.8515 167.926 83.0583 169.132 84.3329 170.264C84.3329 170.264 83.2129 173.989 81.4295 173.856C80.413 173.795 79.4162 173.548 78.4877 173.129C78.4877 173.129 77.6917 171.06 76.3033 170.152C74.9148 169.245 63.5715 158.053 63.8366 154.475C64.1017 150.898 68.3286 146.812 68.3286 146.812Z" fill="#2F2E41"/>
<path d="M32.6865 171.427C32.6865 171.427 43.3577 179.734 57.8601 171.929L59.1099 171.006C59.1099 171.006 57.0007 175.765 56.805 177.055C56.5781 178.551 51.0869 187.314 50.1909 187.734C49.2948 188.153 49.0973 188.541 49.0973 188.541L52.9 192.738L54.306 191.701C54.306 191.701 59.7884 183.911 61.3919 182.486C62.9954 181.061 70.6353 166.365 70.6353 166.365C70.6353 166.365 73.5562 160.827 66.2664 160.411C58.9767 159.994 55.6223 161.987 55.6223 161.987L42.6848 164.048L32.6865 171.427Z" fill="#2F2E41"/>
<path d="M84.4566 169.447L89.8541 173.193C89.8541 173.193 96.74 175.356 92.4983 176.796C88.2566 178.236 77.0789 178.757 76.8253 176.77C76.5717 174.784 77.2662 171.657 77.8238 171.828C78.3815 171.999 82.2519 173.007 84.4566 169.447Z" fill="#2F2E41"/>
<path d="M54.7835 190.415L55.7825 195.917C55.7825 195.917 58.6231 201.365 55.2124 199.675C51.8017 197.984 44.7748 191.563 45.8125 190.217C46.8501 188.87 49.1403 187.41 49.3729 187.849C49.6055 188.288 51.3268 191.225 54.7835 190.415Z" fill="#2F2E41"/>
<path d="M44.4918 165.856C44.4918 165.856 37.2379 174.35 32.8339 172.286C28.4299 170.223 10.4123 146.325 12.4696 141.909C14.5269 137.492 15.2167 138.432 15.2167 138.432L24.5198 139.295L21.843 134.99C21.843 134.99 23.0928 134.068 24.2838 135.363C25.4747 136.658 30.2561 139.891 31.9218 144.459C33.5874 149.026 38.4777 148.798 38.4777 148.798L44.4918 165.856Z" fill="white"/>
<path d="M73.785 148.341L61.2106 161.728L49.9463 141.782L60.6548 128.807L73.785 148.341Z" fill="#3F3D56"/>
<path d="M72.836 148.195L61.4789 159.959L51.1875 141.831L60.6256 129.914L72.836 148.195Z" fill="white"/>
<path d="M60.5946 161.217L61.2106 161.728L60.8156 162.503L43.2326 167.751L43.0664 167.147L43.8663 166.317L60.5946 161.217Z" fill="#B3B3B3"/>
<path d="M61.3674 161.612L43.1597 167.321L32.0605 146.287L49.9469 141.781L61.3674 161.612Z" fill="#D0CDE1"/>
<path d="M59.9959 158.759L59.2147 159.335L50.5449 144.238L51.441 143.818L59.9959 158.759Z" fill="#3F3D56"/>
<path d="M58.2036 159.599L50.5014 161.902L41.7578 146.376L49.3776 144.617L58.2036 159.599Z" fill="#3F3D56"/>
<path d="M36.505 148.08L38.0997 147.628C38.0997 147.628 46.9929 146.619 47.1227 149.422C47.2526 152.224 36.906 150.924 36.906 150.924L35.5264 149.044L36.505 148.08Z" fill="#FBBEBE"/>
<path d="M44.3053 160.678L46.5249 159.764C46.5249 159.764 53.2249 156.752 51.3029 154.789C49.3809 152.826 43.4532 156.235 43.4532 156.235L42.3184 157.314L44.3053 160.678Z" fill="#FBBEBE"/>
<path d="M42.3279 156.341C42.3279 156.341 45.942 159.954 45.1196 160.802C44.2973 161.651 30.8119 172.812 27.4691 169.24C24.1262 165.669 7.83917 147.74 14.1767 146.203C20.5142 144.665 22.1887 148.26 22.1887 148.26L30.555 162.615L42.3279 156.341Z" fill="white"/>
<path d="M31.5063 145.369L37.443 147.388L37.3461 151.687L31.0674 151.007L31.5063 145.369Z" fill="white"/>
<path opacity="0.2" d="M36.8566 158.568L30.4603 162.323L23.1523 151.051L30.2066 160.336L36.8566 158.568Z" fill="black"/>
<path d="M14.1779 135.463C19.5342 135.463 23.8763 131.108 23.8763 125.736C23.8763 120.365 19.5342 116.01 14.1779 116.01C8.82162 116.01 4.47949 120.365 4.47949 125.736C4.47949 131.108 8.82162 135.463 14.1779 135.463Z" fill="#2F2E41"/>
<path d="M66.5809 149.189L59.79 139.226L62.6687 135.652L69.7249 145.903L66.5809 149.189Z" fill="#FFD15C"/>
<path d="M66.3892 153.195L56.0508 138.122L56.5607 137.504L66.8507 152.613L66.3892 153.195Z" fill="#E6E6E6"/>
<path d="M65.0571 154.662L54.7188 139.589L55.2287 138.971L65.5187 154.08L65.0571 154.662Z" fill="#E6E6E6"/>
<path d="M63.9223 155.74L53.584 140.667L54.0939 140.049L64.3839 155.158L63.9223 155.74Z" fill="#E6E6E6"/>
<path d="M18.4727 119.242H21.4729C22.9919 119.242 24.4488 119.847 25.5229 120.925C26.597 122.002 27.2005 123.463 27.2005 124.986H18.4727V119.242Z" fill="#2F2E41"/>
<path d="M59.8001 115.587L59.2562 115.547C59.2351 115.83 59.22 116.116 59.2021 116.4L56.7607 116.318L59.3216 121.131L62.1977 116.501L59.7474 116.419C59.7649 116.142 59.7796 115.864 59.8001 115.587Z" fill="#3F3D56"/>
<path d="M74.1191 76.3566L74.5528 76.6886C75.2032 75.8342 75.8825 74.9813 76.572 74.1535L76.1533 73.8027C75.4588 74.6367 74.7744 75.4959 74.1191 76.3566Z" fill="#3F3D56"/>
<path d="M78.2979 71.3423L78.7006 71.7112C79.4242 70.9164 80.1756 70.127 80.9335 69.3648L80.5473 68.9785C79.7837 69.7462 79.0269 70.5416 78.2979 71.3423Z" fill="#3F3D56"/>
<path d="M82.8984 66.7161L83.2673 67.1192C84.0588 66.3904 84.876 65.6704 85.6961 64.9794L85.3453 64.5605C84.519 65.2567 83.6958 65.982 82.8984 66.7161Z" fill="#3F3D56"/>
<path d="M70.3965 81.7251L70.8575 82.0173C71.4309 81.1076 72.0329 80.1977 72.6469 79.3125L72.1992 79C71.5806 79.8918 70.9741 80.8086 70.3965 81.7251Z" fill="#3F3D56"/>
<path d="M87.8838 62.515L88.2159 62.9489C89.0683 62.2925 89.9451 61.6477 90.822 61.0322L90.5093 60.584C89.6257 61.2041 88.7424 61.8538 87.8838 62.515Z" fill="#3F3D56"/>
<path d="M67.1592 87.4031L67.6442 87.6531C68.1356 86.6947 68.6553 85.7343 69.1887 84.799L68.7151 84.5273C68.1777 85.4698 67.6542 86.4373 67.1592 87.4031Z" fill="#3F3D56"/>
<path d="M61.8979 102.8L61.3697 102.664C61.1002 103.714 60.8506 104.784 60.6279 105.846L61.1617 105.958C61.3828 104.905 61.6305 103.842 61.8979 102.8Z" fill="#3F3D56"/>
<path d="M93.2158 58.7727L93.5085 59.2343C94.4127 58.6573 95.3422 58.0927 96.2715 57.5562L95.9993 57.082C95.0631 57.6227 94.1266 58.1914 93.2158 58.7727Z" fill="#3F3D56"/>
<path d="M60.5668 109.147L60.0285 109.059C59.8533 110.127 59.6995 111.215 59.5713 112.293L60.113 112.358C60.2402 111.288 60.393 110.207 60.5668 109.147Z" fill="#3F3D56"/>
<path d="M64.4365 93.3501L64.9418 93.556C65.3463 92.5576 65.7789 91.5543 66.2278 90.5741L65.7321 90.3457C65.2798 91.3334 64.8439 92.3442 64.4365 93.3501Z" fill="#3F3D56"/>
<path d="M62.252 99.5203L62.7737 99.68C63.0883 98.6477 63.4302 97.6092 63.7899 96.5931L63.2758 96.4102C62.9134 97.4336 62.5689 98.4801 62.252 99.5203Z" fill="#3F3D56"/>
<path d="M130.115 47.8674C131.185 47.8302 132.274 47.8154 133.351 47.8256L133.355 47.2785C132.271 47.2684 131.174 47.2832 130.097 47.3206L130.115 47.8674Z" fill="#3F3D56"/>
<path d="M98.8545 55.5164L99.1054 56.002C100.058 55.5071 101.033 55.0274 102.004 54.5764L101.775 54.0801C100.797 54.5345 99.8142 55.0177 98.8545 55.5164Z" fill="#3F3D56"/>
<path d="M143.023 48.5495C144.088 48.7006 145.161 48.8774 146.215 49.0752L146.316 48.5375C145.254 48.3382 144.172 48.1599 143.1 48.0078L143.023 48.5495Z" fill="#3F3D56"/>
<path d="M149.381 49.7436C150.425 49.9883 151.48 50.2602 152.514 50.5518L152.661 50.025C151.62 49.7313 150.558 49.4575 149.505 49.2109L149.381 49.7436Z" fill="#3F3D56"/>
<path d="M155.607 51.4981C156.626 51.8351 157.652 52.2 158.656 52.5827L158.85 52.0715C157.838 51.6857 156.805 51.318 155.778 50.9785L155.607 51.4981Z" fill="#3F3D56"/>
<path d="M136.585 47.9252C137.659 47.9817 138.745 48.0629 139.811 48.1663L139.864 47.6219C138.789 47.5175 137.696 47.4358 136.614 47.3789L136.585 47.9252Z" fill="#3F3D56"/>
<path d="M123.604 47.8332L123.67 48.3763C124.733 48.2451 125.816 48.1357 126.887 48.0513L126.844 47.5059C125.765 47.5909 124.674 47.7011 123.604 47.8332Z" fill="#3F3D56"/>
<path d="M110.878 50.5686L111.039 51.0911C112.064 50.7728 113.111 50.4734 114.149 50.2011L114.011 49.6719C112.965 49.9461 111.911 50.2478 110.878 50.5686Z" fill="#3F3D56"/>
<path d="M104.754 52.7755L104.961 53.2817C105.953 52.8735 106.966 52.4828 107.972 52.1202L107.788 51.6055C106.774 51.9706 105.753 52.3644 104.754 52.7755Z" fill="#3F3D56"/>
<path d="M117.18 48.9165L117.294 49.4515C118.342 49.2262 119.41 49.0212 120.47 48.8423L120.379 48.3027C119.312 48.483 118.235 48.6895 117.18 48.9165Z" fill="#3F3D56"/>
<path d="M166.795 55.9653L163.746 51.4473L162.674 53.66C162.415 53.5438 162.157 53.4251 161.898 53.3126L161.681 53.8148C161.934 53.9246 162.184 54.0398 162.436 54.1523L161.369 56.3546L166.795 55.9653Z" fill="#3F3D56"/>
</g>
<defs>
<clipPath id="clip0_1367_14030">
<rect width="246.97" height="200" fill="white"/>
</clipPath>
</defs>
</svg>
