<svg width="303" height="200" viewBox="0 0 303 200" fill="none" xmlns="http://www.w3.org/2000/svg">
<g clip-path="url(#clip0_1367_14109)">
<path d="M31.647 56.7676H25.0781V65.3079H31.647V56.7676Z" fill="#3F3D56"/>
<path d="M177.179 176.451H170.61V184.991H177.179V176.451Z" fill="#3F3D56"/>
<path d="M276.679 95.1339V88.5645H268.139V95.1339H276.679Z" fill="#3F3D56"/>
<path d="M254.691 183.928C269.021 183.928 280.638 172.31 280.638 157.979C280.638 143.647 269.021 132.029 254.691 132.029C240.361 132.029 228.744 143.647 228.744 157.979C228.744 172.31 240.361 183.928 254.691 183.928Z" fill="#2F2E41"/>
<path d="M264.713 193.514L272.47 192.11L269.954 175.912L262.197 177.316L264.713 193.514Z" fill="#2F2E41"/>
<path d="M249.2 194.023L256.956 192.619L254.44 178.721L246.684 180.125L249.2 194.023Z" fill="#2F2E41"/>
<path d="M253.317 196.948C256.085 194.603 257.617 191.861 256.738 190.822C255.858 189.784 252.901 190.843 250.133 193.188C247.364 195.533 245.833 198.275 246.712 199.314C247.591 200.352 250.548 199.293 253.317 196.948Z" fill="#2F2E41"/>
<path d="M268.507 196.499C271.276 194.154 272.807 191.411 271.928 190.373C271.049 189.335 268.092 190.394 265.323 192.739C262.555 195.084 261.023 197.826 261.903 198.864C262.782 199.903 265.739 198.843 268.507 196.499Z" fill="#2F2E41"/>
<path d="M252.875 160.501C257.772 160.501 261.743 156.531 261.743 151.632C261.743 146.734 257.772 142.764 252.875 142.764C247.977 142.764 244.007 146.734 244.007 151.632C244.007 156.531 247.977 160.501 252.875 160.501Z" fill="white"/>
<path d="M249.23 151.409C250.863 151.409 252.186 150.085 252.186 148.452C252.186 146.82 250.863 145.496 249.23 145.496C247.598 145.496 246.274 146.82 246.274 148.452C246.274 150.085 247.598 151.409 249.23 151.409Z" fill="#3F3D56"/>
<path d="M275.16 129.749C275.55 120.142 267.271 112.005 256.668 111.574C246.066 111.144 237.154 118.582 236.764 128.189C236.374 137.796 243.744 139.979 254.347 140.41C264.949 140.84 274.77 139.356 275.16 129.749Z" fill="#FFC061"/>
<path d="M243.378 156.15C243.88 153.957 238.626 150.882 231.642 149.281C224.658 147.68 218.589 148.159 218.087 150.352C217.584 152.545 222.838 155.62 229.822 157.221C236.806 158.822 242.875 158.342 243.378 156.15Z" fill="#2F2E41"/>
<path d="M294.311 164.62C294.814 162.428 289.56 159.352 282.576 157.751C275.592 156.15 269.523 156.63 269.02 158.823C268.518 161.015 273.772 164.091 280.756 165.692C287.74 167.293 293.809 166.813 294.311 164.62Z" fill="#2F2E41"/>
<path d="M261.817 168.206C261.956 168.97 261.943 169.754 261.779 170.513C261.615 171.273 261.302 171.992 260.86 172.63C260.418 173.269 259.854 173.814 259.201 174.234C258.548 174.655 257.818 174.942 257.054 175.081C256.29 175.219 255.505 175.206 254.746 175.041C253.987 174.876 253.268 174.563 252.63 174.12C251.992 173.678 251.447 173.113 251.027 172.46C250.607 171.806 250.32 171.077 250.183 170.312C249.601 167.099 252.085 165.962 255.298 165.38C258.511 164.799 261.236 164.993 261.817 168.206Z" fill="white"/>
<path d="M119.832 175.17L118.93 186.897L127.65 187.8L125.545 173.666L119.832 175.17Z" fill="#FFB9B9"/>
<path d="M89.4507 68.3697H89.4507C96.8834 70.6604 100.848 79.2049 98.3063 87.4543L95.0768 97.9354L91.8536 96.942L91.1842 92.4836L90.4541 96.5107L69.7367 90.1259L69.1281 86.0728L68.4644 89.7337L66.1318 89.0149L68.6676 80.7854C71.5927 71.2925 80.8976 65.7337 89.4507 68.3697Z" fill="#2F2E41"/>
<path d="M77.9062 99.8276C77.2343 99.7161 76.5465 99.7464 75.8871 99.9167C75.2276 100.087 74.6111 100.393 74.0772 100.816C73.5433 101.239 73.1038 101.769 72.7869 102.372C72.4701 102.975 72.2829 103.638 72.2375 104.317C72.1079 106.134 72.7351 108.262 75.5517 109.837C81.5678 113.202 94.6141 120.538 94.6141 120.538L119.506 125.319C119.506 125.319 132.085 135.357 133.661 129.648C135.237 123.939 121.725 120.453 121.725 120.453L98.8568 114.587L84.2851 104.047C84.2851 104.047 81.6149 100.482 77.9062 99.8276Z" fill="#FFB9B9"/>
<path d="M69.9502 123.216L72.4519 130.268L87.4637 126.628L83.5969 121.396L69.9502 123.216Z" fill="#FFB9B9"/>
<path d="M29.8059 189.524L18.4336 188.386L26.3943 180.652L32.0806 184.519L29.8059 189.524Z" fill="#FFB9B9"/>
<path d="M86.8217 91.9693C91.9802 91.9693 96.1619 87.7872 96.1619 82.6282C96.1619 77.4693 91.9802 73.2871 86.8217 73.2871C81.6632 73.2871 77.4814 77.4693 77.4814 82.6282C77.4814 87.7872 81.6632 91.9693 86.8217 91.9693Z" fill="#FFB9B9"/>
<path d="M79.5033 84.0918C79.5033 84.0918 74.272 90.2335 71.5426 91.1434C68.8132 92.0533 61.9897 100.697 65.4015 106.384C68.8132 112.071 81.3229 105.019 81.3229 105.019L80.868 99.3323C80.868 99.3323 86.0993 90.2335 87.2366 89.5511C88.3738 88.8687 79.5033 84.0918 79.5033 84.0918Z" fill="#FFB9B9"/>
<path d="M78.5941 95.0752C75.1165 89.8387 67.0499 90.7756 65.049 96.7348C65.0134 96.8409 64.9793 96.9488 64.9468 97.0584C63.1272 103.2 65.8566 113.664 65.8566 113.664L69.9507 125.947C69.9507 125.947 80.6408 120.943 88.3741 129.359L87.2368 120.715C87.2368 120.715 90.4211 113.436 86.327 108.204C83.7215 104.875 81.3002 99.1499 78.5941 95.0752Z" fill="#FFC061"/>
<path d="M24.8018 187.932L24.3469 191.344C24.3469 191.344 9.33524 188.387 6.15095 191.117C2.96666 193.846 2.96666 195.666 0.464721 193.846C-0.598604 193.073 0.310053 191.19 1.70658 189.281C3.91822 186.285 6.82468 183.871 10.1758 182.248C13.9295 180.41 19.1156 177.739 19.1156 177.014C19.1156 175.876 23.2096 172.464 24.8018 174.284C26.3939 176.104 29.3508 181.108 29.3508 181.108L24.8018 187.932Z" fill="#2F2E41"/>
<path d="M118.427 181.484C118.427 181.484 115.093 193.306 116.305 193.912C117.518 194.518 119.942 196.337 123.579 196.337C125.729 196.337 128.936 197.501 131.2 198.454C133.841 199.581 136.708 200.075 139.574 199.894C141.483 199.763 143.106 199.315 142.977 198.156C142.674 195.428 136.915 194.821 136.915 194.821L130.854 186.94C130.854 186.94 129.793 181.939 128.883 181.939C128.388 181.963 127.902 181.801 127.52 181.484L118.427 181.484Z" fill="#2F2E41"/>
<path d="M84.357 71.3047C85.2726 70.6345 86.3303 70.1843 87.4479 69.9891C88.5656 69.7938 89.7133 69.8587 90.8018 70.1788L91.0661 70.2602C96.1605 71.8302 98.8697 77.7133 97.1174 83.4003V83.4004L95.4104 82.8743L95.7813 80.6908L94.7305 82.6647L84.6063 79.5446L84.3052 77.5078L83.9702 79.3486L81.9785 78.7347C79.6267 83.0644 79.5398 88.092 81.7176 93.8176L78.3248 92.772L77.7225 88.6983L77.0525 92.3799L70.585 90.3867L71.8291 81.8276C73.7137 75.7114 78.8652 71.62 84.357 71.3047Z" fill="#2F2E41"/>
<path d="M203.447 15.9375H126.171V160.581H203.447V15.9375Z" fill="#F2F2F2"/>
<path d="M222.09 160.882H125.87V0H222.09V160.882ZM126.471 160.281H221.489V0.60143H126.471V160.281Z" fill="#3F3D56"/>
<path d="M302.951 199.326H13.2363V200H302.951V199.326Z" fill="#3F3D56"/>
<path d="M210.363 84.5009H137.597V17.7422H210.363V84.5009ZM138.198 83.8995H209.761V18.3436H138.198V83.8995Z" fill="#3F3D56"/>
<path d="M138.11 66.801L137.685 66.3758L160.363 43.695L173.679 57.0118L209.699 20.9883L210.124 21.4135L173.679 57.8622L160.363 44.5454L138.11 66.801Z" fill="#3F3D56"/>
<path d="M160.449 48.7168C162.94 48.7168 164.959 46.6972 164.959 44.206C164.959 41.7148 162.94 39.6953 160.449 39.6953C157.958 39.6953 155.938 41.7148 155.938 44.206C155.938 46.6972 157.958 48.7168 160.449 48.7168Z" fill="#6C63FF"/>
<path d="M173.98 61.0449C176.471 61.0449 178.49 59.0254 178.49 56.5342C178.49 54.043 176.471 52.0234 173.98 52.0234C171.489 52.0234 169.47 54.043 169.47 56.5342C169.47 59.0254 171.489 61.0449 173.98 61.0449Z" fill="#6C63FF"/>
<path d="M210.062 25.5605C212.553 25.5605 214.572 23.541 214.572 21.0498C214.572 18.5586 212.553 16.5391 210.062 16.5391C207.571 16.5391 205.552 18.5586 205.552 21.0498C205.552 23.541 207.571 25.5605 210.062 25.5605Z" fill="#6C63FF"/>
<path d="M201.342 103.145H146.617V108.557H201.342V103.145Z" fill="#3F3D56"/>
<path d="M186.608 147.651H161.351V122.391H178.49V122.992H161.952V147.049H186.007V135.021H186.608V147.651Z" fill="#3F3D56"/>
<path d="M173.85 141.063L168.508 133.939L170.432 132.495L174.111 137.4L191.021 120.488L192.721 122.189L173.85 141.063Z" fill="#6C63FF"/>
<path d="M88.4879 129.928C88.4879 129.928 83.0291 122.648 71.8841 126.97L69.8371 132.657C69.8371 132.657 58.0097 141.983 64.6057 156.314L64.1508 177.696L62.3312 183.838L29.3511 181.108L28.2139 191.572L34.1276 192.027C34.1276 192.027 67.5626 205.22 72.7939 197.031C78.0253 188.842 88.9428 156.542 88.9428 156.542L117.262 160.783C117.262 160.783 116.433 169.646 117.343 170.783C118.253 171.921 117.798 176.698 118.253 177.608C118.708 178.517 118.329 180.883 118.329 180.883L127.725 180.572V176.023C127.725 176.023 128.862 169.881 128.862 168.289C128.862 166.697 135.685 145.769 123.858 143.95C112.031 142.13 91.6722 138.799 91.6722 138.799L88.4879 129.928Z" fill="#2F2E41"/>
<path d="M77.8609 94.3716C77.5733 93.6391 77.1357 92.9748 76.5761 92.4216C76.0165 91.8684 75.3472 91.4385 74.6115 91.1594C73.8758 90.8804 73.0898 90.7584 72.3041 90.8014C71.5184 90.8444 70.7504 91.0513 70.0494 91.409C68.1705 92.3571 66.4323 94.2397 66.5388 97.9671C66.7663 105.929 67.2212 123.216 67.2212 123.216L77.2289 150.74C77.2289 150.74 74.727 169.165 81.323 167.346C87.919 165.526 83.3701 150.058 83.3701 150.058L75.6368 123.899L77.4564 103.199C77.4564 103.199 79.4093 98.4382 77.8609 94.3716Z" fill="#FFB9B9"/>
</g>
<defs>
<clipPath id="clip0_1367_14109">
<rect width="302.951" height="200" fill="white"/>
</clipPath>
</defs>
</svg>
