<svg width="312" height="263" viewBox="0 0 312 263" fill="none" xmlns="http://www.w3.org/2000/svg">
<g clip-path="url(#clip0_1367_14150)">
<path d="M252.121 52.4464C211.604 19.2776 144.8 19.3193 88.2993 53.6927C58.4291 71.8649 32.2711 99.2479 26.6463 140.206C16.5914 213.423 80.3514 218.861 120.156 215.374C139.404 213.688 158.172 214.489 175.975 217.658C208.005 223.357 261.543 221.667 284.655 155.983C301.408 108.375 279.11 74.54 252.121 52.4464Z" fill="#F2F2F2"/>
<path d="M83.2057 106.417C82.9483 105.786 82.61 105.191 82.1994 104.648C82.137 104.541 82.053 104.448 81.9528 104.376C81.8526 104.303 81.7384 104.252 81.6174 104.226C81.4653 104.227 81.3158 104.265 81.1819 104.338L79.0442 105.276C78.8599 105.335 78.6999 105.452 78.5886 105.61C78.3801 105.993 78.7978 106.408 78.9018 106.832C79.0187 107.309 78.7009 107.806 78.2786 108.055C77.838 108.274 77.3558 108.397 76.8641 108.416L73.6174 108.766C74.4568 108.227 75.1277 107.463 75.5536 106.561C75.8336 105.965 75.8087 104.999 75.1542 104.927C74.9651 104.926 74.7775 104.961 74.6011 105.029C73.1919 105.418 71.7646 104.537 70.3094 104.394C69.3836 104.324 68.4592 104.548 67.6683 105.034C66.8775 105.521 66.2608 106.245 65.9064 107.103L67.5883 106.739C67.7422 106.688 67.9082 106.688 68.0622 106.738C68.5063 106.94 68.2078 107.635 68.3845 108.09C68.6141 108.68 69.4566 108.594 70.0818 108.492C70.7071 108.391 71.612 108.678 71.4632 109.294C68.6858 111.168 64.7374 108.888 61.6266 110.132C60.8393 110.447 60.1569 110.973 59.4167 111.386C54.8949 113.914 49.0024 111.982 44.233 114.003C43.1817 114.486 42.1755 115.062 41.2264 115.724C40.6113 116.126 39.972 116.554 39.6196 117.199C39.2672 117.844 39.3161 118.772 39.9243 119.185C38.673 119.633 37.3521 119.856 36.023 119.843C36.4072 119.939 36.7585 120.137 37.0399 120.416C37.3213 120.695 37.5224 121.045 37.6222 121.428C35.7117 122.289 33.9257 123.404 32.3122 124.741C32.8086 125.22 33.3529 125.647 33.9364 126.015L31.8427 128.318C32.7549 128.305 33.509 129.352 33.2071 130.213C33.9874 129.581 34.2633 128.414 35.1553 127.953C35.7397 127.652 36.4393 127.736 37.0921 127.817C37.7449 127.898 38.454 127.956 39.0156 127.614C39.5772 127.271 39.815 126.36 39.2927 125.96C41.6944 124.502 44.2743 123.359 46.9684 122.562C47.1707 122.479 47.3938 122.463 47.606 122.514C48.0249 122.665 48.0738 123.219 48.1699 123.654C48.266 124.088 48.7519 124.563 49.0839 124.267C48.7373 124.779 49.3208 125.413 49.8644 125.709C50.408 126.005 51.0824 126.433 50.9608 127.04C50.929 127.198 50.8416 127.342 50.8128 127.501C50.7278 127.97 51.17 128.372 51.6123 128.55C52.0546 128.728 52.5574 128.8 52.9158 129.114C53.2741 129.429 53.3376 130.13 52.8946 130.306L51.1524 129.004C50.8317 129.583 50.6818 130.242 50.7202 130.904C52.4007 131.661 53.2228 133.9 52.4321 135.565C52.0281 136.416 51.3023 137.062 50.7152 137.799C50.128 138.536 49.657 139.487 49.9027 140.396C50.3272 141.968 50.5901 143.463 51.5698 144.763C53.3761 147.16 55.3313 149.441 57.4238 151.592C57.9733 152.157 58.6485 152.757 59.4316 152.67C57.8602 150.609 56.374 148.486 54.9731 146.303C55.4693 146.172 56.0528 146.058 56.4511 146.381C56.7808 146.65 56.8503 147.116 57.0333 147.5C57.2332 147.865 57.4918 148.196 57.7986 148.478L64.5077 155.352C65.0639 155.922 65.6886 156.526 66.4808 156.605C66.9874 156.655 67.5108 156.48 68.0012 156.617C68.3856 156.724 68.7023 157.012 69.0901 157.106C70.1865 157.371 71.2486 156.014 72.3095 156.398C72.6129 156.507 72.8514 156.747 73.1416 156.888C74.1589 157.382 75.3851 156.54 76.4812 156.818C77.1876 156.998 77.6902 157.6 78.1848 158.135C79.4238 159.477 81.1616 160.65 82.9537 160.303C83.5167 160.194 84.053 159.938 84.626 159.916C85.199 159.895 85.8569 160.224 85.9169 160.794C86.0196 161.772 86.7582 162.675 86.8861 163.65C87.119 165.426 84.8887 166.831 85.14 168.605C85.195 168.993 85.3706 169.362 85.3797 169.754C85.3909 170.234 85.1506 170.692 85.1504 171.173C85.15 172.084 85.9852 172.766 86.807 173.159C87.6288 173.552 88.5584 173.831 89.1384 174.533C89.7514 175.275 89.8258 176.313 90.1984 177.2C91.0117 179.138 93.1483 180.164 95.1935 180.647C95.8166 180.794 96.4774 180.921 96.9661 181.334C97.6039 181.874 97.7924 182.761 98.1584 183.513C99.0548 185.353 101.117 186.514 101.693 188.479C102.102 189.875 101.663 191.359 101.552 192.809C101.455 194.197 101.658 195.588 102.148 196.89C102.638 198.192 103.403 199.372 104.39 200.351C104.897 200.847 105.463 201.291 105.881 201.864C106.627 202.886 106.831 204.22 107.546 205.264C108.492 206.644 110.304 207.508 110.594 209.155C111.637 210.367 113.299 210.654 114.897 210.67L117.761 210.698C118.31 210.703 118.882 210.703 119.374 210.461C119.866 210.219 120.246 209.655 120.091 209.128C118.705 209.184 117.272 209.232 115.981 208.724C114.69 208.216 113.572 206.995 113.638 205.609C113.669 204.966 113.889 204.175 113.375 203.788C113.08 203.567 112.659 203.602 112.343 203.413C111.85 203.118 111.804 202.413 111.953 201.858C112.102 201.303 112.388 200.766 112.354 200.192C112.329 199.873 112.207 199.569 112.005 199.321C111.802 199.073 111.529 198.893 111.221 198.805C111.665 198.486 112.037 198.077 112.313 197.605C112.554 197.115 112.55 196.462 112.157 196.084C112.995 195.97 113.965 195.764 114.331 195.001C114.623 194.392 114.396 193.66 114.059 193.074C113.722 192.488 113.274 191.952 113.09 191.302C114.984 190.889 116.84 190.324 118.642 189.611C118.131 188.777 117.314 188.175 116.367 187.933C117.171 187.565 117.668 186.351 117.716 185.468C117.765 184.585 117.46 183.719 117.071 182.925C116.95 182.726 116.88 182.5 116.868 182.267C116.882 181.94 117.129 181.676 117.362 181.444L120.898 177.923C121.114 177.732 121.295 177.504 121.434 177.251C121.734 176.619 121.461 175.86 121.066 175.282C120.671 174.705 120.151 174.202 119.885 173.555C119.09 171.62 120.85 169.607 121.068 167.526C121.154 166.71 120.996 165.889 120.839 165.083C120.67 164.218 120.41 163.23 119.611 162.857C118.845 162.499 117.9 162.878 117.115 162.565C116.395 162.278 115.955 161.464 115.203 161.278C114.52 161.11 113.829 161.518 113.126 161.541C111.888 161.582 110.795 160.435 109.571 160.629C108.881 160.739 108.209 161.271 107.553 161.027C106.976 160.812 106.771 160.125 106.521 159.562C106.115 158.691 105.451 157.967 104.62 157.485C103.789 157.003 102.831 156.788 101.874 156.868C101.152 156.942 100.409 157.186 99.7182 156.963C99.0185 156.738 98.5516 156.09 97.9401 155.681C96.9546 155.024 95.6835 155.037 94.4993 155.073L89.6824 155.222C88.8273 155.248 87.7635 155.426 87.5207 156.246C87.4648 156.549 87.4506 156.858 87.4785 157.164C87.4587 157.737 87.2578 158.289 86.9046 158.741C86.5513 159.193 86.064 159.521 85.5126 159.678C84.9592 159.132 84.2164 158.821 83.4391 158.809C82.9453 158.804 82.4496 158.922 81.9609 158.851C81.691 158.798 81.4347 158.691 81.2076 158.536C80.9805 158.381 80.7875 158.181 80.6402 157.949C80.493 157.716 80.3947 157.457 80.3514 157.185C80.3081 156.913 80.3206 156.636 80.3883 156.369C80.5248 155.834 80.4815 155.269 80.2649 154.76C80.0483 154.252 79.6705 153.829 79.1898 153.557C78.2337 153.072 77.0742 153.203 76.0595 153.549C75.6306 153.031 75.9046 152.244 76.2772 151.684C76.6497 151.124 77.1288 150.543 77.0632 149.874C76.9601 148.821 75.4687 148.399 74.5727 148.962C73.6768 149.524 73.3077 150.64 73.1463 151.685C73.0537 152.285 73.0041 152.904 72.7524 153.457C72.5008 154.009 71.9871 154.494 71.3802 154.501C70.521 154.511 69.9544 153.638 69.5592 152.875C69.0289 151.851 68.4932 150.813 68.2451 149.687C67.997 148.561 68.0658 147.318 68.6843 146.344C69.6921 144.759 71.7749 144.33 73.6313 144.042C73.0764 143.676 72.9648 142.838 73.2997 142.264C73.4831 141.986 73.7316 141.756 74.0237 141.595C74.3159 141.435 74.6428 141.348 74.9761 141.342C75.55 141.31 76.1182 141.471 76.5891 141.801C77.2693 142.289 77.6412 143.094 78.2188 143.7C78.7965 144.306 79.8299 144.677 80.441 144.106C80.9689 143.612 80.8377 142.731 80.5019 142.091C80.166 141.451 79.6629 140.875 79.5319 140.164C79.2819 138.807 80.4443 137.639 81.5125 136.766C82.5807 135.894 83.7746 134.785 83.6137 133.415C83.5511 133.155 83.5314 132.887 83.5553 132.621C83.6326 132.37 83.7727 132.144 83.9621 131.963C86.8796 128.67 89.8484 125.331 93.5575 122.965C93.7504 122.842 93.795 122.909 93.9959 122.8C94.25 122.545 93.9219 122.118 93.5817 122.001C93.2415 121.885 92.8164 121.839 92.6522 121.519C92.5316 121.284 92.6129 121 92.5835 120.737C92.5111 120.091 91.6155 119.717 91.1057 120.12C90.6647 119.776 91.1745 119.102 91.6569 118.819C93.1054 117.97 94.6405 117.277 96.236 116.753C96.4149 116.674 96.6151 116.655 96.8058 116.7C97.1283 116.816 97.2093 117.257 97.0887 117.578C96.968 117.899 96.7133 118.148 96.5341 118.44C96.3402 118.766 96.2395 119.139 96.2431 119.519C96.2467 119.898 96.3544 120.269 96.5545 120.592C97.5152 120.795 98.5531 120.992 99.4489 120.589C100.345 120.187 100.894 118.912 100.228 118.189C99.6089 117.516 98.3304 117.67 97.8888 116.869C97.3718 115.931 98.5538 114.656 97.9701 113.759C97.7143 113.365 97.2171 113.227 96.8043 113.004C96.3131 112.727 95.9171 112.307 95.6684 111.801C95.4196 111.295 95.3298 110.725 95.4107 110.167C94.8994 110.405 94.3384 110.517 93.7749 110.494C93.2113 110.47 92.6616 110.312 92.1718 110.032C91.2637 109.502 90.3884 108.517 89.3821 108.821C88.4586 109.1 87.9476 110.402 86.9879 110.304C86.7517 110.28 86.4813 110.174 86.2998 110.327C86.2436 110.389 86.2023 110.464 86.1791 110.545C86.1559 110.625 86.1513 110.71 86.1657 110.793C86.228 111.911 86.9318 113.015 86.6002 114.084C86.2393 115.247 84.8247 115.774 84.3043 116.875C84.0219 117.473 84.0378 118.173 83.7958 118.788C83.5538 119.403 82.8356 119.946 82.2601 119.62C82.3606 119.1 82.2817 118.561 82.0362 118.091C81.7907 117.621 81.3931 117.249 80.9085 117.034C80.4116 116.871 79.8962 116.772 79.3745 116.737C78.7795 116.654 78.1953 116.507 77.6319 116.298C77.3564 116.219 77.1085 116.064 76.9157 115.852C76.7329 115.57 76.6568 115.233 76.7014 114.9C76.7549 114.175 77.0052 113.479 77.4253 112.887C77.8454 112.294 78.4193 111.828 79.0851 111.538C79.6695 111.293 80.3833 111.133 80.6608 110.563C80.8077 110.262 80.82 109.862 81.1017 109.68C81.2883 109.587 81.4998 109.558 81.7046 109.595L84.1822 109.786C84.4654 109.832 84.7558 109.804 85.0245 109.703C85.1564 109.648 85.2625 109.545 85.3217 109.415C85.3808 109.285 85.3885 109.137 85.3433 109.002C85.1702 108.645 84.5433 108.62 84.4943 108.226C84.4909 108.095 84.5272 107.966 84.5985 107.857C85.1824 106.768 85.9999 105.822 86.9923 105.086C87.9847 104.35 89.1275 103.843 90.3388 103.601C90.7504 103.994 90.4474 104.671 90.1787 105.172C89.9101 105.674 89.7997 106.471 90.3372 106.657C90.549 106.702 90.7688 106.694 90.9764 106.632C91.554 106.558 92.1397 106.577 92.7113 106.688C93.5849 106.819 94.4521 106.986 95.3129 107.189C95.1135 106.711 94.91 106.205 94.9737 105.691C95.0374 105.177 95.4743 104.67 95.9894 104.725C96.4859 104.779 96.8762 105.313 97.3701 105.239C98.0288 105.14 98.0279 104.128 97.604 103.614C97.1801 103.1 96.5201 102.752 96.3039 102.121C96.1581 101.696 96.179 101.115 95.7628 100.945C95.6186 100.9 95.4657 100.888 95.3163 100.912L86.2535 101.636C85.7153 101.679 84.9937 101.95 85.1106 102.477C85.1758 102.771 85.5127 102.99 85.4693 103.288C85.423 103.606 85.0126 103.688 84.7458 103.868C84.3319 104.147 84.2482 104.75 84.4207 105.218C84.6287 105.674 84.9349 106.078 85.3174 106.401C84.6927 106.316 83.8305 106.501 83.2057 106.417Z" fill="#3F3D56"/>
<path d="M74.3493 100.929C73.7563 100.895 73.1672 101.044 72.6618 101.356C72.1563 101.668 71.759 102.127 71.5237 102.673C71.4316 102.898 71.3814 103.188 71.5548 103.359C71.8034 103.604 72.2075 103.373 72.5003 103.183C72.9265 102.888 73.4362 102.739 73.954 102.756C74.2828 102.779 74.6012 102.889 74.9302 102.908C75.0939 102.93 75.2606 102.907 75.4123 102.842C75.564 102.776 75.695 102.671 75.7914 102.537C75.9422 102.269 75.867 101.937 75.7879 101.64C75.7757 101.537 75.7407 101.438 75.6853 101.35C75.63 101.262 75.5557 101.188 75.468 101.133C75.3282 101.095 75.1814 101.091 75.0398 101.121C74.7114 101.147 74.3842 101.058 74.1147 100.868" fill="#3F3D56"/>
<path d="M77.2319 99.2278C77.1082 99.2538 76.9933 99.3112 76.8983 99.3945C76.8032 99.4777 76.7312 99.5841 76.6891 99.7033C76.647 99.8224 76.6363 99.9504 76.6579 100.075C76.6796 100.199 76.7329 100.316 76.8128 100.414C77.2145 100.416 77.6124 100.337 77.9827 100.181C78.1664 100.1 78.322 99.9663 78.4299 99.7969C78.5378 99.6274 78.5931 99.4298 78.5888 99.2289C78.1583 99.4325 77.6674 99.4685 77.2118 99.3296" fill="#3F3D56"/>
<path d="M87.2919 94.9812C86.3311 95.4708 85.4316 96.0723 84.612 96.773C85.1007 96.8247 85.56 97.032 85.9221 97.3644C86.2841 97.6968 86.5299 98.1368 86.6231 98.6195C86.6321 98.812 86.6873 98.9995 86.784 99.1661C86.9626 99.3997 87.3028 99.4141 87.5967 99.4076C88.1328 99.4257 88.668 99.3531 89.1798 99.1929C89.4351 99.11 89.6657 98.9647 89.8507 98.7702C90.0357 98.5757 90.1693 98.3381 90.2394 98.0789C90.2573 97.8459 90.2896 97.6143 90.3359 97.3853C90.7272 96.2008 93.0179 96.8924 93.467 95.7286C93.6252 95.3187 93.464 94.8086 93.7172 94.4495C93.8541 94.2859 94.0295 94.1589 94.2277 94.08C95.5793 93.4137 96.9664 92.8219 98.3827 92.3071C99.0537 92.0632 99.8832 91.5764 99.704 90.8851C96.9798 91.0701 94.3932 92.1502 92.3462 93.9574C91.6096 94.6117 90.7245 95.81 89.7535 95.4644C89.3899 95.3351 89.2524 94.7612 88.7663 94.6364C88.2693 94.5089 87.7242 94.761 87.2919 94.9812Z" fill="#3F3D56"/>
<path d="M96.1797 94.2946L97.4571 94.2026C97.2308 94.2526 97.0178 94.3503 96.8323 94.4892C96.6468 94.628 96.493 94.8049 96.3812 95.0079C96.2695 95.211 96.2023 95.4355 96.1841 95.6666C96.166 95.8977 96.1974 96.13 96.2761 96.348C97.5156 96.4233 98.6568 95.721 99.8687 95.4505C101.081 95.1799 102.704 95.6625 102.817 96.8995C102.851 97.2736 102.74 97.6861 102.94 98.0038C103.08 98.2265 103.341 98.3415 103.521 98.5328C103.898 98.9314 103.855 99.5749 103.65 100.084C103.446 100.593 103.109 101.045 102.95 101.57C102.556 102.876 103.339 104.219 104.087 105.359C104.334 105.8 104.673 106.182 105.081 106.478C105.868 106.966 106.882 106.755 107.78 106.528C108.433 106.363 109.17 106.131 109.447 105.517C109.808 104.714 109.157 103.787 109.303 102.92C109.437 102.132 110.175 101.611 110.859 101.199C112.113 100.443 113.409 99.7396 114.535 98.8043C115.934 97.6429 117.118 96.0997 118.846 95.5354C119.331 95.3771 119.85 95.3001 120.288 95.0384C120.726 94.7766 121.066 94.2463 120.899 93.7644C120.755 93.3528 120.318 93.1396 119.955 92.8974C119.593 92.6553 119.245 92.2269 119.41 91.8237L123.776 89.7336C123.212 88.9329 122.645 87.8314 123.238 87.0528C123.453 86.7718 123.792 86.5916 123.954 86.2778C124.231 85.7431 123.836 85.0557 123.285 84.8114C122.735 84.5672 122.101 84.6463 121.508 84.7534C119.448 85.126 117.451 85.7796 115.462 86.4313C111.573 87.7052 107.684 88.9792 103.795 90.2531C103.013 90.5095 102.077 90.6888 101.421 91.1551C100.866 91.55 100.54 92.0888 99.8744 92.4259C98.6452 93.0482 97.1623 93.2473 96.1797 94.2946Z" fill="#3F3D56"/>
<path d="M120.517 98.0689C120.388 98.0825 120.269 98.1451 120.185 98.2439C120.137 98.3374 120.122 98.4444 120.143 98.5475C120.184 99.0158 120.401 99.4513 120.75 99.7666C120.925 99.92 121.139 100.024 121.368 100.067C121.597 100.11 121.834 100.09 122.053 100.011C122.582 99.7947 122.86 99.2199 123.302 98.8574C123.983 98.2989 127.128 96.8702 124.521 96.2498C123.623 96.036 123.216 96.5462 122.672 96.9912C122.065 97.5398 121.32 97.9124 120.517 98.0689Z" fill="#3F3D56"/>
<path d="M137.701 82.4254C137.464 82.6053 137.293 82.8586 137.216 83.1456C137.183 83.2896 137.207 83.4406 137.282 83.5674C137.358 83.6943 137.479 83.7872 137.621 83.827C137.73 83.8364 137.84 83.8249 137.945 83.7931L139.035 83.5357C139.497 83.4264 140.097 83.3705 140.339 83.7801C140.519 84.0843 140.427 84.5617 140.738 84.7303C140.866 84.7841 141.007 84.7997 141.144 84.7752C141.524 84.7713 141.9 84.6836 142.243 84.5185C142.973 84.0967 142.431 83.7272 142.564 83.2332C142.768 82.4774 142.808 82.8911 143.375 82.3371C143.795 81.928 144.297 81.2549 143.697 80.6595C142.652 79.624 138.616 81.6151 137.701 82.4254Z" fill="#3F3D56"/>
<path d="M158.873 76.0908L158.268 76.3428C156.903 76.911 155.53 77.4832 154.281 78.2737C154.934 78.349 155.594 78.335 156.242 78.2323C156.594 78.1562 156.953 78.1128 157.313 78.1026C157.963 78.1206 158.694 78.4211 159.212 78.028C159.533 77.7842 159.55 77.377 159.796 77.0978C159.965 76.905 160.688 76.4728 160.739 76.3106C161.145 74.9992 159.397 75.8725 158.873 76.0908Z" fill="#3F3D56"/>
<path d="M162.394 78.2071C161.682 78.9007 161.056 79.6791 160.532 80.5248C160.312 80.8811 160.103 81.3068 160.238 81.7036C160.417 82.2311 161.073 82.3894 161.624 82.4664L163.859 82.7786C164.01 82.3701 163.661 81.956 163.319 81.6862C162.977 81.4163 162.573 81.1062 162.576 80.6705C162.578 80.1733 163.101 79.8642 163.553 79.6576C164.289 79.3209 166.373 78.7737 165.79 77.5972C165.103 76.2109 163.053 77.5666 162.394 78.2071Z" fill="#3F3D56"/>
<path d="M184.209 161.233C184.166 161.838 184.323 162.494 184.783 162.889C185.299 163.332 186.095 163.335 186.7 163.025C187.294 162.684 187.766 162.165 188.049 161.541C188.318 161.009 188.504 160.44 188.601 159.852C188.712 158.946 188.717 158.03 188.614 157.123L188.361 153.684C188.304 152.915 187.698 150.675 186.55 151.765C186.236 152.063 185.808 153.867 185.543 154.417C185.066 155.408 185.183 156.214 185.08 157.287C184.95 158.632 184.304 159.896 184.209 161.233Z" fill="#3F3D56"/>
<path d="M259.672 158.96C259.186 158.906 258.705 158.817 258.232 158.694C258.124 159.936 258.225 161.187 258.531 162.396L261.083 159.887C261.467 159.509 261.885 159.016 261.736 158.498C261.722 158.433 261.692 158.372 261.647 158.323C261.603 158.273 261.546 158.237 261.482 158.217C261.408 158.208 261.333 158.219 261.264 158.249C260.828 158.406 260.48 158.734 260.1 159C259.72 159.265 259.25 159.478 258.803 159.355" fill="#3F3D56"/>
<path d="M275.815 155.719C275.509 155.897 275.217 156.1 274.943 156.324C274.347 156.86 274.056 157.654 273.558 158.283C273.083 158.885 272.432 159.32 271.793 159.745C271.635 159.983 271.828 160.326 272.096 160.426C272.374 160.499 272.667 160.487 272.938 160.392C273.673 160.212 274.444 160.013 274.989 159.489C275.286 159.159 275.552 158.801 275.781 158.42C276.362 157.596 277.149 156.944 277.931 156.308C278.222 156.099 278.473 155.84 278.673 155.543C279.084 154.843 278.896 153.983 278.04 154.012C277.349 154.035 276.381 155.352 275.815 155.719Z" fill="#3F3D56"/>
<path d="M281.6 149.256C281.535 148.868 281.382 148.5 281.154 148.179C280.925 147.858 280.627 147.594 280.281 147.405C280.476 148.165 280.669 148.978 280.411 149.719C280.227 150.247 279.832 150.676 279.613 151.19C279.395 151.704 279.428 152.418 279.918 152.686C280.218 152.809 280.55 152.833 280.864 152.753C281.665 152.636 282.577 152.446 282.972 151.739C283.187 151.353 283.21 150.861 283.512 150.539C283.632 150.446 283.729 150.327 283.797 150.192C283.883 149.913 283.561 149.663 283.271 149.649C282.98 149.635 282.696 149.755 282.405 149.745C282.114 149.736 281.786 149.5 281.858 149.218" fill="#3F3D56"/>
<path d="M261.693 124.818C261.312 125.026 260.897 125.164 260.467 125.225C259.742 125.283 259.064 124.906 258.391 124.628C256.794 123.973 255.03 123.842 253.353 124.253C251.829 124.63 250.409 125.452 248.842 125.564C249.085 126.079 249.657 126.361 250.216 126.47C250.774 126.579 251.352 126.554 251.912 126.658C252.81 126.827 253.616 127.314 254.184 128.03C254.444 128.361 254.654 128.74 254.983 129.001C255.657 129.535 256.635 129.43 257.448 129.154C258.509 128.793 259.554 128.18 260.666 128.314C261.517 128.415 262.248 128.941 263.029 129.292C263.811 129.643 264.819 129.79 265.455 129.215C264.623 129.172 263.827 128.864 263.182 128.337C262.537 127.809 262.078 127.089 261.871 126.282C262.612 126.155 264.686 125.572 264.245 124.374C263.871 123.358 262.283 124.539 261.693 124.818Z" fill="#3F3D56"/>
<path d="M254.508 135.822C254.448 135.083 254.983 134.274 254.582 133.651C254.305 133.22 253.696 133.134 253.198 133.255C252.701 133.376 252.254 133.653 251.763 133.8C251.437 133.869 251.115 133.96 250.801 134.072C249.863 134.497 249.533 135.688 248.706 136.302C248.203 136.675 247.56 136.802 247.016 137.113C245.782 137.818 245.278 139.298 244.62 140.559C243.557 142.589 241.908 144.253 239.888 145.334C239.18 145.712 238.398 146.041 237.929 146.692C237.308 147.555 237.411 148.721 237.505 149.78C237.765 152.704 237.753 155.645 237.469 158.567L240.731 158.125C241.351 158.041 241.992 157.949 242.522 157.617C242.899 157.346 243.24 157.028 243.536 156.67C244.707 155.421 246.127 154.432 247.704 153.767C248.499 153.433 249.36 153.18 250.217 153.279C251.074 153.379 251.925 153.897 252.213 154.711C252.52 154.516 252.874 154.41 253.238 154.401C253.601 154.393 253.96 154.483 254.276 154.663C254.904 155.034 255.401 155.593 255.695 156.261C255.893 156.67 256.115 157.165 256.564 157.239C256.93 157.299 257.262 157.04 257.612 156.915C258.798 156.493 260.183 157.638 261.31 157.075C262.518 156.471 262.318 154.473 263.462 153.755C264.12 153.343 265.196 153.342 265.36 152.584C265.505 151.915 264.72 151.399 264.606 150.725C264.466 149.895 265.329 149.295 265.972 148.752C268.191 146.881 268.48 143.142 266.575 140.952C265.446 139.654 263.698 138.863 262.993 137.294C262.452 136.087 262.555 134.482 261.484 133.704C260.94 133.309 260.172 133.215 259.767 132.678C259.512 132.339 259.458 131.892 259.268 131.513C259.079 131.134 258.617 130.809 258.249 131.019C257.181 131.628 257.765 135.276 257.381 136.304C256.797 137.865 254.647 137.516 254.508 135.822Z" fill="#3F3D56"/>
<path d="M231.363 134.382C230.941 134.377 230.483 134.384 230.149 134.642C229.815 134.9 229.743 135.511 230.119 135.705C232.456 134.98 234.808 134.252 237.236 133.945C240.033 133.592 242.949 133.792 245.587 132.796C243.916 132.754 242.245 132.811 240.581 132.965L237.792 133.169C237.04 133.211 236.291 133.292 235.548 133.413C234.001 133.694 232.963 134.401 231.363 134.382Z" fill="#3F3D56"/>
<path d="M231.522 125.521C231.322 125.557 231.075 125.608 231.019 125.804C230.965 125.991 231.133 126.174 231.13 126.369C231.124 126.635 230.818 126.784 230.555 126.819C230.291 126.853 229.994 126.847 229.801 127.03C229.708 127.139 229.652 127.275 229.643 127.418C229.633 127.561 229.67 127.704 229.749 127.824C229.911 128.061 230.124 128.259 230.372 128.403C230.818 128.734 231.301 129.014 231.81 129.237C232.782 129.618 233.959 129.613 234.704 130.346C234.821 130.495 234.972 130.615 235.144 130.695C235.431 130.784 235.72 130.58 235.952 130.389L236.764 129.717C236.915 129.612 237.037 129.471 237.119 129.306C237.253 128.963 237.014 128.589 236.753 128.327C236.493 128.065 236.179 127.806 236.123 127.441C236.021 126.79 236.769 126.33 236.959 125.7C237.149 125.064 236.742 124.42 236.609 123.769C236.454 123.008 236.663 121.909 235.757 121.552C234.986 121.249 234.489 121.853 234.168 122.501C233.491 123.869 233.352 125.191 231.522 125.521Z" fill="#3F3D56"/>
<path d="M234.149 112.829C234.627 113.35 235.383 113.535 235.886 114.032C236.431 114.572 236.61 115.409 237.182 115.92C237.768 116.444 238.696 116.558 239.123 117.218C239.589 117.94 239.268 119.054 239.914 119.621C240.03 119.71 240.164 119.775 240.306 119.81C240.449 119.846 240.597 119.851 240.741 119.826C240.886 119.802 241.024 119.747 241.146 119.666C241.269 119.585 241.373 119.48 241.452 119.356C241.59 119.093 241.619 118.786 241.534 118.501C241.448 118.216 241.255 117.976 240.995 117.831C240.656 117.656 240.235 117.653 239.93 117.424C239.766 117.288 239.635 117.116 239.548 116.923C239.267 116.371 239.124 115.76 239.132 115.141C239.154 114.979 239.127 114.814 239.053 114.667C238.871 114.397 238.461 114.484 238.141 114.421C237.414 114.28 237.186 113.367 237.109 112.63C237.16 113.121 235.269 112.769 235.022 112.55C234.531 112.113 234.447 111.04 234.221 110.474C233.565 111.038 233.563 112.192 234.149 112.829Z" fill="#3F3D56"/>
<path d="M219.755 126.675C219.352 126.411 218.789 126.173 218.43 126.494C218.157 126.738 218.187 127.199 218.4 127.498C218.637 127.78 218.944 127.995 219.291 128.122C220.346 128.604 221.45 128.998 222.426 129.625C224.174 130.747 225.425 132.558 227.26 133.531C227.64 133.769 228.087 133.876 228.533 133.835C228.972 133.761 229.379 133.358 229.313 132.918C229.26 132.556 228.93 132.307 228.621 132.11C227.885 131.643 227.107 131.239 226.395 130.735C226.08 130.552 225.836 130.268 225.704 129.928C225.608 129.58 225.828 129.129 226.19 129.125C225.75 129.13 225.262 128.526 224.624 128.559C224.09 128.587 224.052 128.932 223.383 128.835C222.106 128.651 220.797 127.358 219.755 126.675Z" fill="#3F3D56"/>
<path d="M237.614 85.7256C237.26 85.716 236.906 85.6871 236.555 85.6392C235.636 85.6117 234.679 86.5381 235.028 87.3882C235.26 87.953 235.91 88.2016 236.347 88.6284C236.994 89.2615 237.131 90.2478 237.123 91.1533C237.135 91.4296 237.092 91.7057 236.995 91.9649C236.841 92.2528 236.632 92.5082 236.38 92.7171C235.405 93.6686 234.623 94.8001 234.078 96.0491C234.014 96.168 233.984 96.3019 233.989 96.4368C234.028 96.7449 234.385 96.8814 234.62 97.0841C235.143 97.5344 235.07 98.3481 235.286 99.0036C235.305 99.0993 235.349 99.1883 235.413 99.2624C235.476 99.3364 235.558 99.393 235.649 99.4267C235.906 99.481 236.122 99.2141 236.185 98.9591C236.394 98.113 235.771 97.0119 236.438 96.4521C236.565 96.3462 236.732 96.2709 236.794 96.1183C236.893 95.8762 236.666 95.6178 236.679 95.3566C236.698 94.9644 237.188 94.8159 237.571 94.7303C238.231 94.5828 238.86 94.3211 239.43 93.957C239.659 93.8335 239.846 93.6455 239.969 93.4164C240.121 93.0705 239.992 92.671 239.85 92.3212C239.138 90.5776 238.099 88.9863 236.789 87.6333C237.482 87.5393 238.231 87.4181 238.716 86.9137C238.988 86.6313 239.219 85.9421 238.952 85.5869C238.529 85.0252 238.212 85.6783 237.614 85.7256Z" fill="#3F3D56"/>
<path d="M154.345 118.676C154.54 119.085 154.74 119.517 154.71 119.969C154.68 120.421 154.33 120.886 153.877 120.872C153.525 120.86 153.25 120.584 152.952 120.396C151.298 119.354 148.617 120.932 147.365 119.43C146.853 118.817 146.849 117.92 146.43 117.24C146.176 116.851 145.801 116.556 145.361 116.403C144.922 116.25 144.445 116.248 144.005 116.396C143.612 116.564 143.246 116.79 142.918 117.065C140.68 118.741 138.225 120.104 135.62 121.118C135.118 121.286 134.638 121.513 134.19 121.794C133.195 122.489 132.715 123.713 132.459 124.9C132.202 126.087 132.109 127.322 131.639 128.441C131.145 129.617 130.269 130.583 129.48 131.585C129.165 131.932 128.938 132.349 128.815 132.801C128.719 133.298 128.868 133.806 129.016 134.29L130.807 140.169C131.038 140.926 131.282 141.707 131.807 142.299C132.462 143.037 133.454 143.37 134.24 143.967C135.044 144.581 135.611 145.455 135.845 146.439C135.938 146.835 136.023 147.31 136.395 147.475C136.614 147.546 136.848 147.55 137.069 147.488L145.269 145.994C146.712 145.732 148.327 145.503 149.537 146.331C150.108 146.722 150.653 147.359 151.334 147.235C151.626 147.182 151.872 146.99 152.152 146.891C152.858 146.64 153.638 147.018 154.199 147.514C155.05 148.271 155.619 149.295 155.812 150.417C155.931 151.123 155.897 151.849 156.035 152.55C156.563 155.221 159.397 156.904 160.145 159.521C160.584 161.061 160.238 162.702 159.89 164.265C161.513 165.705 161.192 168.288 162.2 170.211C163.156 172.034 165.181 173.12 166.106 174.96C166.529 175.802 166.834 176.897 167.743 177.145C168.133 177.221 168.536 177.195 168.913 177.07C171.231 176.478 173.376 175.346 175.172 173.766C176.015 173.023 176.829 172.033 176.712 170.915C176.617 170.014 175.92 169.165 176.164 168.292C176.452 167.264 177.817 166.973 178.408 166.084C179.366 164.64 177.822 162.791 177.903 161.06C177.976 159.505 179.346 158.322 179.781 156.826C179.939 156.191 180 155.535 179.959 154.881C179.92 153.304 179.737 151.733 179.414 150.188C179.187 149.258 179.008 148.316 178.877 147.368C178.318 141.918 182.544 137.035 182.876 131.567C182.908 131.044 182.812 130.386 182.313 130.229C182.028 130.176 181.733 130.223 181.478 130.361L177.904 131.819C177.46 132 176.988 132.185 176.515 132.107C176.042 132.029 175.596 131.576 175.711 131.111C176.035 129.804 174.357 128.712 173.47 127.699C171.082 124.972 168.441 122.479 165.581 120.252C165.407 120.145 165.273 119.983 165.199 119.793L166.259 119.547C165.563 118.37 164.606 117.134 163.245 117C162.479 116.925 161.732 117.222 161.001 117.461C158.904 118.148 156.537 118.438 154.345 118.676Z" fill="#3F3D56"/>
<path d="M153.18 88.2665C153.895 88.7086 154.687 89.1685 155.52 89.0557C156.991 88.8566 157.62 87.1109 157.928 85.6582C158.04 85.9776 158.271 86.2409 158.574 86.3922C158.877 86.5435 159.226 86.5707 159.548 86.4682C159.884 86.315 160.184 86.0941 160.43 85.8194C162.836 83.5233 165.774 81.8609 168.981 80.9816C168.885 80.7464 168.88 80.4841 168.966 80.2451C169.052 80.0061 169.223 79.8074 169.447 79.6874C170.065 79.3829 170.805 79.79 171.277 80.2923C171.749 80.7946 172.128 81.422 172.746 81.727C173.364 82.0321 174.328 81.7533 174.356 81.0644C174.382 80.403 173.606 80.0527 172.982 79.8343C172.357 79.6159 171.622 79.0989 171.835 78.4724C174.374 77.1516 176.929 75.8241 179.659 74.9653C180.133 74.8557 180.58 74.6494 180.971 74.3594C181.337 74.0398 181.546 73.4808 181.311 73.0558C180.746 73.359 180.104 73.4871 179.466 73.4237C178.828 73.3604 178.224 73.1085 177.73 72.7001C181.477 71.357 185.481 69.9953 189.36 70.8889C190.002 71.6548 188.12 72.9395 188.887 73.5799C189.132 73.7841 189.495 73.7185 189.804 73.6417C192.176 73.0532 194.561 72.4602 196.799 71.4785C197.617 71.1198 198.429 70.7052 199.313 70.5814C200.786 70.3752 202.261 71.0001 203.747 70.9345C204.352 70.9078 204.993 70.7405 205.385 70.2794C205.778 69.8182 205.782 69.0064 205.272 68.6802C206.246 67.0314 208.524 66.765 210.432 66.918C212.341 67.071 214.26 67.6284 216.141 67.2724C217.49 67.0172 218.736 66.302 220.103 66.178C220.962 66.1001 221.825 66.2608 222.687 66.2702C224.319 66.2881 225.901 65.7682 227.483 65.3663C231.518 64.343 235.708 64.0678 239.843 64.5543C240.372 64.5824 240.887 64.7262 241.354 64.9757C241.802 65.255 242.134 65.7862 242.022 66.3016L238.009 66.7719C238.565 67.3908 239.539 67.2607 240.37 67.303C241.2 67.3453 242.219 67.9772 241.936 68.7595C241.037 68.7176 240.509 69.7469 240.295 70.621C240.08 71.4951 239.815 72.5443 238.96 72.8233C238.194 73.0731 237.076 72.663 236.728 73.3897C237.665 74.0853 238.521 74.8831 239.281 75.7683C240.06 76.6771 240.769 77.8957 240.344 79.0152C240.283 79.2112 240.155 79.3797 239.982 79.4917C239.467 79.7796 238.927 79.1998 238.421 78.8962C237.784 78.5136 236.99 78.5697 236.249 78.5087C235.508 78.4477 234.668 78.1622 234.423 77.46C234.271 77.0232 234.395 76.5458 234.458 76.0875C234.563 75.3151 234.489 74.5289 234.241 73.7898C234.041 73.1954 233.703 72.6118 233.156 72.3057C232.609 71.9996 231.823 72.0664 231.461 72.5782C231.292 72.817 231.195 73.1525 230.916 73.2389C230.422 73.3917 229.806 72.6242 229.484 73.0288C229.616 73.3327 229.637 73.6732 229.543 73.9909C228.624 75.354 226.666 75.4062 225.22 76.1881C224.542 76.5951 223.921 77.0906 223.374 77.6615C223.158 77.8315 222.997 78.0618 222.911 78.3234C222.819 78.7497 223.16 79.1727 223.566 79.3308C223.986 79.4553 224.428 79.485 224.86 79.4179C226.839 79.2701 228.897 79.3103 230.707 80.1216C232.518 80.9329 234.028 82.6712 234.056 84.6553L229.392 82.1016C229.932 83.5537 230.413 85.0263 230.833 86.5194C230.935 86.8055 230.974 87.1105 230.946 87.4131C230.838 88.0687 230.174 88.4577 229.58 88.7552C229.414 88.8353 229.267 88.9496 229.148 89.0906C229.029 89.2316 228.942 89.3961 228.891 89.5733C228.841 89.7505 228.828 89.9364 228.855 90.1188C228.881 90.3012 228.946 90.476 229.044 90.6316C229.463 91.2999 230.172 91.7185 230.833 92.1475C231.495 92.5766 232.169 93.0851 232.439 93.8259C232.709 94.5668 232.366 95.5753 231.592 95.7261C231.006 95.8404 230.44 95.4393 230.055 94.9826C229.669 94.5258 229.367 93.9829 228.879 93.6378C227.402 92.5933 225.047 93.8414 223.662 92.6769C223.485 93.0347 223.402 93.4319 223.421 93.8309C223.44 94.2299 223.561 94.6173 223.771 94.9565C224.159 94.5403 224.869 94.6404 225.332 94.9702C225.795 95.3001 226.106 95.7989 226.508 96.2011C227.051 96.7437 227.793 97.1548 228.043 97.8805C228.104 98.1638 228.184 98.4428 228.282 98.7156C228.494 99.1391 228.959 99.3594 229.322 99.6636C230.166 100.371 230.457 101.577 230.328 102.671C230.199 103.765 229.713 104.781 229.227 105.77C228.378 107.497 227.502 109.223 226.363 110.773C226.038 111.216 225.683 111.66 225.55 112.193C225.416 112.725 225.577 113.38 226.068 113.626C225.788 113.716 225.317 113.992 225.037 114.082C224.633 112.971 224.305 111.834 224.056 110.678C222.793 110.441 221.974 112.203 222.449 113.397C222.924 114.591 224.08 115.342 225.001 116.238C225.674 116.894 226.263 117.711 226.347 118.647C226.432 119.583 225.855 120.622 224.93 120.785C223.458 121.045 222.303 119.141 220.816 119.287C220.682 119.291 220.554 119.339 220.451 119.424C220.271 119.597 220.31 119.89 220.362 120.134C220.621 121.332 220.9 122.575 221.653 123.541C222.756 124.955 224.859 125.827 224.946 127.618C222.73 127.23 221.113 125.294 220.079 123.295C219.045 121.296 218.37 119.088 216.998 117.304C216.583 118.286 215.072 117.971 214.265 117.274C213.5 116.614 212.912 115.77 212.161 115.095C211.409 114.419 210.398 113.905 209.411 114.121C208.376 114.348 207.677 115.287 207.076 116.159C206.581 116.876 206.074 117.618 205.901 118.472C205.65 119.715 206.139 120.97 206.441 122.201C206.767 123.532 206.861 125.004 206.218 126.215C205.576 127.426 204.002 128.209 202.773 127.603C202.131 127.286 201.697 126.672 201.298 126.078C199.374 123.215 197.614 120.245 196.028 117.182C196.06 117.97 195.664 119.102 194.924 118.831C194.753 118.751 194.6 118.635 194.477 118.492C192.787 116.833 190.318 116.228 187.954 116.102C185.59 115.976 183.214 116.259 180.856 116.056C179.534 115.943 178.229 115.678 176.968 115.266C176.802 115.742 176.767 116.254 176.869 116.748C176.97 117.241 177.203 117.699 177.542 118.071C178.246 118.788 179.456 118.987 180.301 118.444C180.737 118.164 181.052 117.724 181.481 117.434C181.911 117.143 182.569 117.053 182.898 117.454C183.213 117.838 183.055 118.447 183.326 118.863C183.739 119.497 184.801 119.27 185.337 119.804C185.736 120.202 185.679 120.887 185.391 121.371C185.104 121.855 184.64 122.202 184.236 122.594C182.924 123.864 182.22 125.622 181.178 127.121C180.136 128.621 178.458 129.962 176.656 129.662C176.519 127.621 173.829 126.816 172.888 125C172.578 124.402 172.469 123.708 172.104 123.143C171.575 122.324 170.615 121.921 169.781 121.416C168.767 120.796 167.887 119.978 167.194 119.012C166.501 118.045 166.009 116.95 165.746 115.791C165.567 114.984 165.496 114.134 165.106 113.405C164.716 112.676 163.871 112.096 163.083 112.345C161.284 112.914 159.026 113.664 157.654 112.367C157.165 111.904 156.799 111.132 157.178 110.576C157.446 110.183 157.967 110.073 158.436 109.996L162.647 109.3C163.632 109.138 164.69 108.938 165.379 108.215C166.068 107.492 166.068 106.065 165.148 105.679C164.475 105.397 163.483 105.687 163.137 105.045C162.849 104.51 163.308 103.692 162.838 103.306C162.502 103.03 161.977 103.272 161.712 103.618C161.447 103.964 161.306 104.404 160.985 104.698C160.421 105.215 159.552 105.1 158.788 105.068C158.025 105.037 157.076 105.271 156.909 106.017C156.723 106.851 157.701 107.617 157.519 108.452C157.277 109.556 155.431 109.459 154.95 110.482C154.399 111.655 156.139 112.719 156.194 114.014C155.893 114.28 155.527 114.463 155.134 114.545C154.74 114.627 154.332 114.605 153.949 114.483C153.57 114.35 153.233 114.117 152.975 113.809C152.718 113.5 152.548 113.128 152.485 112.731C152.405 112.163 152.541 111.524 152.21 111.056C151.942 110.677 151.453 110.54 151.003 110.429L146.425 109.293C146.239 110.079 146.935 110.805 147.659 111.165C148.382 111.524 149.22 111.716 149.786 112.292C150.156 112.697 150.356 113.228 150.347 113.776C150.339 114.325 150.121 114.849 149.739 115.242C149.692 115.296 149.634 115.34 149.569 115.37C149.504 115.401 149.433 115.416 149.362 115.417C149.288 115.396 149.219 115.361 149.159 115.314C149.1 115.266 149.05 115.207 149.013 115.14C147.827 113.528 146.295 112.035 144.354 111.547C142.413 111.059 140.038 111.903 139.356 113.784C139.193 114.231 139.132 114.707 139.009 115.167C138.358 117.607 136.017 119.308 133.561 119.896C133.326 119.973 133.074 119.981 132.834 119.918C132.367 119.752 132.23 119.169 132.163 118.678L131.879 116.592C131.822 116.174 131.776 115.706 132.029 115.367C132.385 114.89 133.097 114.94 133.67 114.778C134.1 114.641 134.478 114.374 134.752 114.015C135.026 113.656 135.183 113.221 135.202 112.77C135.205 112.318 135.085 111.874 134.855 111.485C134.625 111.096 134.293 110.778 133.895 110.564C133.565 110.387 133.128 110.17 133.178 109.799C133.208 109.692 133.262 109.593 133.336 109.508C133.409 109.424 133.5 109.357 133.602 109.312C134.555 108.735 135.625 108.364 136.547 107.737C137.468 107.111 138.259 106.122 138.219 105.009C138.206 104.667 138.135 104.269 138.381 104.032C138.51 103.932 138.657 103.859 138.814 103.816C139.344 103.59 139.77 103.174 140.008 102.649C140.247 102.125 140.28 101.53 140.102 100.982C140.498 100.511 141.247 100.579 141.815 100.814C142.383 101.05 142.927 101.417 143.542 101.419C144.689 101.424 145.467 100.201 146.573 99.9003C147.039 99.7737 147.565 99.8092 147.96 99.534C148.361 99.255 148.508 98.7418 148.761 98.3238C149.015 97.9059 149.559 97.5464 149.968 97.814L149.168 95.9004C149.744 95.8922 150.312 95.7607 150.833 95.5149C151.355 95.2691 151.817 94.9146 152.19 94.4752L148.413 94.2327C148.284 94.2349 148.157 94.2052 148.043 94.1463C147.718 93.9425 147.855 93.4529 147.977 93.0898C148.27 92.221 148.026 90.9842 147.123 90.8329C146.506 90.7296 145.955 91.1995 145.506 91.6352L143.356 93.7223C143.405 94.2244 144.065 94.3393 144.516 94.5655C144.789 94.7023 145.014 94.9185 145.162 95.1856C145.309 95.4527 145.373 95.7582 145.344 96.062C145.315 96.3658 145.195 96.6537 144.999 96.8879C144.803 97.1221 144.541 97.2916 144.248 97.3742C144.472 97.5461 144.655 97.7662 144.783 98.0183C144.911 98.2705 144.98 98.5482 144.986 98.8308L143.318 99.4089C143.138 99.4984 142.929 99.5129 142.738 99.449C142.513 99.3361 142.462 99.0464 142.355 98.818C142.098 98.2668 141.424 98.0131 140.818 98.064C140.212 98.1149 139.657 98.4066 139.119 98.6915C138.9 98.8441 138.631 98.9094 138.366 98.8748C138.206 98.8225 138.066 98.7191 137.97 98.5802C137.556 98.039 137.599 97.261 137.862 96.6326C138.126 96.0043 138.576 95.4761 138.955 94.9102C139.861 93.553 140.37 91.9694 140.423 90.3382C141.254 89.695 142.081 88.9021 142.912 88.2589C144.159 87.1411 145.694 86.3937 147.343 86.1006L150.53 85.3116C151.474 85.078 152.444 84.8427 153.408 84.9681C154.372 85.0935 155.342 85.6633 155.653 86.5845C155.7 86.6858 155.72 86.7972 155.711 86.9083C155.703 87.0194 155.667 87.1266 155.605 87.2198C155.501 87.3195 155.37 87.388 155.229 87.4176C154.362 87.6829 154.047 88.0011 153.18 88.2665Z" fill="#3F3D56"/>
<path d="M130.571 104.978C130.663 104.827 130.712 104.654 130.713 104.477C130.713 104.301 130.665 104.127 130.574 103.976C130.241 103.941 129.905 103.999 129.604 104.144C129.302 104.289 129.047 104.515 128.868 104.797C128.731 105.038 128.626 105.295 128.557 105.563C128.322 106.354 128.171 107.265 128.616 107.961C128.658 108.038 128.715 108.107 128.784 108.162C128.853 108.217 128.932 108.258 129.017 108.283C129.136 108.297 129.258 108.284 129.372 108.245C129.831 108.121 130.282 107.97 130.723 107.792C130.993 107.683 131.297 107.517 131.335 107.228C131.386 106.847 130.938 106.552 130.943 106.169C130.966 105.991 131.027 105.821 131.123 105.67C131.17 105.595 131.199 105.509 131.208 105.42C131.216 105.331 131.203 105.241 131.171 105.158C131.086 105.002 130.804 104.975 130.751 105.146" fill="#3F3D56"/>
<path d="M132.124 101.254C131.691 101.27 131.264 101.356 130.859 101.509C130.766 101.531 130.68 101.576 130.61 101.641C130.546 101.72 130.511 101.819 130.51 101.921C130.498 102.227 130.601 102.526 130.799 102.759C130.998 102.992 131.277 103.142 131.58 103.179C131.739 103.173 131.898 103.192 132.051 103.236C132.476 103.414 132.401 104.033 132.586 104.455C132.793 104.93 133.383 105.217 133.427 105.733C133.462 106.14 133.13 106.558 133.301 106.928C133.48 107.317 134.028 107.301 134.449 107.223C134.698 107.201 134.936 107.107 135.134 106.953C135.316 106.74 135.413 106.467 135.406 106.187C135.44 105.641 135.369 105.092 135.197 104.573C135.131 104.333 135.007 104.113 134.837 103.932C134.668 103.797 134.489 103.677 134.3 103.571C133.266 102.865 133.73 101.275 132.124 101.254Z" fill="#3F3D56"/>
<path opacity="0.8" d="M255.029 145.326C255.029 145.326 185.368 126.839 161.137 140.371C161.137 140.371 107.642 161.06 104.753 175.815C104.753 175.815 72.5778 125.774 65.7051 125.66" stroke="#FFD954" stroke-width="2" stroke-miterlimit="10"/>
<path opacity="0.8" d="M104.754 175.815C107.641 146.101 190.822 91.7438 190.822 91.7438C178.752 98.4977 161.137 140.371 161.137 140.371C161.137 140.371 93.1323 114.204 65.7052 125.66C65.7052 125.66 192.111 96.1892 255.029 145.326" stroke="#FFD954" stroke-width="2" stroke-miterlimit="10"/>
<path d="M66.414 128.305C67.8746 127.913 68.7414 126.412 68.3499 124.951C67.9584 123.49 66.4569 122.623 64.9963 123.014C63.5357 123.405 62.6689 124.907 63.0604 126.368C63.4519 127.829 64.9533 128.696 66.414 128.305Z" fill="#FFD954"/>
<path d="M105.463 178.461C106.923 178.07 107.79 176.568 107.399 175.107C107.007 173.646 105.506 172.779 104.045 173.17C102.584 173.562 101.718 175.063 102.109 176.524C102.501 177.985 104.002 178.852 105.463 178.461Z" fill="#FFD954"/>
<path d="M191.531 94.3889C192.992 93.9975 193.859 92.4958 193.467 91.0348C193.076 89.5737 191.574 88.7066 190.113 89.098C188.653 89.4894 187.786 90.991 188.178 92.4521C188.569 93.9131 190.071 94.7802 191.531 94.3889Z" fill="#FFD954"/>
<path d="M255.738 147.971C257.199 147.579 258.066 146.078 257.674 144.617C257.283 143.156 255.781 142.289 254.321 142.68C252.86 143.071 251.993 144.573 252.385 146.034C252.776 147.495 254.278 148.362 255.738 147.971Z" fill="#FFD954"/>
<path d="M161.846 143.016C163.306 142.624 164.173 141.123 163.782 139.662C163.39 138.201 161.889 137.334 160.428 137.725C158.967 138.116 158.101 139.618 158.492 141.079C158.884 142.54 160.385 143.407 161.846 143.016Z" fill="#FFD954"/>
</g>
<defs>
<clipPath id="clip0_1367_14150">
<rect width="269.182" height="200" fill="white" transform="translate(0 69.6699) rotate(-15)"/>
</clipPath>
</defs>
</svg>
